<svg width="80" height="80" viewBox="0 0 80 80" fill="none" xmlns="http://www.w3.org/2000/svg">
<path d="M32.25 5.05181C37.0457 2.28301 42.9543 2.28301 47.75 5.05181L66.391 15.8142C71.1867 18.583 74.141 23.7 74.141 29.2376V50.7624C74.141 56.3 71.1867 61.417 66.391 64.1858L47.75 74.9482C42.9543 77.717 37.0457 77.717 32.25 74.9482L13.609 64.1858C8.81327 61.417 5.85898 56.3 5.85898 50.7624V29.2376C5.85898 23.7 8.81327 18.583 13.609 15.8142L32.25 5.05181Z" stroke="#24BD53"/>
<path d="M55.7955 44.7874C54.6076 43.0469 52.7146 41.9409 50.6398 41.7452C51.2736 41.1069 51.6522 40.2761 51.7275 39.357C52.2905 38.8989 52.5532 38.233 52.4547 37.4825C52.3808 36.9199 52.0894 36.5496 51.7858 36.3259C51.8618 35.2634 51.6096 34.3877 51.0335 33.7179C50.0968 32.6289 48.5691 32.4003 47.4525 32.4003C47.2644 32.4003 47.0823 32.4058 46.9063 32.4162C46.7715 31.8673 46.5276 31.3846 46.1735 30.9728C45.1195 29.7474 43.3908 29.4902 42.1262 29.4902C41.5961 29.4902 41.1208 29.5258 40.6862 29.5963C40.536 29.2403 40.3365 28.9152 40.0855 28.6234C38.9312 27.2816 37.0304 27 35.6391 27C33.5839 27 32.1524 27.4859 31.2629 28.4856C30.527 29.3126 30.2015 30.4675 30.2928 31.9232C29.9059 32.1757 29.5106 32.627 29.4163 33.3477C29.2938 34.2829 29.6208 35.0817 30.3417 35.6318C30.4267 36.9014 30.9775 38.0401 31.914 38.8672C31.9397 38.8899 31.9667 38.9112 31.9929 38.9334C29.2899 39.0979 26.7599 40.5357 25.2336 42.7721C24.4266 43.9547 24 45.3622 24 46.8423V49.7989C24 51.5638 25.4359 52.9997 27.2008 52.9997H28.7528C29.1064 52.9997 29.3931 52.7131 29.3931 52.3594V47.3569C29.3931 47.0033 29.1064 46.7166 28.7528 46.7166C28.3992 46.7166 28.1125 47.0033 28.1125 47.3569V51.7191H27.2008C26.142 51.7191 25.2806 50.8577 25.2806 49.7989V46.8423C25.2806 45.6208 25.6302 44.4629 26.2914 43.4938C27.43 41.8254 29.1725 40.7009 31.1182 40.3308C31.2098 40.7094 31.3743 41.1994 31.6699 41.6889C32.2377 42.6292 33.3978 43.7501 35.7001 43.7501C38.0021 43.7501 39.1621 42.629 39.7299 41.6885C40.0249 41.1997 40.1894 40.7104 40.2811 40.3321C42.6235 40.7775 44.8616 42.4118 45.7269 44.678C45.9901 45.3675 46.1193 46.1049 46.1193 46.8424V49.7989C46.1193 50.8578 45.2579 51.7192 44.199 51.7192H43.308V47.357C43.308 47.0033 43.0212 46.7167 42.6677 46.7167C42.3141 46.7167 42.0274 47.0033 42.0274 47.357V51.7192H34.3342C33.9806 51.7192 33.6938 52.0059 33.6938 52.3595C33.6938 52.7131 33.9806 52.9998 34.3342 52.9998L54.1424 53C55.5988 53 56.7837 51.8149 56.7837 50.3581V48.0477C56.7837 46.8628 56.4421 45.7355 55.7955 44.7874ZM50.0627 34.553C50.4655 35.0212 50.6019 35.7078 50.468 36.5936C50.4186 36.9205 50.6262 37.2313 50.947 37.3108C50.949 37.3113 51.1486 37.3728 51.185 37.6493C51.2334 38.0177 51.1078 38.2681 50.7779 38.461C50.5816 38.5758 50.4608 38.7862 50.4608 39.0137C50.4608 39.7948 50.1661 40.4678 49.6084 40.96C49.4543 41.0961 49.2832 41.2154 49.0975 41.3163C48.0268 40.6863 46.8138 40.309 45.5741 40.2253C46.3855 39.4835 46.872 38.4444 46.9521 37.3507C47.6036 36.8425 47.8982 36.1103 47.7863 35.2545C47.7179 34.7325 47.4467 34.2586 47.012 33.9574C47.0189 33.87 47.0235 33.7842 47.0266 33.6991C47.0267 33.6966 47.0269 33.6941 47.0271 33.6917C47.1638 33.6845 47.3059 33.681 47.4526 33.681C48.1471 33.681 49.41 33.7942 50.0627 34.553ZM40.9945 30.8441C41.3354 30.7954 41.7139 30.7708 42.1263 30.7708C44.0269 30.7708 44.8696 31.4205 45.2027 31.8078C45.5344 32.1935 45.7158 32.6996 45.7454 33.3187C45.758 33.6503 45.6995 33.9673 45.6845 34.296C45.6649 34.6015 45.8571 34.887 46.1639 34.9494C46.2455 34.9765 46.4721 35.0819 46.5165 35.4206C46.5769 35.8822 46.413 36.2097 46.0007 36.4512C45.8045 36.5661 45.6841 36.7764 45.6841 37.0037C45.6841 37.2282 45.6633 37.4531 45.619 37.6733C45.3746 38.8863 44.4014 39.758 43.2291 40.067C42.5585 39.6864 41.8385 39.3949 41.0873 39.2002C40.5011 39.0485 39.8994 38.9566 39.2946 38.9276C40.2685 38.1009 40.8516 36.9029 40.9368 35.6315C41.6521 35.0856 41.9784 34.2339 41.8623 33.3477C41.7794 32.7143 41.4506 32.341 41.0081 31.9261C41.0269 31.7158 41.0196 31.594 41.0207 31.4303C41.022 31.2348 41.0131 31.039 40.9945 30.8441ZM31.6107 35.2832C31.6107 35.0559 31.4902 34.8457 31.2941 34.7307C30.8078 34.4458 30.6146 34.0591 30.686 33.5139C30.7427 33.081 31.0506 32.9549 31.1301 32.9294C31.4537 32.8616 31.6449 32.564 31.6064 32.2346C31.455 30.9393 31.6612 29.9643 32.2195 29.3369C32.8521 28.6261 33.9707 28.2805 35.6392 28.2805C37.2269 28.2805 38.4612 28.6989 39.1147 29.4585C39.3842 29.7718 39.5664 30.1541 39.6618 30.6014C39.7803 31.1574 39.7212 31.6937 39.6708 32.252C39.6397 32.573 39.8295 32.8628 40.1484 32.9295C40.4045 33.0117 40.5588 33.2575 40.5923 33.5138C40.6466 33.9284 40.5476 34.251 40.2835 34.5071C40.2002 34.5878 40.101 34.6621 39.9845 34.7303C39.7903 34.844 39.6676 35.0579 39.6676 35.2831C39.6676 36.3347 39.2696 37.2421 38.5166 37.9071C37.7317 38.6003 36.6741 38.9168 35.6391 38.9168C34.5208 38.9168 33.4989 38.5582 32.7617 37.9071C32.0087 37.2421 31.6107 36.3348 31.6107 35.2832ZM35.7002 42.4695C34.3502 42.4695 33.371 41.9971 32.7899 41.0655C32.6014 40.7632 32.4824 40.4559 32.4076 40.1993C32.4076 40.1993 38.9643 40.1996 38.9918 40.2001C38.917 40.4567 38.7981 40.7634 38.6099 41.0652C38.0288 41.997 37.0499 42.4695 35.7002 42.4695ZM46.8484 51.5931C47.2064 51.0666 47.4001 50.4358 47.4001 49.7991V46.8425C47.4001 44.7994 46.5404 42.921 45.1009 41.4888C47.5438 41.5142 50.035 42.9583 51.0385 45.2346C51.3382 45.9144 51.4858 46.6561 51.4858 47.3983V50.0569C51.4858 50.9736 50.74 51.7193 49.8233 51.7193H46.7586C46.7896 51.6781 46.8193 51.6358 46.8484 51.5931ZM55.503 50.358C55.503 51.1087 54.8927 51.7193 54.1424 51.7193H52.2508C52.5852 51.2325 52.7664 50.6475 52.7664 50.0569V47.3983C52.7664 45.8268 52.2117 44.3403 51.2172 43.1292C52.6362 43.4416 53.9009 44.2831 54.7377 45.5091C55.2383 46.2434 55.503 47.1212 55.503 48.0477V50.358Z" fill="black"/>
</svg>
