<svg width="80" height="80" viewBox="0 0 80 80" fill="none" xmlns="http://www.w3.org/2000/svg">
<path d="M32.25 5.05181C37.0457 2.28301 42.9543 2.28301 47.75 5.05181L66.391 15.8142C71.1867 18.583 74.141 23.7 74.141 29.2376V50.7624C74.141 56.3 71.1867 61.417 66.391 64.1858L47.75 74.9482C42.9543 77.717 37.0457 77.717 32.25 74.9482L13.609 64.1858C8.81327 61.417 5.85898 56.3 5.85898 50.7624V29.2376C5.85898 23.7 8.81327 18.583 13.609 15.8142L32.25 5.05181Z" stroke="#24BD53"/>
<path d="M29.7449 26.1814C29.7191 26.1861 29.6934 26.1931 29.6699 26.2002C29.391 26.2635 29.1941 26.5142 29.2012 26.8002V31.0002H28.0012C27.0145 31.0002 26.2012 31.8135 26.2012 32.8002V34.0002C26.2012 34.9869 27.0145 35.8002 28.0012 35.8002H31.6012C32.5879 35.8002 33.4012 34.9869 33.4012 34.0002V32.8002C33.4012 31.8135 32.5879 31.0002 31.6012 31.0002H30.4012V26.8002C30.4082 26.6267 30.3379 26.4603 30.2137 26.3431C30.0871 26.2236 29.916 26.165 29.7449 26.1814ZM39.9449 26.1814C39.9191 26.1861 39.8934 26.1931 39.8699 26.2002C39.591 26.2635 39.3941 26.5142 39.4012 26.8002V43.6002H38.2012C37.2145 43.6002 36.4012 44.4135 36.4012 45.4002V46.6002C36.4012 47.5869 37.2145 48.4002 38.2012 48.4002H41.8012C42.7879 48.4002 43.6012 47.5869 43.6012 46.6002V45.4002C43.6012 44.4135 42.7879 43.6002 41.8012 43.6002H40.6012V26.8002C40.6082 26.6267 40.5379 26.4603 40.4137 26.3431C40.2871 26.2236 40.116 26.165 39.9449 26.1814ZM50.1449 26.1814C50.1191 26.1861 50.0934 26.1931 50.0699 26.2002C49.791 26.2635 49.5941 26.5142 49.6012 26.8002V32.8002H48.4012C47.4145 32.8002 46.6012 33.6135 46.6012 34.6002V35.8002C46.6012 36.7869 47.4145 37.6002 48.4012 37.6002H52.0012C52.9879 37.6002 53.8012 36.7869 53.8012 35.8002V34.6002C53.8012 33.6135 52.9879 32.8002 52.0012 32.8002H50.8012V26.8002C50.8082 26.6267 50.7379 26.4603 50.6137 26.3431C50.4871 26.2236 50.316 26.165 50.1449 26.1814ZM28.0012 32.2002H31.6012C31.941 32.2002 32.2012 32.4603 32.2012 32.8002V34.0002C32.2012 34.34 31.941 34.6002 31.6012 34.6002H28.0012C27.6613 34.6002 27.4012 34.34 27.4012 34.0002V32.8002C27.4012 32.4603 27.6613 32.2002 28.0012 32.2002ZM48.4012 34.0002H52.0012C52.341 34.0002 52.6012 34.2603 52.6012 34.6002V35.8002C52.6012 36.14 52.341 36.4002 52.0012 36.4002H48.4012C48.0613 36.4002 47.8012 36.14 47.8012 35.8002V34.6002C47.8012 34.2603 48.0613 34.0002 48.4012 34.0002ZM29.2012 36.4002V40.4877C29.1965 40.5252 29.1965 40.5627 29.2012 40.6002V53.2002C29.1988 53.4158 29.3113 53.6174 29.4988 53.7275C29.6863 53.8353 29.916 53.8353 30.1035 53.7275C30.291 53.6174 30.4035 53.4158 30.4012 53.2002V40.6002C30.4059 40.5627 30.4059 40.5252 30.4012 40.4877V36.4002H29.2012ZM49.6012 38.2002V42.2877C49.5965 42.3252 49.5965 42.3627 49.6012 42.4002V53.2002C49.5988 53.4158 49.7113 53.6174 49.8988 53.7275C50.0863 53.8353 50.316 53.8353 50.5035 53.7275C50.691 53.6174 50.8035 53.4158 50.8012 53.2002V42.4002C50.8059 42.3627 50.8059 42.3252 50.8012 42.2877V38.2002H49.6012ZM38.2012 44.8002H41.8012C42.141 44.8002 42.4012 45.0603 42.4012 45.4002V46.6002C42.4012 46.94 42.141 47.2002 41.8012 47.2002H38.2012C37.8613 47.2002 37.6012 46.94 37.6012 46.6002V45.4002C37.6012 45.0603 37.8613 44.8002 38.2012 44.8002ZM39.4012 49.0002V50.0877C39.3965 50.1252 39.3965 50.1627 39.4012 50.2002V53.2002C39.3988 53.4158 39.5113 53.6174 39.6988 53.7275C39.8863 53.8353 40.116 53.8353 40.3035 53.7275C40.491 53.6174 40.6035 53.4158 40.6012 53.2002V50.2002C40.6059 50.1627 40.6059 50.1252 40.6012 50.0877V49.0002H39.4012Z" fill="black"/>
</svg>
