<svg width="80" height="80" viewBox="0 0 80 80" fill="none" xmlns="http://www.w3.org/2000/svg">
<path d="M32.25 5.05181C37.0457 2.28301 42.9543 2.28301 47.75 5.05181L66.391 15.8142C71.1867 18.583 74.141 23.7 74.141 29.2376V50.7624C74.141 56.3 71.1867 61.417 66.391 64.1858L47.75 74.9482C42.9543 77.717 37.0457 77.717 32.25 74.9482L13.609 64.1858C8.81327 61.417 5.85898 56.3 5.85898 50.7624V29.2376C5.85898 23.7 8.81327 18.583 13.609 15.8142L32.25 5.05181Z" stroke="#24BD53"/>
<g clip-path="url(#clip0)">
<path d="M39.6767 28.4522C34.7568 28.3598 30.1248 31.4471 28.492 36.3563C27.5187 39.2846 27.7443 42.4149 29.1258 45.1735C30.5072 47.9321 32.8812 49.986 35.8074 50.9592C37.0127 51.3589 38.2373 51.5501 39.4426 51.5501C40.3793 51.5501 41.3031 51.4319 42.199 51.2128V50.0741C40.2761 50.6026 38.1836 50.5897 36.1554 49.9173C33.5064 49.0364 31.3601 47.1758 30.1097 44.6815C28.8594 42.185 28.6553 39.3534 29.5361 36.7044C30.9906 32.3258 35.0812 29.5501 39.4597 29.5501C40.549 29.5501 41.6576 29.7219 42.749 30.085C45.3959 30.9659 47.5443 32.8243 48.7947 35.3186C49.1342 35.9975 49.3898 36.7001 49.5746 37.4176L46.2595 36.0534C45.9781 35.9374 45.658 36.0706 45.542 36.3499C45.426 36.6313 45.5592 36.9536 45.8406 37.0696L50.189 38.8592C50.2578 38.8872 50.3265 38.9001 50.3974 38.9001C50.6144 38.9001 50.8185 38.7733 50.9045 38.5606L52.606 34.4292C52.722 34.1477 52.5888 33.8276 52.3074 33.7094C52.026 33.5956 51.7058 33.7288 51.5898 34.0102L50.5006 36.6571C50.3115 36.034 50.0752 35.4196 49.7787 34.8266C48.3951 32.068 46.0211 30.0141 43.0949 29.0409C41.9627 28.6649 40.8111 28.4737 39.6767 28.4522ZM45.4045 43.3001C44.2443 43.3001 43.299 44.2454 43.299 45.4055V51.6446C43.299 52.8048 44.2443 53.7501 45.4045 53.7501H51.6435C52.8037 53.7501 53.749 52.8048 53.749 51.6446V45.4055C53.749 44.2454 52.8037 43.3001 51.6435 43.3001H45.4045ZM51.1086 46.0501L51.9336 46.7655L48.249 51.0001L45.6644 49.0214L46.324 48.1405L48.1394 49.5155L51.1086 46.0501Z" fill="black"/>
</g>
<defs>
<clipPath id="clip0">
<rect width="27.5" height="27.5" fill="white" transform="translate(26.25 26.25)"/>
</clipPath>
</defs>
</svg>
