<svg width="537" height="504" viewBox="0 0 537 504" fill="none" xmlns="http://www.w3.org/2000/svg">
<path d="M270 22.5C160.333 38.5 90.4012 29.7 72.0012 70.5C49.0012 121.5 138.5 203 281 205C423.5 207 368 289 301.5 323C279.834 328.833 237.8 348.4 243 380C248.2 411.6 293.5 431.167 315.5 437" stroke="black" stroke-dasharray="10 15"/>
<g filter="url(#filter0_d)">
<rect x="12" y="12" width="300" height="80" rx="12" fill="white"/>
<rect x="12.25" y="12.25" width="299.5" height="79.5" rx="11.75" stroke="#EBEBF9" stroke-width="0.5"/>
</g>
<path d="M108.887 48H107.164V39.4414H102.782V48H101.06V38.0469H108.887V48ZM110.507 44.2334C110.507 43.5088 110.65 42.8571 110.938 42.2783C111.225 41.695 111.628 41.2484 112.147 40.9385C112.667 40.624 113.264 40.4668 113.938 40.4668C114.937 40.4668 115.745 40.7881 116.365 41.4307C116.99 42.0732 117.327 42.9255 117.377 43.9873L117.384 44.377C117.384 45.1061 117.243 45.7578 116.96 46.332C116.682 46.9062 116.281 47.3506 115.757 47.665C115.237 47.9795 114.636 48.1367 113.952 48.1367C112.909 48.1367 112.072 47.7904 111.443 47.0977C110.819 46.4004 110.507 45.473 110.507 44.3154V44.2334ZM112.168 44.377C112.168 45.138 112.325 45.735 112.64 46.168C112.954 46.5964 113.392 46.8105 113.952 46.8105C114.513 46.8105 114.948 46.5918 115.258 46.1543C115.572 45.7168 115.729 45.0765 115.729 44.2334C115.729 43.486 115.568 42.8936 115.244 42.4561C114.925 42.0186 114.49 41.7998 113.938 41.7998C113.396 41.7998 112.965 42.0163 112.646 42.4492C112.327 42.8776 112.168 43.5202 112.168 44.377ZM124.965 40.6035V48H123.304V41.9434H121.212L121.075 44.5205C120.989 45.7601 120.749 46.651 120.357 47.1934C119.97 47.7311 119.375 48 118.573 48H118.061L118.054 46.6191L118.396 46.585C118.76 46.5348 119.024 46.3138 119.188 45.9219C119.357 45.5254 119.464 44.8053 119.51 43.7617L119.646 40.6035H124.965ZM129.319 45.6211L130.823 40.6035H132.594L129.654 49.1211C129.203 50.3652 128.438 50.9873 127.357 50.9873C127.116 50.9873 126.849 50.9463 126.558 50.8643V49.5791L126.872 49.5996C127.291 49.5996 127.606 49.5221 127.815 49.3672C128.03 49.2168 128.198 48.9616 128.321 48.6016L128.561 47.9658L125.963 40.6035H127.754L129.319 45.6211ZM139.484 48H137.823V45.5322C137.395 45.6325 136.944 45.6826 136.47 45.6826C135.458 45.6826 134.686 45.4411 134.152 44.958C133.619 44.4704 133.353 43.7731 133.353 42.8662V40.5967H135.014V42.8662C135.014 43.404 135.132 43.7845 135.369 44.0078C135.611 44.2311 135.978 44.3428 136.47 44.3428C136.916 44.3428 137.368 44.2904 137.823 44.1855V40.6035H139.484V48ZM145.869 40.6035H147.523V48H145.869V43.0645L142.971 48H141.316V40.6035H142.971V45.5391L145.869 40.6035ZM155.111 41.9229H152.712V48H151.051V41.9229H148.679V40.6035H155.111V41.9229ZM159.042 48.1367C157.989 48.1367 157.135 47.8063 156.479 47.1455C155.827 46.4801 155.501 45.596 155.501 44.4932V44.2881C155.501 43.5498 155.642 42.8913 155.925 42.3125C156.212 41.7292 156.613 41.2757 157.128 40.9521C157.643 40.6286 158.217 40.4668 158.851 40.4668C159.858 40.4668 160.635 40.7881 161.182 41.4307C161.733 42.0732 162.009 42.9824 162.009 44.1582V44.8281H157.176C157.226 45.4388 157.429 45.9219 157.784 46.2773C158.144 46.6328 158.595 46.8105 159.138 46.8105C159.899 46.8105 160.519 46.5029 160.997 45.8877L161.893 46.7422C161.596 47.1842 161.2 47.5283 160.703 47.7744C160.211 48.016 159.657 48.1367 159.042 48.1367ZM158.844 41.7998C158.388 41.7998 158.019 41.9593 157.736 42.2783C157.458 42.5973 157.281 43.0417 157.203 43.6113H160.368V43.4883C160.332 42.9323 160.184 42.513 159.924 42.2305C159.664 41.9434 159.304 41.7998 158.844 41.7998ZM173.268 44.377C173.268 45.5208 173.008 46.4346 172.488 47.1182C171.969 47.7972 171.271 48.1367 170.396 48.1367C169.585 48.1367 168.936 47.8701 168.448 47.3369V50.8438H166.787V40.6035H168.318L168.387 41.3555C168.874 40.763 169.537 40.4668 170.376 40.4668C171.278 40.4668 171.985 40.804 172.495 41.4785C173.01 42.1484 173.268 43.0804 173.268 44.2744V44.377ZM171.613 44.2334C171.613 43.4951 171.465 42.9095 171.169 42.4766C170.877 42.0436 170.458 41.8271 169.911 41.8271C169.232 41.8271 168.744 42.1074 168.448 42.668V45.9492C168.749 46.5234 169.241 46.8105 169.925 46.8105C170.453 46.8105 170.866 46.5986 171.162 46.1748C171.463 45.7464 171.613 45.0993 171.613 44.2334ZM177.937 48.1367C176.884 48.1367 176.029 47.8063 175.373 47.1455C174.721 46.4801 174.396 45.596 174.396 44.4932V44.2881C174.396 43.5498 174.537 42.8913 174.819 42.3125C175.106 41.7292 175.507 41.2757 176.022 40.9521C176.537 40.6286 177.112 40.4668 177.745 40.4668C178.752 40.4668 179.529 40.7881 180.076 41.4307C180.628 42.0732 180.903 42.9824 180.903 44.1582V44.8281H176.07C176.12 45.4388 176.323 45.9219 176.679 46.2773C177.039 46.6328 177.49 46.8105 178.032 46.8105C178.793 46.8105 179.413 46.5029 179.892 45.8877L180.787 46.7422C180.491 47.1842 180.094 47.5283 179.598 47.7744C179.105 48.016 178.552 48.1367 177.937 48.1367ZM177.738 41.7998C177.283 41.7998 176.913 41.9593 176.631 42.2783C176.353 42.5973 176.175 43.0417 176.098 43.6113H179.263V43.4883C179.226 42.9323 179.078 42.513 178.818 42.2305C178.559 41.9434 178.199 41.7998 177.738 41.7998ZM181.922 44.4043C181.922 43.1966 182.159 42.2396 182.633 41.5332C183.111 40.8223 183.777 40.4668 184.629 40.4668C184.975 40.4668 185.29 40.5306 185.572 40.6582V37.5H187.227V40.6855C187.518 40.5397 187.86 40.4668 188.252 40.4668C189.1 40.4668 189.763 40.82 190.241 41.5264C190.724 42.2282 190.966 43.2354 190.966 44.5479C190.966 45.6553 190.724 46.5303 190.241 47.1729C189.758 47.8154 189.1 48.1367 188.266 48.1367C187.887 48.1367 187.541 48.0684 187.227 47.9316V50.8438H185.572V47.959C185.294 48.0775 184.975 48.1367 184.615 48.1367C183.818 48.1367 183.18 47.8428 182.701 47.2549C182.227 46.6624 181.97 45.849 181.929 44.8145L181.922 44.4043ZM189.305 44.4043C189.305 43.5749 189.173 42.9346 188.908 42.4834C188.644 42.0277 188.27 41.7998 187.787 41.7998C187.582 41.7998 187.395 41.8294 187.227 41.8887V46.7422C187.377 46.7878 187.568 46.8105 187.801 46.8105C188.803 46.8105 189.305 46.0085 189.305 44.4043ZM183.576 44.5479C183.576 45.2861 183.699 45.849 183.945 46.2363C184.191 46.6191 184.556 46.8105 185.039 46.8105C185.244 46.8105 185.422 46.7878 185.572 46.7422V41.8682C185.417 41.8226 185.244 41.7998 185.053 41.7998C184.579 41.7998 184.214 42.0208 183.959 42.4629C183.704 42.9004 183.576 43.5954 183.576 44.5479ZM195.655 48.1367C194.603 48.1367 193.748 47.8063 193.092 47.1455C192.44 46.4801 192.114 45.596 192.114 44.4932V44.2881C192.114 43.5498 192.256 42.8913 192.538 42.3125C192.825 41.7292 193.226 41.2757 193.741 40.9521C194.256 40.6286 194.83 40.4668 195.464 40.4668C196.471 40.4668 197.248 40.7881 197.795 41.4307C198.346 42.0732 198.622 42.9824 198.622 44.1582V44.8281H193.789C193.839 45.4388 194.042 45.9219 194.397 46.2773C194.757 46.6328 195.209 46.8105 195.751 46.8105C196.512 46.8105 197.132 46.5029 197.61 45.8877L198.506 46.7422C198.21 47.1842 197.813 47.5283 197.316 47.7744C196.824 48.016 196.271 48.1367 195.655 48.1367ZM195.457 41.7998C195.001 41.7998 194.632 41.9593 194.35 42.2783C194.072 42.5973 193.894 43.0417 193.816 43.6113H196.981V43.4883C196.945 42.9323 196.797 42.513 196.537 42.2305C196.277 41.9434 195.917 41.7998 195.457 41.7998ZM206.395 44.377C206.395 45.5208 206.135 46.4346 205.615 47.1182C205.096 47.7972 204.398 48.1367 203.523 48.1367C202.712 48.1367 202.063 47.8701 201.575 47.3369V50.8438H199.914V40.6035H201.445L201.514 41.3555C202.001 40.763 202.664 40.4668 203.503 40.4668C204.405 40.4668 205.112 40.804 205.622 41.4785C206.137 42.1484 206.395 43.0804 206.395 44.2744V44.377ZM204.74 44.2334C204.74 43.4951 204.592 42.9095 204.296 42.4766C204.004 42.0436 203.585 41.8271 203.038 41.8271C202.359 41.8271 201.871 42.1074 201.575 42.668V45.9492C201.876 46.5234 202.368 46.8105 203.052 46.8105C203.58 46.8105 203.993 46.5986 204.289 46.1748C204.59 45.7464 204.74 45.0993 204.74 44.2334ZM212.226 48C212.153 47.8587 212.089 47.6286 212.034 47.3096C211.506 47.861 210.858 48.1367 210.093 48.1367C209.35 48.1367 208.744 47.9248 208.274 47.501C207.805 47.0771 207.57 46.5531 207.57 45.9287C207.57 45.1403 207.862 44.5365 208.445 44.1172C209.033 43.6934 209.872 43.4814 210.961 43.4814H211.979V42.9961C211.979 42.6133 211.872 42.3079 211.658 42.0801C211.444 41.8477 211.118 41.7314 210.681 41.7314C210.302 41.7314 209.993 41.8271 209.751 42.0186C209.509 42.2054 209.389 42.4447 209.389 42.7363H207.728C207.728 42.3307 207.862 41.9525 208.131 41.6016C208.4 41.2461 208.764 40.9681 209.225 40.7676C209.689 40.5671 210.207 40.4668 210.776 40.4668C211.642 40.4668 212.333 40.6855 212.848 41.123C213.363 41.556 213.627 42.1667 213.641 42.9551V46.291C213.641 46.9564 213.734 47.4873 213.921 47.8838V48H212.226ZM210.4 46.8037C210.729 46.8037 211.036 46.724 211.323 46.5645C211.615 46.4049 211.834 46.1908 211.979 45.9219V44.5273H211.084C210.469 44.5273 210.006 44.6344 209.696 44.8486C209.386 45.0628 209.231 45.3659 209.231 45.7578C209.231 46.0768 209.336 46.332 209.546 46.5234C209.76 46.7103 210.045 46.8037 210.4 46.8037ZM221.666 40.6035V48H220.005V41.9434H217.913L217.776 44.5205C217.69 45.7601 217.451 46.651 217.059 47.1934C216.671 47.7311 216.076 48 215.274 48H214.762L214.755 46.6191L215.097 46.585C215.461 46.5348 215.726 46.3138 215.89 45.9219C216.058 45.5254 216.165 44.8053 216.211 43.7617L216.348 40.6035H221.666ZM225.221 42.9551H226.848C227.454 42.9551 227.982 43.0599 228.434 43.2695C228.885 43.4792 229.227 43.7731 229.459 44.1514C229.696 44.5296 229.814 44.9694 229.814 45.4707C229.814 46.2318 229.546 46.8424 229.008 47.3027C228.47 47.763 227.755 47.9954 226.861 48H223.56V40.6035H225.221V42.9551ZM225.221 44.2881V46.6738H226.841C227.246 46.6738 227.565 46.5736 227.798 46.373C228.035 46.168 228.153 45.8786 228.153 45.5049C228.153 45.1312 228.037 44.8372 227.805 44.623C227.577 44.4043 227.267 44.2926 226.875 44.2881H225.221ZM237.409 48H235.748V45.0127H232.87V48H231.209V40.6035H232.87V43.6865H235.748V40.6035H237.409V48ZM241.771 45.6211L243.274 40.6035H245.045L242.105 49.1211C241.654 50.3652 240.889 50.9873 239.809 50.9873C239.567 50.9873 239.3 50.9463 239.009 50.8643V49.5791L239.323 49.5996C239.743 49.5996 240.057 49.5221 240.267 49.3672C240.481 49.2168 240.649 48.9616 240.772 48.6016L241.012 47.9658L238.414 40.6035H240.205L241.771 45.6211ZM247.807 43.5771H249.201C249.324 42.6338 249.689 41.8796 250.295 41.3145C250.901 40.7493 251.667 40.4668 252.592 40.4668C253.59 40.4668 254.399 40.7881 255.019 41.4307C255.643 42.0732 255.98 42.9255 256.03 43.9873L256.037 44.377C256.037 45.1061 255.896 45.7578 255.613 46.332C255.335 46.9062 254.934 47.3506 254.41 47.665C253.891 47.9795 253.289 48.1367 252.605 48.1367C251.648 48.1367 250.862 47.8405 250.247 47.248C249.636 46.6556 249.283 45.8763 249.188 44.9102H247.807V48H246.146V40.6035H247.807V43.5771ZM250.821 44.377C250.821 45.138 250.979 45.735 251.293 46.168C251.607 46.5964 252.045 46.8105 252.605 46.8105C253.166 46.8105 253.601 46.5918 253.911 46.1543C254.221 45.7168 254.376 45.0765 254.376 44.2334C254.376 43.4723 254.214 42.8776 253.891 42.4492C253.572 42.0163 253.139 41.7998 252.592 41.7998C252.049 41.7998 251.619 42.0163 251.3 42.4492C250.981 42.8776 250.821 43.5202 250.821 44.377ZM103.89 62.8105C104.304 62.8105 104.648 62.6898 104.922 62.4482C105.195 62.2067 105.341 61.9082 105.359 61.5527H106.925C106.907 62.013 106.763 62.4437 106.494 62.8447C106.225 63.2412 105.861 63.5557 105.4 63.7881C104.94 64.0205 104.443 64.1367 103.91 64.1367C102.876 64.1367 102.055 63.8018 101.449 63.1318C100.843 62.4619 100.54 61.5368 100.54 60.3564V60.1855C100.54 59.0599 100.841 58.1598 101.442 57.4854C102.044 56.8063 102.864 56.4668 103.903 56.4668C104.783 56.4668 105.498 56.7243 106.05 57.2393C106.606 57.7497 106.897 58.4219 106.925 59.2559H105.359C105.341 58.832 105.195 58.4834 104.922 58.21C104.653 57.9365 104.309 57.7998 103.89 57.7998C103.352 57.7998 102.937 57.9958 102.646 58.3877C102.354 58.7751 102.206 59.3652 102.201 60.1582V60.4248C102.201 61.2269 102.345 61.8262 102.632 62.2227C102.924 62.6146 103.343 62.8105 103.89 62.8105ZM111.218 62.8105C111.632 62.8105 111.977 62.6898 112.25 62.4482C112.523 62.2067 112.669 61.9082 112.688 61.5527H114.253C114.235 62.013 114.091 62.4437 113.822 62.8447C113.553 63.2412 113.189 63.5557 112.729 63.7881C112.268 64.0205 111.771 64.1367 111.238 64.1367C110.204 64.1367 109.383 63.8018 108.777 63.1318C108.171 62.4619 107.868 61.5368 107.868 60.3564V60.1855C107.868 59.0599 108.169 58.1598 108.771 57.4854C109.372 56.8063 110.192 56.4668 111.231 56.4668C112.111 56.4668 112.826 56.7243 113.378 57.2393C113.934 57.7497 114.226 58.4219 114.253 59.2559H112.688C112.669 58.832 112.523 58.4834 112.25 58.21C111.981 57.9365 111.637 57.7998 111.218 57.7998C110.68 57.7998 110.265 57.9958 109.974 58.3877C109.682 58.7751 109.534 59.3652 109.529 60.1582V60.4248C109.529 61.2269 109.673 61.8262 109.96 62.2227C110.252 62.6146 110.671 62.8105 111.218 62.8105ZM117.295 58.9551H118.922C119.528 58.9551 120.057 59.0599 120.508 59.2695C120.959 59.4792 121.301 59.7731 121.533 60.1514C121.77 60.5296 121.889 60.9694 121.889 61.4707C121.889 62.2318 121.62 62.8424 121.082 63.3027C120.544 63.763 119.829 63.9954 118.936 64H115.634V56.6035H117.295V58.9551ZM124.78 64H123.119V56.6035H124.78V64ZM117.295 60.2881V62.6738H118.915C119.321 62.6738 119.64 62.5736 119.872 62.373C120.109 62.168 120.228 61.8786 120.228 61.5049C120.228 61.1312 120.111 60.8372 119.879 60.623C119.651 60.4043 119.341 60.2926 118.949 60.2881H117.295ZM133.059 56.6035V64H131.397V57.9434H129.306L129.169 60.5205C129.082 61.7601 128.843 62.651 128.451 63.1934C128.064 63.7311 127.469 64 126.667 64H126.154L126.147 62.6191L126.489 62.585C126.854 62.5348 127.118 62.3138 127.282 61.9219C127.451 61.5254 127.558 60.8053 127.604 59.7617L127.74 56.6035H133.059ZM137.454 61.0742H136.613V64H134.952V56.6035H136.613V59.5566H137.345L139.389 56.6035H141.439L138.767 60.1445L141.665 64H139.505L137.454 61.0742ZM145.165 61.6211L146.669 56.6035H148.439L145.5 65.1211C145.049 66.3652 144.283 66.9873 143.203 66.9873C142.962 66.9873 142.695 66.9463 142.403 66.8643V65.5791L142.718 65.5996C143.137 65.5996 143.451 65.5221 143.661 65.3672C143.875 65.2168 144.044 64.9616 144.167 64.6016L144.406 63.9658L141.809 56.6035H143.6L145.165 61.6211Z" fill="#0C111E"/>
<circle cx="60" cy="52" r="24" fill="#F2F5F9"/>
<path d="M61.2158 41C54.8002 41 49.5737 46.1976 49.5039 52.6084V52.6191V52.6309C49.5739 58.9096 54.693 64 60.9766 64C64.8358 64 68.1006 62.8434 70.7695 59.6406C70.8537 59.5397 70.9171 59.4232 70.9562 59.2977C70.9953 59.1723 71.0093 59.0404 70.9974 58.9095C70.9855 58.7787 70.948 58.6515 70.8869 58.5351C70.8259 58.4188 70.7425 58.3156 70.6416 58.2314C70.5407 58.1473 70.4242 58.0839 70.2987 58.0448C70.1733 58.0057 70.0414 57.9917 69.9105 58.0036C69.7797 58.0154 69.6524 58.053 69.5361 58.114C69.4197 58.1751 69.3165 58.2584 69.2324 58.3594C66.9014 61.1566 64.4733 62 60.9766 62C55.7728 62 51.5687 57.8223 51.5049 52.6191C51.5694 47.2845 55.8804 43 61.2158 43C63.3841 43 65.4815 43.7369 67.0049 45.0312C68.5282 46.3256 69.501 48.1408 69.501 50.4941V50.6875C69.501 52.3802 68.7042 53.9877 67.6094 55.1621C66.5146 56.3366 65.1124 57 64.2842 57C64.1005 57 64.1082 56.9772 64.0938 56.9609C64.0793 56.9447 64.001 56.8355 64.001 56.5V56.4746L64 56.4492C64 56.4492 63.9319 55.2777 64.6035 53.6465C64.6043 53.6445 64.6046 53.6426 64.6055 53.6406L66.9277 47.874C66.9926 47.7195 67.0176 47.5512 67.0004 47.3845C66.9833 47.2178 66.9245 47.0581 66.8295 46.92C66.7345 46.782 66.6064 46.67 66.4568 46.5944C66.3073 46.5188 66.1411 46.4819 65.9736 46.4873C65.7774 46.4936 65.5874 46.5576 65.4273 46.6712C65.2672 46.7847 65.1441 46.9429 65.0732 47.126L64.9443 47.4473C64.7605 47.2273 64.5571 47.0303 64.332 46.8613C63.4831 46.2241 62.4375 46 61.3574 46C59.91 46 58.3265 46.8224 56.9424 48.2461C55.5583 49.6697 54.4482 51.7803 54.4482 54.4043C54.4482 56.9296 56.513 59 59.0361 59C60.4258 59 61.5109 58.4105 62.2451 57.71C62.3357 57.9175 62.4448 58.1158 62.5986 58.2891C63.0283 58.7728 63.6783 59 64.2842 59C65.9854 59 67.6909 58.0072 69.0723 56.5254C70.4536 55.0436 71.501 52.9948 71.501 50.6875V50.4941C71.501 47.572 70.223 45.1409 68.2998 43.5068C66.3766 41.8728 63.8326 41 61.2158 41ZM61.3574 48C62.1634 48 62.7361 48.1639 63.1318 48.4609C63.4922 48.7315 63.7746 49.1576 63.9473 49.9209L62.7568 52.8779L62.083 54.5498C62.082 54.5514 62.081 54.5531 62.0801 54.5547C61.7288 55.1179 61.3837 55.7488 60.917 56.2168C60.4503 56.6848 59.9404 57 59.0361 57C57.5963 57 56.4482 55.851 56.4482 54.4043C56.4482 52.3388 57.3017 50.7466 58.377 49.6406C59.4522 48.5347 60.8233 48 61.3574 48Z" fill="#0346F2"/>
<g filter="url(#filter1_d)">
<rect x="169" y="140" width="300" height="80" rx="12" fill="white"/>
<rect x="169.25" y="140.25" width="299.5" height="79.5" rx="11.75" stroke="#EBEBF9" stroke-width="0.5"/>
</g>
<path d="M251.741 173.302V177H250.012V167.047H253.819C254.931 167.047 255.813 167.336 256.465 167.915C257.121 168.494 257.449 169.259 257.449 170.212C257.449 171.187 257.128 171.946 256.485 172.488C255.847 173.031 254.952 173.302 253.799 173.302H251.741ZM251.741 171.914H253.819C254.435 171.914 254.904 171.771 255.228 171.483C255.551 171.192 255.713 170.772 255.713 170.226C255.713 169.688 255.549 169.259 255.221 168.94C254.893 168.617 254.441 168.451 253.867 168.441H251.741V171.914ZM263.144 177C263.071 176.859 263.007 176.629 262.952 176.31C262.424 176.861 261.776 177.137 261.011 177.137C260.268 177.137 259.662 176.925 259.192 176.501C258.723 176.077 258.488 175.553 258.488 174.929C258.488 174.14 258.78 173.536 259.363 173.117C259.951 172.693 260.79 172.481 261.879 172.481H262.897V171.996C262.897 171.613 262.79 171.308 262.576 171.08C262.362 170.848 262.036 170.731 261.599 170.731C261.22 170.731 260.91 170.827 260.669 171.019C260.427 171.205 260.307 171.445 260.307 171.736H258.646C258.646 171.331 258.78 170.952 259.049 170.602C259.318 170.246 259.682 169.968 260.143 169.768C260.607 169.567 261.125 169.467 261.694 169.467C262.56 169.467 263.251 169.686 263.766 170.123C264.281 170.556 264.545 171.167 264.559 171.955V175.291C264.559 175.956 264.652 176.487 264.839 176.884V177H263.144ZM261.318 175.804C261.646 175.804 261.954 175.724 262.241 175.564C262.533 175.405 262.752 175.191 262.897 174.922V173.527H262.002C261.387 173.527 260.924 173.634 260.614 173.849C260.304 174.063 260.149 174.366 260.149 174.758C260.149 175.077 260.254 175.332 260.464 175.523C260.678 175.71 260.963 175.804 261.318 175.804ZM269.337 175.811C269.752 175.811 270.096 175.69 270.369 175.448C270.643 175.207 270.788 174.908 270.807 174.553H272.372C272.354 175.013 272.21 175.444 271.941 175.845C271.673 176.241 271.308 176.556 270.848 176.788C270.387 177.021 269.891 177.137 269.357 177.137C268.323 177.137 267.503 176.802 266.896 176.132C266.29 175.462 265.987 174.537 265.987 173.356V173.186C265.987 172.06 266.288 171.16 266.89 170.485C267.491 169.806 268.312 169.467 269.351 169.467C270.23 169.467 270.946 169.724 271.497 170.239C272.053 170.75 272.345 171.422 272.372 172.256H270.807C270.788 171.832 270.643 171.483 270.369 171.21C270.1 170.937 269.756 170.8 269.337 170.8C268.799 170.8 268.384 170.996 268.093 171.388C267.801 171.775 267.653 172.365 267.648 173.158V173.425C267.648 174.227 267.792 174.826 268.079 175.223C268.371 175.615 268.79 175.811 269.337 175.811ZM276.665 175.811C277.08 175.811 277.424 175.69 277.697 175.448C277.971 175.207 278.117 174.908 278.135 174.553H279.7C279.682 175.013 279.538 175.444 279.27 175.845C279.001 176.241 278.636 176.556 278.176 176.788C277.715 177.021 277.219 177.137 276.686 177.137C275.651 177.137 274.831 176.802 274.225 176.132C273.618 175.462 273.315 174.537 273.315 173.356V173.186C273.315 172.06 273.616 171.16 274.218 170.485C274.819 169.806 275.64 169.467 276.679 169.467C277.558 169.467 278.274 169.724 278.825 170.239C279.381 170.75 279.673 171.422 279.7 172.256H278.135C278.117 171.832 277.971 171.483 277.697 171.21C277.428 170.937 277.084 170.8 276.665 170.8C276.127 170.8 275.713 170.996 275.421 171.388C275.129 171.775 274.981 172.365 274.977 173.158V173.425C274.977 174.227 275.12 174.826 275.407 175.223C275.699 175.615 276.118 175.811 276.665 175.811ZM283.583 174.074H282.742V177H281.081V169.604H282.742V172.557H283.474L285.518 169.604H287.568L284.896 173.145L287.794 177H285.634L283.583 174.074ZM293.126 177C293.053 176.859 292.989 176.629 292.935 176.31C292.406 176.861 291.759 177.137 290.993 177.137C290.25 177.137 289.644 176.925 289.175 176.501C288.705 176.077 288.471 175.553 288.471 174.929C288.471 174.14 288.762 173.536 289.346 173.117C289.934 172.693 290.772 172.481 291.861 172.481H292.88V171.996C292.88 171.613 292.773 171.308 292.559 171.08C292.344 170.848 292.019 170.731 291.581 170.731C291.203 170.731 290.893 170.827 290.651 171.019C290.41 171.205 290.289 171.445 290.289 171.736H288.628C288.628 171.331 288.762 170.952 289.031 170.602C289.3 170.246 289.665 169.968 290.125 169.768C290.59 169.567 291.107 169.467 291.677 169.467C292.543 169.467 293.233 169.686 293.748 170.123C294.263 170.556 294.527 171.167 294.541 171.955V175.291C294.541 175.956 294.634 176.487 294.821 176.884V177H293.126ZM291.301 175.804C291.629 175.804 291.937 175.724 292.224 175.564C292.515 175.405 292.734 175.191 292.88 174.922V173.527H291.984C291.369 173.527 290.907 173.634 290.597 173.849C290.287 174.063 290.132 174.366 290.132 174.758C290.132 175.077 290.237 175.332 290.446 175.523C290.66 175.71 290.945 175.804 291.301 175.804ZM302.792 174.026H301.91V177H300.249V174.026H299.374L297.672 177H295.635L298.089 173.151L295.765 169.604H297.795L299.47 172.509H300.249V169.604H301.91V172.509H302.696L304.378 169.604H306.408L304.091 173.131L306.559 177H304.494L302.792 174.026ZM312.205 169.604H313.859V177H312.205V172.064L309.307 177H307.652V169.604H309.307V174.539L312.205 169.604ZM321.447 170.923H319.048V177H317.387V170.923H315.015V169.604H321.447V170.923ZM325.378 177.137C324.325 177.137 323.471 176.806 322.814 176.146C322.163 175.48 321.837 174.596 321.837 173.493V173.288C321.837 172.55 321.978 171.891 322.261 171.312C322.548 170.729 322.949 170.276 323.464 169.952C323.979 169.629 324.553 169.467 325.187 169.467C326.194 169.467 326.971 169.788 327.518 170.431C328.069 171.073 328.345 171.982 328.345 173.158V173.828H323.512C323.562 174.439 323.765 174.922 324.12 175.277C324.48 175.633 324.931 175.811 325.474 175.811C326.235 175.811 326.854 175.503 327.333 174.888L328.229 175.742C327.932 176.184 327.536 176.528 327.039 176.774C326.547 177.016 325.993 177.137 325.378 177.137ZM325.18 170.8C324.724 170.8 324.355 170.959 324.072 171.278C323.794 171.597 323.617 172.042 323.539 172.611H326.704V172.488C326.668 171.932 326.52 171.513 326.26 171.23C326 170.943 325.64 170.8 325.18 170.8ZM332.815 173.233C332.815 172.509 332.959 171.857 333.246 171.278C333.533 170.695 333.937 170.248 334.456 169.938C334.976 169.624 335.573 169.467 336.247 169.467C337.245 169.467 338.054 169.788 338.674 170.431C339.298 171.073 339.635 171.925 339.686 172.987L339.692 173.377C339.692 174.106 339.551 174.758 339.269 175.332C338.991 175.906 338.59 176.351 338.065 176.665C337.546 176.979 336.944 177.137 336.261 177.137C335.217 177.137 334.381 176.79 333.752 176.098C333.128 175.4 332.815 174.473 332.815 173.315V173.233ZM334.477 173.377C334.477 174.138 334.634 174.735 334.948 175.168C335.263 175.596 335.7 175.811 336.261 175.811C336.821 175.811 337.257 175.592 337.566 175.154C337.881 174.717 338.038 174.076 338.038 173.233C338.038 172.486 337.876 171.894 337.553 171.456C337.234 171.019 336.799 170.8 336.247 170.8C335.705 170.8 335.274 171.016 334.955 171.449C334.636 171.878 334.477 172.52 334.477 173.377ZM348.066 170.014C348.996 170.014 349.741 170.326 350.302 170.95C350.862 171.57 351.143 172.413 351.143 173.479V173.562C351.143 174.628 350.837 175.492 350.227 176.152C349.62 176.813 348.796 177.144 347.752 177.144C346.736 177.144 345.915 176.806 345.291 176.132C344.667 175.457 344.354 174.537 344.354 173.37V172.892C344.354 171.297 344.637 170.034 345.202 169.104C345.767 168.175 346.61 167.594 347.731 167.361C348.36 167.234 348.766 167.099 348.948 166.958C349.135 166.812 349.229 166.616 349.229 166.37H350.568C350.568 166.83 350.493 167.204 350.343 167.491C350.192 167.778 349.962 168.013 349.652 168.195C349.342 168.373 348.809 168.542 348.053 168.701C347.36 168.847 346.831 169.107 346.467 169.48C346.107 169.854 345.865 170.371 345.742 171.032C346.403 170.353 347.178 170.014 348.066 170.014ZM347.738 171.347C347.201 171.347 346.779 171.529 346.474 171.894C346.168 172.254 346.016 172.81 346.016 173.562C346.016 174.272 346.166 174.826 346.467 175.223C346.768 175.619 347.196 175.817 347.752 175.817C348.303 175.817 348.729 175.619 349.03 175.223C349.336 174.822 349.488 174.22 349.488 173.418C349.488 172.78 349.336 172.276 349.03 171.907C348.729 171.534 348.299 171.347 347.738 171.347ZM352.134 173.233C352.134 172.509 352.277 171.857 352.564 171.278C352.852 170.695 353.255 170.248 353.774 169.938C354.294 169.624 354.891 169.467 355.565 169.467C356.563 169.467 357.372 169.788 357.992 170.431C358.617 171.073 358.954 171.925 359.004 172.987L359.011 173.377C359.011 174.106 358.869 174.758 358.587 175.332C358.309 175.906 357.908 176.351 357.384 176.665C356.864 176.979 356.263 177.137 355.579 177.137C354.535 177.137 353.699 176.79 353.07 176.098C352.446 175.4 352.134 174.473 352.134 173.315V173.233ZM353.795 173.377C353.795 174.138 353.952 174.735 354.267 175.168C354.581 175.596 355.019 175.811 355.579 175.811C356.14 175.811 356.575 175.592 356.885 175.154C357.199 174.717 357.356 174.076 357.356 173.233C357.356 172.486 357.195 171.894 356.871 171.456C356.552 171.019 356.117 170.8 355.565 170.8C355.023 170.8 354.592 171.016 354.273 171.449C353.954 171.878 353.795 172.52 353.795 173.377ZM366.031 170.923H363.632V177H361.971V170.923H359.599V169.604H366.031V170.923ZM369.962 177.137C368.909 177.137 368.055 176.806 367.398 176.146C366.747 175.48 366.421 174.596 366.421 173.493V173.288C366.421 172.55 366.562 171.891 366.845 171.312C367.132 170.729 367.533 170.276 368.048 169.952C368.563 169.629 369.137 169.467 369.771 169.467C370.778 169.467 371.555 169.788 372.102 170.431C372.653 171.073 372.929 171.982 372.929 173.158V173.828H368.096C368.146 174.439 368.349 174.922 368.704 175.277C369.064 175.633 369.515 175.811 370.058 175.811C370.819 175.811 371.438 175.503 371.917 174.888L372.812 175.742C372.516 176.184 372.12 176.528 371.623 176.774C371.131 177.016 370.577 177.137 369.962 177.137ZM369.764 170.8C369.308 170.8 368.939 170.959 368.656 171.278C368.378 171.597 368.201 172.042 368.123 172.611H371.288V172.488C371.252 171.932 371.104 171.513 370.844 171.23C370.584 170.943 370.224 170.8 369.764 170.8ZM380.749 175.811C381.164 175.811 381.508 175.69 381.781 175.448C382.055 175.207 382.201 174.908 382.219 174.553H383.784C383.766 175.013 383.622 175.444 383.354 175.845C383.085 176.241 382.72 176.556 382.26 176.788C381.799 177.021 381.303 177.137 380.77 177.137C379.735 177.137 378.915 176.802 378.309 176.132C377.702 175.462 377.399 174.537 377.399 173.356V173.186C377.399 172.06 377.7 171.16 378.302 170.485C378.903 169.806 379.724 169.467 380.763 169.467C381.642 169.467 382.358 169.724 382.909 170.239C383.465 170.75 383.757 171.422 383.784 172.256H382.219C382.201 171.832 382.055 171.483 381.781 171.21C381.512 170.937 381.168 170.8 380.749 170.8C380.211 170.8 379.797 170.996 379.505 171.388C379.213 171.775 379.065 172.365 379.061 173.158V173.425C379.061 174.227 379.204 174.826 379.491 175.223C379.783 175.615 380.202 175.811 380.749 175.811ZM385.165 177V169.604H388.166C389.178 169.604 389.948 169.781 390.477 170.137C391.005 170.488 391.27 170.993 391.27 171.654C391.27 171.996 391.162 172.304 390.948 172.577C390.739 172.846 390.426 173.053 390.012 173.199C390.495 173.299 390.878 173.502 391.16 173.808C391.443 174.113 391.584 174.473 391.584 174.888C391.584 175.576 391.329 176.1 390.818 176.46C390.312 176.82 389.583 177 388.631 177H385.165ZM386.826 173.849V175.688H388.645C389.497 175.688 389.923 175.382 389.923 174.771C389.923 174.156 389.49 173.849 388.624 173.849H386.826ZM386.826 172.659H388.193C389.137 172.659 389.608 172.381 389.608 171.825C389.608 171.242 389.162 170.941 388.269 170.923H386.826V172.659ZM392.712 173.233C392.712 172.509 392.855 171.857 393.143 171.278C393.43 170.695 393.833 170.248 394.353 169.938C394.872 169.624 395.469 169.467 396.144 169.467C397.142 169.467 397.951 169.788 398.57 170.431C399.195 171.073 399.532 171.925 399.582 172.987L399.589 173.377C399.589 174.106 399.448 174.758 399.165 175.332C398.887 175.906 398.486 176.351 397.962 176.665C397.442 176.979 396.841 177.137 396.157 177.137C395.114 177.137 394.277 176.79 393.648 176.098C393.024 175.4 392.712 174.473 392.712 173.315V173.233ZM394.373 173.377C394.373 174.138 394.53 174.735 394.845 175.168C395.159 175.596 395.597 175.811 396.157 175.811C396.718 175.811 397.153 175.592 397.463 175.154C397.777 174.717 397.935 174.076 397.935 173.233C397.935 172.486 397.773 171.894 397.449 171.456C397.13 171.019 396.695 170.8 396.144 170.8C395.601 170.8 395.171 171.016 394.852 171.449C394.533 171.878 394.373 172.52 394.373 173.377ZM405.611 169.604H407.266V177H405.611V172.064L402.713 177H401.059V169.604H402.713V174.539L405.611 169.604ZM413.425 174.956L415.612 169.604H417.69V177H416.029V172.105L413.992 177H412.864L410.82 172.078V177H409.159V169.604H411.251L413.425 174.956ZM249.882 191.674C250.342 191.159 250.65 190.671 250.805 190.211C250.964 189.746 251.06 189.154 251.092 188.434L251.188 185.604H256.321V191.674H257.347V195.201H255.692V193H250.948V195.201H249.267L249.273 191.674H249.882ZM251.83 191.674H254.667V187.032H252.801L252.753 188.447C252.689 189.805 252.382 190.881 251.83 191.674ZM264.887 189.377C264.887 190.521 264.627 191.435 264.107 192.118C263.588 192.797 262.891 193.137 262.016 193.137C261.204 193.137 260.555 192.87 260.067 192.337V195.844H258.406V185.604H259.938L260.006 186.355C260.493 185.763 261.157 185.467 261.995 185.467C262.897 185.467 263.604 185.804 264.114 186.479C264.629 187.148 264.887 188.08 264.887 189.274V189.377ZM263.232 189.233C263.232 188.495 263.084 187.91 262.788 187.477C262.496 187.044 262.077 186.827 261.53 186.827C260.851 186.827 260.364 187.107 260.067 187.668V190.949C260.368 191.523 260.86 191.811 261.544 191.811C262.073 191.811 262.485 191.599 262.781 191.175C263.082 190.746 263.232 190.099 263.232 189.233ZM268.804 190.621L270.308 185.604H272.078L269.139 194.121C268.688 195.365 267.922 195.987 266.842 195.987C266.6 195.987 266.334 195.946 266.042 195.864V194.579L266.356 194.6C266.776 194.6 267.09 194.522 267.3 194.367C267.514 194.217 267.683 193.962 267.806 193.602L268.045 192.966L265.447 185.604H267.238L268.804 190.621ZM278.641 187.627C278.641 187.955 278.54 188.258 278.34 188.536C278.144 188.81 277.866 189.028 277.506 189.192C278.354 189.489 278.777 190.061 278.777 190.908C278.777 191.587 278.502 192.13 277.95 192.535C277.399 192.936 276.66 193.137 275.735 193.137C275.17 193.137 274.655 193.043 274.19 192.856C273.726 192.665 273.363 192.396 273.104 192.05C272.844 191.699 272.714 191.284 272.714 190.806H274.368C274.368 191.106 274.503 191.359 274.771 191.564C275.04 191.765 275.38 191.865 275.79 191.865C276.196 191.865 276.517 191.772 276.754 191.585C276.995 191.394 277.116 191.145 277.116 190.84C277.116 190.48 277.011 190.22 276.802 190.061C276.592 189.901 276.269 189.821 275.831 189.821H274.642V188.625H275.872C276.615 188.616 276.986 188.311 276.986 187.709C276.986 187.408 276.879 187.174 276.665 187.005C276.451 186.836 276.157 186.752 275.783 186.752C275.419 186.752 275.111 186.843 274.86 187.025C274.61 187.203 274.484 187.429 274.484 187.702H272.83C272.83 187.05 273.104 186.517 273.65 186.103C274.197 185.683 274.892 185.474 275.735 185.474C276.651 185.474 277.365 185.66 277.875 186.034C278.385 186.408 278.641 186.939 278.641 187.627ZM281.977 187.955H283.604C284.21 187.955 284.738 188.06 285.189 188.27C285.641 188.479 285.982 188.773 286.215 189.151C286.452 189.53 286.57 189.969 286.57 190.471C286.57 191.232 286.301 191.842 285.764 192.303C285.226 192.763 284.51 192.995 283.617 193H280.315V185.604H281.977V187.955ZM281.977 189.288V191.674H283.597C284.002 191.674 284.321 191.574 284.554 191.373C284.791 191.168 284.909 190.879 284.909 190.505C284.909 190.131 284.793 189.837 284.561 189.623C284.333 189.404 284.023 189.293 283.631 189.288H281.977ZM293.823 185.604V193H292.169V190.286H290.617L289.038 193H287.315L289.059 190.013C288.603 189.821 288.252 189.548 288.006 189.192C287.764 188.837 287.644 188.429 287.644 187.969C287.644 187.281 287.908 186.718 288.437 186.28C288.97 185.838 289.688 185.613 290.59 185.604H293.823ZM289.305 188.01C289.305 188.32 289.419 188.573 289.646 188.769C289.879 188.96 290.175 189.056 290.535 189.056H292.169V186.923H290.638C290.232 186.923 289.909 187.025 289.667 187.23C289.425 187.436 289.305 187.695 289.305 188.01ZM300.058 190.956L302.245 185.604H304.323V193H302.662V188.105L300.625 193H299.497L297.453 188.078V193H295.792V185.604H297.884L300.058 190.956ZM314.297 185.604H315.951V193H314.297V188.064L311.398 193H309.744V185.604H311.398V190.539L314.297 185.604ZM324.004 185.604V193H322.343V186.943H320.251L320.114 189.521C320.028 190.76 319.788 191.651 319.396 192.193C319.009 192.731 318.414 193 317.612 193H317.1L317.093 191.619L317.435 191.585C317.799 191.535 318.063 191.314 318.228 190.922C318.396 190.525 318.503 189.805 318.549 188.762L318.686 185.604H324.004ZM330.389 185.604H332.043V193H330.389V188.064L327.49 193H325.836V185.604H327.49V190.539L330.389 185.604ZM341.716 193C341.643 192.859 341.579 192.629 341.524 192.31C340.996 192.861 340.349 193.137 339.583 193.137C338.84 193.137 338.234 192.925 337.765 192.501C337.295 192.077 337.061 191.553 337.061 190.929C337.061 190.14 337.352 189.536 337.936 189.117C338.523 188.693 339.362 188.481 340.451 188.481H341.47V187.996C341.47 187.613 341.363 187.308 341.148 187.08C340.934 186.848 340.608 186.731 340.171 186.731C339.793 186.731 339.483 186.827 339.241 187.019C339 187.205 338.879 187.445 338.879 187.736H337.218C337.218 187.331 337.352 186.952 337.621 186.602C337.89 186.246 338.255 185.968 338.715 185.768C339.18 185.567 339.697 185.467 340.267 185.467C341.132 185.467 341.823 185.686 342.338 186.123C342.853 186.556 343.117 187.167 343.131 187.955V191.291C343.131 191.956 343.224 192.487 343.411 192.884V193H341.716ZM339.891 191.804C340.219 191.804 340.526 191.724 340.813 191.564C341.105 191.405 341.324 191.191 341.47 190.922V189.527H340.574C339.959 189.527 339.496 189.634 339.187 189.849C338.877 190.063 338.722 190.366 338.722 190.758C338.722 191.077 338.826 191.332 339.036 191.523C339.25 191.71 339.535 191.804 339.891 191.804ZM347.349 190.621L348.853 185.604H350.623L347.684 194.121C347.232 195.365 346.467 195.987 345.387 195.987C345.145 195.987 344.879 195.946 344.587 195.864V194.579L344.901 194.6C345.321 194.6 345.635 194.522 345.845 194.367C346.059 194.217 346.228 193.962 346.351 193.602L346.59 192.966L343.992 185.604H345.783L347.349 190.621ZM351.231 191.674C351.692 191.159 351.999 190.671 352.154 190.211C352.314 189.746 352.41 189.154 352.441 188.434L352.537 185.604H357.671V191.674H358.696V195.201H357.042V193H352.298V195.201H350.616L350.623 191.674H351.231ZM353.18 191.674H356.017V187.032H354.15L354.103 188.447C354.039 189.805 353.731 190.881 353.18 191.674ZM364.377 185.604H366.031V193H364.377V188.064L361.479 193H359.824V185.604H361.479V190.539L364.377 185.604ZM373.619 186.923H371.22V193H369.559V186.923H367.187V185.604H373.619V186.923ZM374.214 189.233C374.214 188.509 374.357 187.857 374.645 187.278C374.932 186.695 375.335 186.248 375.854 185.938C376.374 185.624 376.971 185.467 377.646 185.467C378.644 185.467 379.452 185.788 380.072 186.431C380.697 187.073 381.034 187.925 381.084 188.987L381.091 189.377C381.091 190.106 380.95 190.758 380.667 191.332C380.389 191.906 379.988 192.351 379.464 192.665C378.944 192.979 378.343 193.137 377.659 193.137C376.616 193.137 375.779 192.79 375.15 192.098C374.526 191.4 374.214 190.473 374.214 189.315V189.233ZM375.875 189.377C375.875 190.138 376.032 190.735 376.347 191.168C376.661 191.596 377.099 191.811 377.659 191.811C378.22 191.811 378.655 191.592 378.965 191.154C379.279 190.717 379.437 190.076 379.437 189.233C379.437 188.486 379.275 187.894 378.951 187.456C378.632 187.019 378.197 186.8 377.646 186.8C377.103 186.8 376.673 187.016 376.354 187.449C376.035 187.878 375.875 188.52 375.875 189.377ZM388.973 189.377C388.973 190.521 388.713 191.435 388.193 192.118C387.674 192.797 386.977 193.137 386.102 193.137C385.29 193.137 384.641 192.87 384.153 192.337V195.844H382.492V185.604H384.023L384.092 186.355C384.579 185.763 385.243 185.467 386.081 185.467C386.983 185.467 387.69 185.804 388.2 186.479C388.715 187.148 388.973 188.08 388.973 189.274V189.377ZM387.318 189.233C387.318 188.495 387.17 187.91 386.874 187.477C386.582 187.044 386.163 186.827 385.616 186.827C384.937 186.827 384.45 187.107 384.153 187.668V190.949C384.454 191.523 384.946 191.811 385.63 191.811C386.159 191.811 386.571 191.599 386.867 191.175C387.168 190.746 387.318 190.099 387.318 189.233ZM395.002 185.604H396.656V193H395.002V188.064L392.104 193H390.449V185.604H392.104V190.539L395.002 185.604ZM403.041 185.604H404.695V193H403.041V188.064L400.143 193H398.488V185.604H400.143V190.539L403.041 185.604Z" fill="#0C111E"/>
<circle cx="209" cy="180" r="24" fill="#F2F5F9"/>
<path d="M210 169C203.373 169 198 173.556 198 179.175C198 181.945 199.309 184.453 201.426 186.288C201.404 188.809 198.782 189.97 198 190.175C198 190.175 198.857 191 201.143 191C204.046 191 205.791 190.017 206.834 188.98C207.844 189.214 208.902 189.35 210 189.35C216.627 189.35 222 184.794 222 179.175C222 173.556 216.627 169 210 169Z" fill="#24BD53"/>
<g filter="url(#filter2_d)">
<rect x="41" y="268" width="300" height="80" rx="12" fill="white"/>
<rect x="41.25" y="268.25" width="299.5" height="79.5" rx="11.75" stroke="#EBEBF9" stroke-width="0.5"/>
</g>
<path d="M126.988 297.761C126.988 297.314 126.82 296.959 126.482 296.694C126.145 296.43 125.687 296.298 125.108 296.298C124.612 296.298 124.197 296.43 123.864 296.694C123.532 296.954 123.365 297.291 123.365 297.706H121.643C121.643 297.164 121.793 296.681 122.094 296.257C122.395 295.833 122.812 295.505 123.345 295.272C123.878 295.035 124.466 294.917 125.108 294.917C126.248 294.917 127.132 295.165 127.761 295.662C128.394 296.159 128.711 296.854 128.711 297.747C128.711 298.198 128.574 298.613 128.301 298.991C128.027 299.369 127.645 299.668 127.152 299.887C127.708 300.078 128.132 300.37 128.424 300.762C128.72 301.149 128.868 301.632 128.868 302.211C128.868 303.104 128.526 303.815 127.843 304.344C127.159 304.868 126.248 305.13 125.108 305.13C124.407 305.13 123.771 305.005 123.201 304.754C122.636 304.503 122.21 304.161 121.923 303.729C121.64 303.296 121.499 302.799 121.499 302.238H123.222C123.222 302.667 123.399 303.029 123.755 303.325C124.11 303.617 124.562 303.763 125.108 303.763C125.719 303.763 126.209 303.619 126.578 303.332C126.952 303.045 127.139 302.671 127.139 302.211C127.139 301.65 126.975 301.245 126.646 300.994C126.323 300.739 125.847 300.611 125.218 300.611H124.049V299.244H125.156C126.378 299.244 126.988 298.75 126.988 297.761ZM134.733 305C134.66 304.859 134.597 304.629 134.542 304.31C134.013 304.861 133.366 305.137 132.601 305.137C131.858 305.137 131.252 304.925 130.782 304.501C130.313 304.077 130.078 303.553 130.078 302.929C130.078 302.14 130.37 301.536 130.953 301.117C131.541 300.693 132.38 300.481 133.469 300.481H134.487V299.996C134.487 299.613 134.38 299.308 134.166 299.08C133.952 298.848 133.626 298.731 133.188 298.731C132.81 298.731 132.5 298.827 132.259 299.019C132.017 299.205 131.896 299.445 131.896 299.736H130.235C130.235 299.331 130.37 298.952 130.639 298.602C130.908 298.246 131.272 297.968 131.732 297.768C132.197 297.567 132.715 297.467 133.284 297.467C134.15 297.467 134.84 297.686 135.355 298.123C135.87 298.556 136.135 299.167 136.148 299.955V303.291C136.148 303.956 136.242 304.487 136.429 304.884V305H134.733ZM132.908 303.804C133.236 303.804 133.544 303.724 133.831 303.564C134.123 303.405 134.341 303.191 134.487 302.922V301.527H133.592C132.977 301.527 132.514 301.634 132.204 301.849C131.894 302.063 131.739 302.366 131.739 302.758C131.739 303.077 131.844 303.332 132.054 303.523C132.268 303.71 132.553 303.804 132.908 303.804ZM144.365 301.377C144.365 302.521 144.105 303.435 143.586 304.118C143.066 304.797 142.369 305.137 141.494 305.137C140.683 305.137 140.034 304.87 139.546 304.337V307.844H137.885V297.604H139.416L139.484 298.355C139.972 297.763 140.635 297.467 141.474 297.467C142.376 297.467 143.082 297.804 143.593 298.479C144.108 299.148 144.365 300.08 144.365 301.274V301.377ZM142.711 301.233C142.711 300.495 142.563 299.91 142.267 299.477C141.975 299.044 141.556 298.827 141.009 298.827C140.33 298.827 139.842 299.107 139.546 299.668V302.949C139.847 303.523 140.339 303.811 141.022 303.811C141.551 303.811 141.964 303.599 142.26 303.175C142.561 302.746 142.711 302.099 142.711 301.233ZM150.196 305C150.123 304.859 150.06 304.629 150.005 304.31C149.476 304.861 148.829 305.137 148.063 305.137C147.321 305.137 146.715 304.925 146.245 304.501C145.776 304.077 145.541 303.553 145.541 302.929C145.541 302.14 145.833 301.536 146.416 301.117C147.004 300.693 147.842 300.481 148.932 300.481H149.95V299.996C149.95 299.613 149.843 299.308 149.629 299.08C149.415 298.848 149.089 298.731 148.651 298.731C148.273 298.731 147.963 298.827 147.722 299.019C147.48 299.205 147.359 299.445 147.359 299.736H145.698C145.698 299.331 145.833 298.952 146.102 298.602C146.37 298.246 146.735 297.968 147.195 297.768C147.66 297.567 148.177 297.467 148.747 297.467C149.613 297.467 150.303 297.686 150.818 298.123C151.333 298.556 151.598 299.167 151.611 299.955V303.291C151.611 303.956 151.705 304.487 151.892 304.884V305H150.196ZM148.371 303.804C148.699 303.804 149.007 303.724 149.294 303.564C149.586 303.405 149.804 303.191 149.95 302.922V301.527H149.055C148.439 301.527 147.977 301.634 147.667 301.849C147.357 302.063 147.202 302.366 147.202 302.758C147.202 303.077 147.307 303.332 147.517 303.523C147.731 303.71 148.016 303.804 148.371 303.804ZM156.834 298.014C157.764 298.014 158.509 298.326 159.069 298.95C159.63 299.57 159.91 300.413 159.91 301.479V301.562C159.91 302.628 159.605 303.492 158.994 304.152C158.388 304.813 157.563 305.144 156.52 305.144C155.503 305.144 154.683 304.806 154.059 304.132C153.434 303.457 153.122 302.537 153.122 301.37V300.892C153.122 299.297 153.405 298.034 153.97 297.104C154.535 296.175 155.378 295.594 156.499 295.361C157.128 295.234 157.534 295.099 157.716 294.958C157.903 294.812 157.996 294.616 157.996 294.37H159.336C159.336 294.83 159.261 295.204 159.11 295.491C158.96 295.778 158.73 296.013 158.42 296.195C158.11 296.373 157.577 296.542 156.82 296.701C156.128 296.847 155.599 297.107 155.234 297.48C154.874 297.854 154.633 298.371 154.51 299.032C155.171 298.353 155.945 298.014 156.834 298.014ZM156.506 299.347C155.968 299.347 155.547 299.529 155.241 299.894C154.936 300.254 154.783 300.81 154.783 301.562C154.783 302.272 154.934 302.826 155.234 303.223C155.535 303.619 155.964 303.817 156.52 303.817C157.071 303.817 157.497 303.619 157.798 303.223C158.103 302.822 158.256 302.22 158.256 301.418C158.256 300.78 158.103 300.276 157.798 299.907C157.497 299.534 157.066 299.347 156.506 299.347ZM165.632 305C165.559 304.859 165.495 304.629 165.44 304.31C164.912 304.861 164.265 305.137 163.499 305.137C162.756 305.137 162.15 304.925 161.681 304.501C161.211 304.077 160.977 303.553 160.977 302.929C160.977 302.14 161.268 301.536 161.852 301.117C162.439 300.693 163.278 300.481 164.367 300.481H165.386V299.996C165.386 299.613 165.279 299.308 165.064 299.08C164.85 298.848 164.524 298.731 164.087 298.731C163.709 298.731 163.399 298.827 163.157 299.019C162.916 299.205 162.795 299.445 162.795 299.736H161.134C161.134 299.331 161.268 298.952 161.537 298.602C161.806 298.246 162.171 297.968 162.631 297.768C163.096 297.567 163.613 297.467 164.183 297.467C165.049 297.467 165.739 297.686 166.254 298.123C166.769 298.556 167.033 299.167 167.047 299.955V303.291C167.047 303.956 167.14 304.487 167.327 304.884V305H165.632ZM163.807 303.804C164.135 303.804 164.442 303.724 164.729 303.564C165.021 303.405 165.24 303.191 165.386 302.922V301.527H164.49C163.875 301.527 163.412 301.634 163.103 301.849C162.793 302.063 162.638 302.366 162.638 302.758C162.638 303.077 162.743 303.332 162.952 303.523C163.166 303.71 163.451 303.804 163.807 303.804ZM174.498 298.923H172.099V305H170.438V298.923H168.065V297.604H174.498V298.923ZM177.396 299.955H179.023C179.63 299.955 180.158 300.06 180.609 300.27C181.061 300.479 181.402 300.773 181.635 301.151C181.872 301.53 181.99 301.969 181.99 302.471C181.99 303.232 181.721 303.842 181.184 304.303C180.646 304.763 179.93 304.995 179.037 305H175.735V297.604H177.396V299.955ZM184.882 305H183.221V297.604H184.882V305ZM177.396 301.288V303.674H179.017C179.422 303.674 179.741 303.574 179.974 303.373C180.211 303.168 180.329 302.879 180.329 302.505C180.329 302.131 180.213 301.837 179.98 301.623C179.753 301.404 179.443 301.293 179.051 301.288H177.396ZM187.001 305V297.604H190.002C191.014 297.604 191.784 297.781 192.312 298.137C192.841 298.488 193.105 298.993 193.105 299.654C193.105 299.996 192.998 300.304 192.784 300.577C192.575 300.846 192.262 301.053 191.848 301.199C192.331 301.299 192.714 301.502 192.996 301.808C193.279 302.113 193.42 302.473 193.42 302.888C193.42 303.576 193.165 304.1 192.654 304.46C192.148 304.82 191.419 305 190.467 305H187.001ZM188.662 301.849V303.688H190.48C191.333 303.688 191.759 303.382 191.759 302.771C191.759 302.156 191.326 301.849 190.46 301.849H188.662ZM188.662 300.659H190.029C190.973 300.659 191.444 300.381 191.444 299.825C191.444 299.242 190.998 298.941 190.104 298.923H188.662V300.659ZM199.278 305C199.205 304.859 199.142 304.629 199.087 304.31C198.558 304.861 197.911 305.137 197.146 305.137C196.403 305.137 195.797 304.925 195.327 304.501C194.858 304.077 194.623 303.553 194.623 302.929C194.623 302.14 194.915 301.536 195.498 301.117C196.086 300.693 196.924 300.481 198.014 300.481H199.032V299.996C199.032 299.613 198.925 299.308 198.711 299.08C198.497 298.848 198.171 298.731 197.733 298.731C197.355 298.731 197.045 298.827 196.804 299.019C196.562 299.205 196.441 299.445 196.441 299.736H194.78C194.78 299.331 194.915 298.952 195.184 298.602C195.452 298.246 195.817 297.968 196.277 297.768C196.742 297.567 197.259 297.467 197.829 297.467C198.695 297.467 199.385 297.686 199.9 298.123C200.415 298.556 200.68 299.167 200.693 299.955V303.291C200.693 303.956 200.787 304.487 200.974 304.884V305H199.278ZM197.453 303.804C197.781 303.804 198.089 303.724 198.376 303.564C198.668 303.405 198.886 303.191 199.032 302.922V301.527H198.137C197.521 301.527 197.059 301.634 196.749 301.849C196.439 302.063 196.284 302.366 196.284 302.758C196.284 303.077 196.389 303.332 196.599 303.523C196.813 303.71 197.098 303.804 197.453 303.804ZM207.051 297.604H208.705V305H207.051V300.064L204.152 305H202.498V297.604H204.152V302.539L207.051 297.604ZM207.83 294.767C207.83 295.341 207.63 295.806 207.229 296.161C206.827 296.517 206.292 296.694 205.622 296.694C204.952 296.694 204.417 296.517 204.016 296.161C203.615 295.806 203.414 295.341 203.414 294.767H204.658C204.658 295.067 204.743 295.302 204.911 295.471C205.084 295.635 205.321 295.717 205.622 295.717C205.923 295.717 206.158 295.635 206.326 295.471C206.495 295.302 206.579 295.067 206.579 294.767H207.83ZM216.293 298.923H213.894V305H212.232V298.923H209.86V297.604H216.293V298.923ZM220.224 305.137C219.171 305.137 218.316 304.806 217.66 304.146C217.008 303.48 216.683 302.596 216.683 301.493V301.288C216.683 300.55 216.824 299.891 217.106 299.312C217.394 298.729 217.795 298.276 218.31 297.952C218.825 297.629 219.399 297.467 220.032 297.467C221.039 297.467 221.816 297.788 222.363 298.431C222.915 299.073 223.19 299.982 223.19 301.158V301.828H218.357C218.408 302.439 218.61 302.922 218.966 303.277C219.326 303.633 219.777 303.811 220.319 303.811C221.08 303.811 221.7 303.503 222.179 302.888L223.074 303.742C222.778 304.184 222.382 304.528 221.885 304.774C221.393 305.016 220.839 305.137 220.224 305.137ZM220.025 298.8C219.57 298.8 219.201 298.959 218.918 299.278C218.64 299.597 218.462 300.042 218.385 300.611H221.55V300.488C221.513 299.932 221.365 299.513 221.105 299.23C220.846 298.943 220.486 298.8 220.025 298.8ZM232.364 305H230.71V297.009L228.27 297.843V296.441L232.152 295.013H232.364V305ZM242.311 300.81C242.311 302.241 242.042 303.321 241.504 304.05C240.971 304.774 240.157 305.137 239.063 305.137C237.988 305.137 237.177 304.784 236.63 304.077C236.088 303.366 235.81 302.316 235.796 300.926V299.203C235.796 297.772 236.062 296.699 236.596 295.983C237.133 295.268 237.951 294.91 239.05 294.91C240.139 294.91 240.95 295.259 241.483 295.956C242.021 296.653 242.297 297.697 242.311 299.087V300.81ZM240.649 298.95C240.649 298.016 240.522 297.332 240.267 296.899C240.011 296.462 239.606 296.243 239.05 296.243C238.507 296.243 238.109 296.451 237.854 296.865C237.598 297.275 237.464 297.918 237.45 298.793V301.049C237.45 301.979 237.58 302.671 237.84 303.127C238.1 303.583 238.507 303.811 239.063 303.811C239.597 303.811 239.991 303.601 240.246 303.182C240.501 302.758 240.636 302.097 240.649 301.199V298.95ZM243.712 296.961C243.712 296.359 243.906 295.867 244.293 295.484C244.68 295.097 245.188 294.903 245.817 294.903C246.455 294.903 246.966 295.097 247.349 295.484C247.736 295.867 247.93 296.371 247.93 296.995V297.487C247.93 298.084 247.736 298.574 247.349 298.957C246.966 299.34 246.46 299.531 245.831 299.531C245.216 299.531 244.708 299.344 244.307 298.971C243.91 298.592 243.712 298.084 243.712 297.446V296.961ZM244.874 297.487C244.874 297.802 244.961 298.057 245.134 298.253C245.312 298.444 245.544 298.54 245.831 298.54C246.114 298.54 246.341 298.444 246.515 298.253C246.688 298.057 246.774 297.793 246.774 297.46V296.961C246.774 296.646 246.686 296.391 246.508 296.195C246.335 295.999 246.104 295.901 245.817 295.901C245.53 295.901 245.3 296.002 245.127 296.202C244.958 296.398 244.874 296.658 244.874 296.981V297.487ZM248.497 302.56C248.497 301.949 248.695 301.454 249.092 301.076C249.488 300.698 249.994 300.509 250.609 300.509C251.229 300.509 251.735 300.698 252.127 301.076C252.523 301.454 252.722 301.965 252.722 302.607V303.093C252.722 303.685 252.53 304.175 252.147 304.562C251.769 304.945 251.261 305.137 250.623 305.137C249.985 305.137 249.47 304.948 249.078 304.569C248.691 304.187 248.497 303.683 248.497 303.059V302.56ZM249.659 303.093C249.659 303.403 249.748 303.658 249.926 303.858C250.108 304.054 250.34 304.152 250.623 304.152C250.915 304.152 251.143 304.059 251.307 303.872C251.475 303.681 251.56 303.414 251.56 303.072V302.56C251.56 302.241 251.471 301.985 251.293 301.794C251.115 301.603 250.887 301.507 250.609 301.507C250.327 301.507 250.097 301.603 249.919 301.794C249.746 301.985 249.659 302.25 249.659 302.587V303.093ZM246.173 304.255L245.318 303.763L250.179 295.983L251.033 296.476L246.173 304.255ZM121.54 317.233C121.54 316.509 121.684 315.857 121.971 315.278C122.258 314.695 122.661 314.248 123.181 313.938C123.7 313.624 124.297 313.467 124.972 313.467C125.97 313.467 126.779 313.788 127.398 314.431C128.023 315.073 128.36 315.925 128.41 316.987L128.417 317.377C128.417 318.106 128.276 318.758 127.993 319.332C127.715 319.906 127.314 320.351 126.79 320.665C126.271 320.979 125.669 321.137 124.985 321.137C123.942 321.137 123.105 320.79 122.477 320.098C121.852 319.4 121.54 318.473 121.54 317.315V317.233ZM123.201 317.377C123.201 318.138 123.358 318.735 123.673 319.168C123.987 319.596 124.425 319.811 124.985 319.811C125.546 319.811 125.981 319.592 126.291 319.154C126.605 318.717 126.763 318.076 126.763 317.233C126.763 316.486 126.601 315.894 126.277 315.456C125.958 315.019 125.523 314.8 124.972 314.8C124.429 314.8 123.999 315.016 123.68 315.449C123.361 315.878 123.201 316.52 123.201 317.377ZM135.438 314.923H133.038V321H131.377V314.923H129.005V313.604H135.438V314.923ZM142.479 321H140.817V318.532C140.389 318.632 139.938 318.683 139.464 318.683C138.452 318.683 137.68 318.441 137.146 317.958C136.613 317.47 136.347 316.773 136.347 315.866V313.597H138.008V315.866C138.008 316.404 138.126 316.785 138.363 317.008C138.605 317.231 138.972 317.343 139.464 317.343C139.91 317.343 140.362 317.29 140.817 317.186V313.604H142.479V321ZM148.863 313.604H150.518V321H148.863V316.064L145.965 321H144.311V313.604H145.965V318.539L148.863 313.604ZM155.323 319.811C155.738 319.811 156.082 319.69 156.355 319.448C156.629 319.207 156.775 318.908 156.793 318.553H158.358C158.34 319.013 158.197 319.444 157.928 319.845C157.659 320.241 157.294 320.556 156.834 320.788C156.374 321.021 155.877 321.137 155.344 321.137C154.309 321.137 153.489 320.802 152.883 320.132C152.277 319.462 151.974 318.537 151.974 317.356V317.186C151.974 316.06 152.274 315.16 152.876 314.485C153.478 313.806 154.298 313.467 155.337 313.467C156.216 313.467 156.932 313.724 157.483 314.239C158.039 314.75 158.331 315.422 158.358 316.256H156.793C156.775 315.832 156.629 315.483 156.355 315.21C156.087 314.937 155.743 314.8 155.323 314.8C154.785 314.8 154.371 314.996 154.079 315.388C153.787 315.775 153.639 316.365 153.635 317.158V317.425C153.635 318.227 153.778 318.826 154.065 319.223C154.357 319.615 154.776 319.811 155.323 319.811ZM165.898 313.604V321H164.237V314.943H162.146L162.009 317.521C161.922 318.76 161.683 319.651 161.291 320.193C160.904 320.731 160.309 321 159.507 321H158.994L158.987 319.619L159.329 319.585C159.694 319.535 159.958 319.314 160.122 318.922C160.291 318.525 160.398 317.805 160.443 316.762L160.58 313.604H165.898ZM170.923 321.137C169.87 321.137 169.016 320.806 168.359 320.146C167.708 319.48 167.382 318.596 167.382 317.493V317.288C167.382 316.55 167.523 315.891 167.806 315.312C168.093 314.729 168.494 314.276 169.009 313.952C169.524 313.629 170.098 313.467 170.731 313.467C171.739 313.467 172.516 313.788 173.062 314.431C173.614 315.073 173.89 315.982 173.89 317.158V317.828H169.057C169.107 318.439 169.31 318.922 169.665 319.277C170.025 319.633 170.476 319.811 171.019 319.811C171.78 319.811 172.399 319.503 172.878 318.888L173.773 319.742C173.477 320.184 173.081 320.528 172.584 320.774C172.092 321.016 171.538 321.137 170.923 321.137ZM170.725 314.8C170.269 314.8 169.9 314.959 169.617 315.278C169.339 315.597 169.161 316.042 169.084 316.611H172.249V316.488C172.213 315.932 172.064 315.513 171.805 315.23C171.545 314.943 171.185 314.8 170.725 314.8ZM181.45 321H179.789V318.013H176.911V321H175.25V313.604H176.911V316.687H179.789V313.604H181.45V321ZM187.842 313.604H189.496V321H187.842V316.064L184.943 321H183.289V313.604H184.943V318.539L187.842 313.604ZM195.881 313.604H197.535V321H195.881V316.064L192.982 321H191.328V313.604H192.982V318.539L195.881 313.604ZM196.66 310.767C196.66 311.341 196.46 311.806 196.059 312.161C195.658 312.517 195.122 312.694 194.452 312.694C193.782 312.694 193.247 312.517 192.846 312.161C192.445 311.806 192.244 311.341 192.244 310.767H193.488C193.488 311.067 193.573 311.302 193.741 311.471C193.914 311.635 194.151 311.717 194.452 311.717C194.753 311.717 194.988 311.635 195.156 311.471C195.325 311.302 195.409 311.067 195.409 310.767H196.66ZM202.478 317.233C202.478 316.509 202.621 315.857 202.908 315.278C203.195 314.695 203.599 314.248 204.118 313.938C204.638 313.624 205.235 313.467 205.909 313.467C206.907 313.467 207.716 313.788 208.336 314.431C208.96 315.073 209.298 315.925 209.348 316.987L209.354 317.377C209.354 318.106 209.213 318.758 208.931 319.332C208.653 319.906 208.252 320.351 207.728 320.665C207.208 320.979 206.606 321.137 205.923 321.137C204.879 321.137 204.043 320.79 203.414 320.098C202.79 319.4 202.478 318.473 202.478 317.315V317.233ZM204.139 317.377C204.139 318.138 204.296 318.735 204.61 319.168C204.925 319.596 205.362 319.811 205.923 319.811C206.483 319.811 206.919 319.592 207.229 319.154C207.543 318.717 207.7 318.076 207.7 317.233C207.7 316.486 207.538 315.894 207.215 315.456C206.896 315.019 206.461 314.8 205.909 314.8C205.367 314.8 204.936 315.016 204.617 315.449C204.298 315.878 204.139 316.52 204.139 317.377ZM216.375 314.923H213.976V321H212.314V314.923H209.942V313.604H216.375V314.923ZM220.661 317.233C220.661 316.509 220.805 315.857 221.092 315.278C221.379 314.695 221.782 314.248 222.302 313.938C222.821 313.624 223.418 313.467 224.093 313.467C225.091 313.467 225.9 313.788 226.52 314.431C227.144 315.073 227.481 315.925 227.531 316.987L227.538 317.377C227.538 318.106 227.397 318.758 227.114 319.332C226.836 319.906 226.435 320.351 225.911 320.665C225.392 320.979 224.79 321.137 224.106 321.137C223.063 321.137 222.227 320.79 221.598 320.098C220.973 319.4 220.661 318.473 220.661 317.315V317.233ZM222.322 317.377C222.322 318.138 222.479 318.735 222.794 319.168C223.108 319.596 223.546 319.811 224.106 319.811C224.667 319.811 225.102 319.592 225.412 319.154C225.727 318.717 225.884 318.076 225.884 317.233C225.884 316.486 225.722 315.894 225.398 315.456C225.079 315.019 224.644 314.8 224.093 314.8C223.55 314.8 223.12 315.016 222.801 315.449C222.482 315.878 222.322 316.52 222.322 317.377ZM232.426 314.014C233.355 314.014 234.101 314.326 234.661 314.95C235.222 315.57 235.502 316.413 235.502 317.479V317.562C235.502 318.628 235.197 319.492 234.586 320.152C233.98 320.813 233.155 321.144 232.111 321.144C231.095 321.144 230.275 320.806 229.65 320.132C229.026 319.457 228.714 318.537 228.714 317.37V316.892C228.714 315.297 228.996 314.034 229.562 313.104C230.127 312.175 230.97 311.594 232.091 311.361C232.72 311.234 233.125 311.099 233.308 310.958C233.494 310.812 233.588 310.616 233.588 310.37H234.928C234.928 310.83 234.853 311.204 234.702 311.491C234.552 311.778 234.322 312.013 234.012 312.195C233.702 312.373 233.169 312.542 232.412 312.701C231.719 312.847 231.191 313.107 230.826 313.48C230.466 313.854 230.225 314.371 230.102 315.032C230.762 314.353 231.537 314.014 232.426 314.014ZM232.098 315.347C231.56 315.347 231.138 315.529 230.833 315.894C230.528 316.254 230.375 316.81 230.375 317.562C230.375 318.272 230.525 318.826 230.826 319.223C231.127 319.619 231.555 319.817 232.111 319.817C232.663 319.817 233.089 319.619 233.39 319.223C233.695 318.822 233.848 318.22 233.848 317.418C233.848 316.78 233.695 316.276 233.39 315.907C233.089 315.534 232.658 315.347 232.098 315.347ZM236.493 317.233C236.493 316.509 236.637 315.857 236.924 315.278C237.211 314.695 237.614 314.248 238.134 313.938C238.653 313.624 239.25 313.467 239.925 313.467C240.923 313.467 241.732 313.788 242.352 314.431C242.976 315.073 243.313 315.925 243.363 316.987L243.37 317.377C243.37 318.106 243.229 318.758 242.946 319.332C242.668 319.906 242.267 320.351 241.743 320.665C241.224 320.979 240.622 321.137 239.938 321.137C238.895 321.137 238.059 320.79 237.43 320.098C236.805 319.4 236.493 318.473 236.493 317.315V317.233ZM238.154 317.377C238.154 318.138 238.312 318.735 238.626 319.168C238.94 319.596 239.378 319.811 239.938 319.811C240.499 319.811 240.934 319.592 241.244 319.154C241.559 318.717 241.716 318.076 241.716 317.233C241.716 316.486 241.554 315.894 241.23 315.456C240.911 315.019 240.476 314.8 239.925 314.8C239.382 314.8 238.952 315.016 238.633 315.449C238.314 315.878 238.154 316.52 238.154 317.377ZM251.252 317.377C251.252 318.521 250.992 319.435 250.473 320.118C249.953 320.797 249.256 321.137 248.381 321.137C247.57 321.137 246.92 320.87 246.433 320.337V323.844H244.771V313.604H246.303L246.371 314.355C246.859 313.763 247.522 313.467 248.36 313.467C249.263 313.467 249.969 313.804 250.479 314.479C250.994 315.148 251.252 316.08 251.252 317.274V317.377ZM249.598 317.233C249.598 316.495 249.45 315.91 249.153 315.477C248.862 315.044 248.442 314.827 247.896 314.827C247.216 314.827 246.729 315.107 246.433 315.668V318.949C246.733 319.523 247.226 319.811 247.909 319.811C248.438 319.811 248.85 319.599 249.146 319.175C249.447 318.746 249.598 318.099 249.598 317.233ZM252.353 317.233C252.353 316.509 252.496 315.857 252.783 315.278C253.07 314.695 253.474 314.248 253.993 313.938C254.513 313.624 255.11 313.467 255.784 313.467C256.782 313.467 257.591 313.788 258.211 314.431C258.835 315.073 259.173 315.925 259.223 316.987L259.229 317.377C259.229 318.106 259.088 318.758 258.806 319.332C258.528 319.906 258.127 320.351 257.603 320.665C257.083 320.979 256.481 321.137 255.798 321.137C254.754 321.137 253.918 320.79 253.289 320.098C252.665 319.4 252.353 318.473 252.353 317.315V317.233ZM254.014 317.377C254.014 318.138 254.171 318.735 254.485 319.168C254.8 319.596 255.237 319.811 255.798 319.811C256.358 319.811 256.794 319.592 257.104 319.154C257.418 318.717 257.575 318.076 257.575 317.233C257.575 316.486 257.413 315.894 257.09 315.456C256.771 315.019 256.336 314.8 255.784 314.8C255.242 314.8 254.811 315.016 254.492 315.449C254.173 315.878 254.014 316.52 254.014 317.377ZM266.25 314.923H263.851V321H262.189V314.923H259.817V313.604H266.25V314.923ZM271.671 321C271.598 320.859 271.534 320.629 271.479 320.31C270.951 320.861 270.304 321.137 269.538 321.137C268.795 321.137 268.189 320.925 267.72 320.501C267.25 320.077 267.016 319.553 267.016 318.929C267.016 318.14 267.307 317.536 267.891 317.117C268.479 316.693 269.317 316.481 270.406 316.481H271.425V315.996C271.425 315.613 271.318 315.308 271.104 315.08C270.889 314.848 270.563 314.731 270.126 314.731C269.748 314.731 269.438 314.827 269.196 315.019C268.955 315.205 268.834 315.445 268.834 315.736H267.173C267.173 315.331 267.307 314.952 267.576 314.602C267.845 314.246 268.21 313.968 268.67 313.768C269.135 313.567 269.652 313.467 270.222 313.467C271.088 313.467 271.778 313.686 272.293 314.123C272.808 314.556 273.072 315.167 273.086 315.955V319.291C273.086 319.956 273.179 320.487 273.366 320.884V321H271.671ZM269.846 319.804C270.174 319.804 270.481 319.724 270.769 319.564C271.06 319.405 271.279 319.191 271.425 318.922V317.527H270.529C269.914 317.527 269.451 317.634 269.142 317.849C268.832 318.063 268.677 318.366 268.677 318.758C268.677 319.077 268.782 319.332 268.991 319.523C269.205 319.71 269.49 319.804 269.846 319.804Z" fill="#0C111E"/>
<circle cx="81" cy="308" r="24" fill="#F2F5F9"/>
<path d="M70 297C69.8701 297 69.7406 297.014 69.6133 297.039C69.6027 297.041 69.5926 297.045 69.582 297.047C69.1348 297.142 68.7338 297.388 68.4459 297.744C68.158 298.099 68.0006 298.543 68 299V311C68.0004 311.13 68.0135 311.259 68.0391 311.387C68.0412 311.397 68.0446 311.407 68.0469 311.418C68.1425 311.865 68.3885 312.266 68.7439 312.554C69.0993 312.842 69.5426 312.999 70 313H92C92.1299 313 92.2594 312.986 92.3867 312.961C92.3973 312.959 92.4074 312.955 92.418 312.953C92.8652 312.858 93.2662 312.612 93.5541 312.256C93.842 311.901 93.9994 311.457 94 311V299C93.9996 298.87 93.9865 298.741 93.9609 298.613C93.9588 298.603 93.9554 298.593 93.9531 298.582C93.8575 298.135 93.6115 297.734 93.2561 297.446C92.9007 297.158 92.4574 297.001 92 297H70ZM72 299H90C90 299.53 90.2107 300.039 90.5858 300.414C90.9609 300.789 91.4696 301 92 301V309C91.4696 309 90.9609 309.211 90.5858 309.586C90.2107 309.961 90 310.47 90 311H72C72 310.47 71.7893 309.961 71.4142 309.586C71.0391 309.211 70.5304 309 70 309V301C70.5304 301 71.0391 300.789 71.4142 300.414C71.7893 300.039 72 299.53 72 299ZM81 301C78.791 301 77 303.015 77 305.5C77 306.922 77.5977 308.175 78.5137 309H83.4863C84.4023 308.175 85 306.922 85 305.5C85 303.015 83.209 301 81 301ZM73 304C72.7348 304 72.4804 304.105 72.2929 304.293C72.1054 304.48 72 304.735 72 305C72 305.265 72.1054 305.52 72.2929 305.707C72.4804 305.895 72.7348 306 73 306C73.2652 306 73.5196 305.895 73.7071 305.707C73.8946 305.52 74 305.265 74 305C74 304.735 73.8946 304.48 73.7071 304.293C73.5196 304.105 73.2652 304 73 304ZM89 304C88.7348 304 88.4804 304.105 88.2929 304.293C88.1054 304.48 88 304.735 88 305C88 305.265 88.1054 305.52 88.2929 305.707C88.4804 305.895 88.7348 306 89 306C89.2652 306 89.5196 305.895 89.7071 305.707C89.8946 305.52 90 305.265 90 305C90 304.735 89.8946 304.48 89.7071 304.293C89.5196 304.105 89.2652 304 89 304ZM91.9844 314.986C91.9359 314.987 91.8876 314.992 91.8398 315H91V316V317C90.1613 317 89.4457 317.516 89.1484 318.248C88.1929 317.892 86.9971 317.472 85.4492 317.037C81.8166 316.017 76.6026 315 70 315C69.8675 314.998 69.7359 315.023 69.613 315.072C69.49 315.121 69.3781 315.195 69.2837 315.288C69.1893 315.381 69.1144 315.492 69.0632 315.614C69.0121 315.736 68.9858 315.867 68.9858 316C68.9858 316.133 69.0121 316.264 69.0632 316.386C69.1144 316.508 69.1893 316.619 69.2837 316.712C69.3781 316.805 69.49 316.879 69.613 316.928C69.7359 316.977 69.8675 317.002 70 317C76.3974 317 81.422 317.983 84.9082 318.963C86.6513 319.453 88.0074 319.941 88.9668 320.309C89.4465 320.493 89.8265 320.646 90.1172 320.76C90.2625 320.817 90.383 320.863 90.5 320.902C90.6028 320.937 90.6727 320.981 90.918 320.992C90.9458 320.995 90.9718 321.01 91 321.01C92.0761 321.01 92.9368 320.159 92.9902 319.102C92.9968 319.055 93.0001 319.008 93 318.961V317V316V315H92.1543C92.0981 314.991 92.0413 314.986 91.9844 314.986Z" fill="#0346F2"/>
<g filter="url(#filter3_d)">
<rect x="209" y="396" width="300" height="80" rx="12" fill="white"/>
<rect x="209.25" y="396.25" width="299.5" height="79.5" rx="11.75" stroke="#EBEBF9" stroke-width="0.5"/>
</g>
<path d="M297.627 415.047V425H295.904V421.083C295.166 421.27 294.396 421.363 293.594 421.363C292.404 421.363 291.504 421.101 290.894 420.577C290.283 420.053 289.975 419.262 289.971 418.205V415.047H291.693V418.219C291.698 418.852 291.844 419.303 292.131 419.572C292.418 419.841 292.906 419.976 293.594 419.976C294.387 419.976 295.157 419.88 295.904 419.688V415.047H297.627ZM302.802 425.137C301.749 425.137 300.895 424.806 300.238 424.146C299.587 423.48 299.261 422.596 299.261 421.493V421.288C299.261 420.55 299.402 419.891 299.685 419.312C299.972 418.729 300.373 418.276 300.888 417.952C301.403 417.629 301.977 417.467 302.61 417.467C303.618 417.467 304.395 417.788 304.941 418.431C305.493 419.073 305.769 419.982 305.769 421.158V421.828H300.936C300.986 422.439 301.188 422.922 301.544 423.277C301.904 423.633 302.355 423.811 302.897 423.811C303.659 423.811 304.278 423.503 304.757 422.888L305.652 423.742C305.356 424.184 304.96 424.528 304.463 424.774C303.971 425.016 303.417 425.137 302.802 425.137ZM302.604 418.8C302.148 418.8 301.779 418.959 301.496 419.278C301.218 419.597 301.04 420.042 300.963 420.611H304.128V420.488C304.091 419.932 303.943 419.513 303.684 419.23C303.424 418.943 303.064 418.8 302.604 418.8ZM311.456 422.956L313.644 417.604H315.722V425H314.061V420.105L312.023 425H310.896L308.852 420.078V425H307.19V417.604H309.282L311.456 422.956ZM324.561 418.014C325.49 418.014 326.235 418.326 326.796 418.95C327.356 419.57 327.637 420.413 327.637 421.479V421.562C327.637 422.628 327.331 423.492 326.721 424.152C326.115 424.813 325.29 425.144 324.246 425.144C323.23 425.144 322.41 424.806 321.785 424.132C321.161 423.457 320.849 422.537 320.849 421.37V420.892C320.849 419.297 321.131 418.034 321.696 417.104C322.261 416.175 323.104 415.594 324.226 415.361C324.854 415.234 325.26 415.099 325.442 414.958C325.629 414.812 325.723 414.616 325.723 414.37H327.062C327.062 414.83 326.987 415.204 326.837 415.491C326.687 415.778 326.456 416.013 326.146 416.195C325.837 416.373 325.303 416.542 324.547 416.701C323.854 416.847 323.326 417.107 322.961 417.48C322.601 417.854 322.359 418.371 322.236 419.032C322.897 418.353 323.672 418.014 324.561 418.014ZM324.232 419.347C323.695 419.347 323.273 419.529 322.968 419.894C322.662 420.254 322.51 420.81 322.51 421.562C322.51 422.272 322.66 422.826 322.961 423.223C323.262 423.619 323.69 423.817 324.246 423.817C324.798 423.817 325.224 423.619 325.524 423.223C325.83 422.822 325.982 422.22 325.982 421.418C325.982 420.78 325.83 420.276 325.524 419.907C325.224 419.534 324.793 419.347 324.232 419.347ZM328.628 421.233C328.628 420.509 328.771 419.857 329.059 419.278C329.346 418.695 329.749 418.248 330.269 417.938C330.788 417.624 331.385 417.467 332.06 417.467C333.058 417.467 333.867 417.788 334.486 418.431C335.111 419.073 335.448 419.925 335.498 420.987L335.505 421.377C335.505 422.106 335.364 422.758 335.081 423.332C334.803 423.906 334.402 424.351 333.878 424.665C333.358 424.979 332.757 425.137 332.073 425.137C331.03 425.137 330.193 424.79 329.564 424.098C328.94 423.4 328.628 422.473 328.628 421.315V421.233ZM330.289 421.377C330.289 422.138 330.446 422.735 330.761 423.168C331.075 423.596 331.513 423.811 332.073 423.811C332.634 423.811 333.069 423.592 333.379 423.154C333.693 422.717 333.851 422.076 333.851 421.233C333.851 420.486 333.689 419.894 333.365 419.456C333.046 419.019 332.611 418.8 332.06 418.8C331.517 418.8 331.087 419.016 330.768 419.449C330.449 419.878 330.289 420.52 330.289 421.377ZM343.086 417.604V425H341.425V418.943H339.333L339.196 421.521C339.11 422.76 338.87 423.651 338.479 424.193C338.091 424.731 337.496 425 336.694 425H336.182L336.175 423.619L336.517 423.585C336.881 423.535 337.146 423.314 337.31 422.922C337.478 422.525 337.585 421.805 337.631 420.762L337.768 417.604H343.086ZM346.641 419.955H348.268C348.874 419.955 349.402 420.06 349.854 420.27C350.305 420.479 350.646 420.773 350.879 421.151C351.116 421.53 351.234 421.969 351.234 422.471C351.234 423.232 350.965 423.842 350.428 424.303C349.89 424.763 349.174 424.995 348.281 425H344.979V417.604H346.641V419.955ZM346.641 421.288V423.674H348.261C348.666 423.674 348.985 423.574 349.218 423.373C349.455 423.168 349.573 422.879 349.573 422.505C349.573 422.131 349.457 421.837 349.225 421.623C348.997 421.404 348.687 421.293 348.295 421.288H346.641ZM354.29 417.604V423.674H356.601V417.604H358.262V423.674H360.579V417.604H362.233V425H352.629V417.604H354.29ZM367.292 425.137C366.239 425.137 365.385 424.806 364.729 424.146C364.077 423.48 363.751 422.596 363.751 421.493V421.288C363.751 420.55 363.892 419.891 364.175 419.312C364.462 418.729 364.863 418.276 365.378 417.952C365.893 417.629 366.467 417.467 367.101 417.467C368.108 417.467 368.885 417.788 369.432 418.431C369.983 419.073 370.259 419.982 370.259 421.158V421.828H365.426C365.476 422.439 365.679 422.922 366.034 423.277C366.394 423.633 366.845 423.811 367.388 423.811C368.149 423.811 368.769 423.503 369.247 422.888L370.143 423.742C369.846 424.184 369.45 424.528 368.953 424.774C368.461 425.016 367.907 425.137 367.292 425.137ZM367.094 418.8C366.638 418.8 366.269 418.959 365.986 419.278C365.708 419.597 365.531 420.042 365.453 420.611H368.618V420.488C368.582 419.932 368.434 419.513 368.174 419.23C367.914 418.943 367.554 418.8 367.094 418.8ZM380.971 425H379.31V422.532C378.881 422.632 378.43 422.683 377.956 422.683C376.944 422.683 376.172 422.441 375.639 421.958C375.105 421.47 374.839 420.773 374.839 419.866V417.597H376.5V419.866C376.5 420.404 376.618 420.785 376.855 421.008C377.097 421.231 377.464 421.343 377.956 421.343C378.403 421.343 378.854 421.29 379.31 421.186V417.604H380.971V425ZM385.995 425.137C384.942 425.137 384.088 424.806 383.432 424.146C382.78 423.48 382.454 422.596 382.454 421.493V421.288C382.454 420.55 382.595 419.891 382.878 419.312C383.165 418.729 383.566 418.276 384.081 417.952C384.596 417.629 385.17 417.467 385.804 417.467C386.811 417.467 387.588 417.788 388.135 418.431C388.686 419.073 388.962 419.982 388.962 421.158V421.828H384.129C384.179 422.439 384.382 422.922 384.737 423.277C385.097 423.633 385.549 423.811 386.091 423.811C386.852 423.811 387.472 423.503 387.95 422.888L388.846 423.742C388.549 424.184 388.153 424.528 387.656 424.774C387.164 425.016 386.61 425.137 385.995 425.137ZM385.797 418.8C385.341 418.8 384.972 418.959 384.689 419.278C384.411 419.597 384.234 420.042 384.156 420.611H387.321V420.488C387.285 419.932 387.137 419.513 386.877 419.23C386.617 418.943 386.257 418.8 385.797 418.8ZM396.543 417.604V425H394.882V418.943H392.79L392.653 421.521C392.567 422.76 392.327 423.651 391.936 424.193C391.548 424.731 390.953 425 390.151 425H389.639L389.632 423.619L389.974 423.585C390.338 423.535 390.603 423.314 390.767 422.922C390.935 422.525 391.042 421.805 391.088 420.762L391.225 417.604H396.543ZM397.999 421.233C397.999 420.509 398.143 419.857 398.43 419.278C398.717 418.695 399.12 418.248 399.64 417.938C400.159 417.624 400.756 417.467 401.431 417.467C402.429 417.467 403.238 417.788 403.857 418.431C404.482 419.073 404.819 419.925 404.869 420.987L404.876 421.377C404.876 422.106 404.735 422.758 404.452 423.332C404.174 423.906 403.773 424.351 403.249 424.665C402.729 424.979 402.128 425.137 401.444 425.137C400.401 425.137 399.564 424.79 398.936 424.098C398.311 423.4 397.999 422.473 397.999 421.315V421.233ZM399.66 421.377C399.66 422.138 399.817 422.735 400.132 423.168C400.446 423.596 400.884 423.811 401.444 423.811C402.005 423.811 402.44 423.592 402.75 423.154C403.064 422.717 403.222 422.076 403.222 421.233C403.222 420.486 403.06 419.894 402.736 419.456C402.417 419.019 401.982 418.8 401.431 418.8C400.888 418.8 400.458 419.016 400.139 419.449C399.82 419.878 399.66 420.52 399.66 421.377ZM406.407 425V417.604H409.408C410.42 417.604 411.19 417.781 411.719 418.137C412.247 418.488 412.512 418.993 412.512 419.654C412.512 419.996 412.405 420.304 412.19 420.577C411.981 420.846 411.669 421.053 411.254 421.199C411.737 421.299 412.12 421.502 412.402 421.808C412.685 422.113 412.826 422.473 412.826 422.888C412.826 423.576 412.571 424.1 412.061 424.46C411.555 424.82 410.826 425 409.873 425H406.407ZM408.068 421.849V423.688H409.887C410.739 423.688 411.165 423.382 411.165 422.771C411.165 422.156 410.732 421.849 409.866 421.849H408.068ZM408.068 420.659H409.436C410.379 420.659 410.851 420.381 410.851 419.825C410.851 419.242 410.404 418.941 409.511 418.923H408.068V420.659ZM417.522 425.137C416.47 425.137 415.615 424.806 414.959 424.146C414.307 423.48 413.981 422.596 413.981 421.493V421.288C413.981 420.55 414.123 419.891 414.405 419.312C414.692 418.729 415.093 418.276 415.608 417.952C416.123 417.629 416.698 417.467 417.331 417.467C418.338 417.467 419.115 417.788 419.662 418.431C420.214 419.073 420.489 419.982 420.489 421.158V421.828H415.656C415.706 422.439 415.909 422.922 416.265 423.277C416.625 423.633 417.076 423.811 417.618 423.811C418.379 423.811 418.999 423.503 419.478 422.888L420.373 423.742C420.077 424.184 419.68 424.528 419.184 424.774C418.691 425.016 418.138 425.137 417.522 425.137ZM417.324 418.8C416.868 418.8 416.499 418.959 416.217 419.278C415.939 419.597 415.761 420.042 415.684 420.611H418.849V420.488C418.812 419.932 418.664 419.513 418.404 419.23C418.145 418.943 417.785 418.8 417.324 418.8ZM424.413 422.074H423.572V425H421.911V417.604H423.572V420.557H424.304L426.348 417.604H428.398L425.726 421.145L428.624 425H426.464L424.413 422.074ZM439.295 425H437.634V418.943H434.749V425H433.088V417.604H439.295V425ZM447.539 421.377C447.539 422.521 447.279 423.435 446.76 424.118C446.24 424.797 445.543 425.137 444.668 425.137C443.857 425.137 443.207 424.87 442.72 424.337V427.844H441.059V417.604H442.59L442.658 418.355C443.146 417.763 443.809 417.467 444.647 417.467C445.55 417.467 446.256 417.804 446.767 418.479C447.282 419.148 447.539 420.08 447.539 421.274V421.377ZM445.885 421.233C445.885 420.495 445.737 419.91 445.44 419.477C445.149 419.044 444.729 418.827 444.183 418.827C443.504 418.827 443.016 419.107 442.72 419.668V422.949C443.021 423.523 443.513 423.811 444.196 423.811C444.725 423.811 445.137 423.599 445.434 423.175C445.734 422.746 445.885 422.099 445.885 421.233ZM453.568 417.604H455.223V425H453.568V420.064L450.67 425H449.016V417.604H450.67V422.539L453.568 417.604ZM457.021 423.674C457.481 423.159 457.788 422.671 457.943 422.211C458.103 421.746 458.199 421.154 458.23 420.434L458.326 417.604H463.46V423.674H464.485V427.201H462.831V425H458.087V427.201H456.405L456.412 423.674H457.021ZM458.969 423.674H461.806V419.032H459.939L459.892 420.447C459.828 421.805 459.52 422.881 458.969 423.674ZM468.929 425.137C467.876 425.137 467.021 424.806 466.365 424.146C465.714 423.48 465.388 422.596 465.388 421.493V421.288C465.388 420.55 465.529 419.891 465.812 419.312C466.099 418.729 466.5 418.276 467.015 417.952C467.53 417.629 468.104 417.467 468.737 417.467C469.744 417.467 470.521 417.788 471.068 418.431C471.62 419.073 471.896 419.982 471.896 421.158V421.828H467.062C467.113 422.439 467.315 422.922 467.671 423.277C468.031 423.633 468.482 423.811 469.024 423.811C469.785 423.811 470.405 423.503 470.884 422.888L471.779 423.742C471.483 424.184 471.087 424.528 470.59 424.774C470.098 425.016 469.544 425.137 468.929 425.137ZM468.73 418.8C468.275 418.8 467.906 418.959 467.623 419.278C467.345 419.597 467.167 420.042 467.09 420.611H470.255V420.488C470.218 419.932 470.07 419.513 469.811 419.23C469.551 418.943 469.191 418.8 468.73 418.8ZM478.93 418.923H476.53V425H474.869V418.923H472.497V417.604H478.93V418.923ZM296.123 441H294.462V434.943H291.577V441H289.916V433.604H296.123V441ZM297.579 437.233C297.579 436.509 297.723 435.857 298.01 435.278C298.297 434.695 298.7 434.248 299.22 433.938C299.739 433.624 300.336 433.467 301.011 433.467C302.009 433.467 302.818 433.788 303.438 434.431C304.062 435.073 304.399 435.925 304.449 436.987L304.456 437.377C304.456 438.106 304.315 438.758 304.032 439.332C303.754 439.906 303.353 440.351 302.829 440.665C302.31 440.979 301.708 441.137 301.024 441.137C299.981 441.137 299.145 440.79 298.516 440.098C297.891 439.4 297.579 438.473 297.579 437.315V437.233ZM299.24 437.377C299.24 438.138 299.397 438.735 299.712 439.168C300.026 439.596 300.464 439.811 301.024 439.811C301.585 439.811 302.02 439.592 302.33 439.154C302.645 438.717 302.802 438.076 302.802 437.233C302.802 436.486 302.64 435.894 302.316 435.456C301.997 435.019 301.562 434.8 301.011 434.8C300.468 434.8 300.038 435.016 299.719 435.449C299.4 435.878 299.24 436.52 299.24 437.377ZM309.508 441V431.047H312.919C314.045 431.047 314.901 431.272 315.489 431.724C316.077 432.175 316.371 432.847 316.371 433.74C316.371 434.196 316.248 434.606 316.002 434.971C315.756 435.335 315.396 435.618 314.922 435.818C315.46 435.964 315.874 436.24 316.166 436.646C316.462 437.047 316.61 437.53 316.61 438.095C316.61 439.029 316.31 439.747 315.708 440.248C315.111 440.749 314.254 441 313.138 441H309.508ZM311.237 436.509V439.619H313.158C313.701 439.619 314.124 439.485 314.43 439.216C314.735 438.947 314.888 438.573 314.888 438.095C314.888 437.06 314.359 436.532 313.302 436.509H311.237ZM311.237 435.237H312.933C313.47 435.237 313.89 435.117 314.19 434.875C314.496 434.629 314.648 434.283 314.648 433.836C314.648 433.344 314.507 432.988 314.225 432.77C313.947 432.551 313.511 432.441 312.919 432.441H311.237V435.237ZM322.599 441C322.526 440.859 322.462 440.629 322.407 440.31C321.879 440.861 321.231 441.137 320.466 441.137C319.723 441.137 319.117 440.925 318.647 440.501C318.178 440.077 317.943 439.553 317.943 438.929C317.943 438.14 318.235 437.536 318.818 437.117C319.406 436.693 320.245 436.481 321.334 436.481H322.353V435.996C322.353 435.613 322.245 435.308 322.031 435.08C321.817 434.848 321.491 434.731 321.054 434.731C320.675 434.731 320.366 434.827 320.124 435.019C319.882 435.205 319.762 435.445 319.762 435.736H318.101C318.101 435.331 318.235 434.952 318.504 434.602C318.773 434.246 319.137 433.968 319.598 433.768C320.062 433.567 320.58 433.467 321.149 433.467C322.015 433.467 322.706 433.686 323.221 434.123C323.736 434.556 324 435.167 324.014 435.955V439.291C324.014 439.956 324.107 440.487 324.294 440.884V441H322.599ZM320.773 439.804C321.102 439.804 321.409 439.724 321.696 439.564C321.988 439.405 322.207 439.191 322.353 438.922V437.527H321.457C320.842 437.527 320.379 437.634 320.069 437.849C319.759 438.063 319.604 438.366 319.604 438.758C319.604 439.077 319.709 439.332 319.919 439.523C320.133 439.71 320.418 439.804 320.773 439.804ZM327.479 433.604V439.674H329.79V433.604H331.451V439.674H333.769V433.604H335.423V441H325.818V433.604H327.479ZM340.481 441.137C339.429 441.137 338.574 440.806 337.918 440.146C337.266 439.48 336.94 438.596 336.94 437.493V437.288C336.94 436.55 337.082 435.891 337.364 435.312C337.651 434.729 338.052 434.276 338.567 433.952C339.082 433.629 339.657 433.467 340.29 433.467C341.297 433.467 342.074 433.788 342.621 434.431C343.173 435.073 343.448 435.982 343.448 437.158V437.828H338.615C338.665 438.439 338.868 438.922 339.224 439.277C339.584 439.633 340.035 439.811 340.577 439.811C341.338 439.811 341.958 439.503 342.437 438.888L343.332 439.742C343.036 440.184 342.639 440.528 342.143 440.774C341.65 441.016 341.097 441.137 340.481 441.137ZM340.283 434.8C339.827 434.8 339.458 434.959 339.176 435.278C338.898 435.597 338.72 436.042 338.643 436.611H341.808V436.488C341.771 435.932 341.623 435.513 341.363 435.23C341.104 434.943 340.743 434.8 340.283 434.8ZM349.361 433.604H351.016V441H349.361V436.064L346.463 441H344.809V433.604H346.463V438.539L349.361 433.604ZM350.141 430.767C350.141 431.341 349.94 431.806 349.539 432.161C349.138 432.517 348.603 432.694 347.933 432.694C347.263 432.694 346.727 432.517 346.326 432.161C345.925 431.806 345.725 431.341 345.725 430.767H346.969C346.969 431.067 347.053 431.302 347.222 431.471C347.395 431.635 347.632 431.717 347.933 431.717C348.233 431.717 348.468 431.635 348.637 431.471C348.805 431.302 348.89 431.067 348.89 430.767H350.141ZM362.746 437.377C362.746 438.521 362.486 439.435 361.967 440.118C361.447 440.797 360.75 441.137 359.875 441.137C359.064 441.137 358.414 440.87 357.927 440.337V443.844H356.266V433.604H357.797L357.865 434.355C358.353 433.763 359.016 433.467 359.854 433.467C360.757 433.467 361.463 433.804 361.974 434.479C362.489 435.148 362.746 436.08 362.746 437.274V437.377ZM361.092 437.233C361.092 436.495 360.944 435.91 360.647 435.477C360.356 435.044 359.937 434.827 359.39 434.827C358.711 434.827 358.223 435.107 357.927 435.668V438.949C358.228 439.523 358.72 439.811 359.403 439.811C359.932 439.811 360.344 439.599 360.641 439.175C360.941 438.746 361.092 438.099 361.092 437.233ZM367.415 441.137C366.362 441.137 365.508 440.806 364.852 440.146C364.2 439.48 363.874 438.596 363.874 437.493V437.288C363.874 436.55 364.015 435.891 364.298 435.312C364.585 434.729 364.986 434.276 365.501 433.952C366.016 433.629 366.59 433.467 367.224 433.467C368.231 433.467 369.008 433.788 369.555 434.431C370.106 435.073 370.382 435.982 370.382 437.158V437.828H365.549C365.599 438.439 365.802 438.922 366.157 439.277C366.517 439.633 366.968 439.811 367.511 439.811C368.272 439.811 368.892 439.503 369.37 438.888L370.266 439.742C369.969 440.184 369.573 440.528 369.076 440.774C368.584 441.016 368.03 441.137 367.415 441.137ZM367.217 434.8C366.761 434.8 366.392 434.959 366.109 435.278C365.831 435.597 365.654 436.042 365.576 436.611H368.741V436.488C368.705 435.932 368.557 435.513 368.297 435.23C368.037 434.943 367.677 434.8 367.217 434.8ZM374.306 438.074H373.465V441H371.804V433.604H373.465V436.557H374.196L376.24 433.604H378.291L375.618 437.145L378.517 441H376.356L374.306 438.074ZM378.722 437.233C378.722 436.509 378.865 435.857 379.152 435.278C379.439 434.695 379.843 434.248 380.362 433.938C380.882 433.624 381.479 433.467 382.153 433.467C383.151 433.467 383.96 433.788 384.58 434.431C385.204 435.073 385.542 435.925 385.592 436.987L385.599 437.377C385.599 438.106 385.457 438.758 385.175 439.332C384.897 439.906 384.496 440.351 383.972 440.665C383.452 440.979 382.851 441.137 382.167 441.137C381.123 441.137 380.287 440.79 379.658 440.098C379.034 439.4 378.722 438.473 378.722 437.315V437.233ZM380.383 437.377C380.383 438.138 380.54 438.735 380.854 439.168C381.169 439.596 381.606 439.811 382.167 439.811C382.728 439.811 383.163 439.592 383.473 439.154C383.787 438.717 383.944 438.076 383.944 437.233C383.944 436.486 383.783 435.894 383.459 435.456C383.14 435.019 382.705 434.8 382.153 434.8C381.611 434.8 381.18 435.016 380.861 435.449C380.542 435.878 380.383 436.52 380.383 437.377ZM391.396 438.956L393.583 433.604H395.661V441H394V436.105L391.963 441H390.835L388.791 436.078V441H387.13V433.604H389.222L391.396 438.956ZM400.788 441.137C399.735 441.137 398.881 440.806 398.225 440.146C397.573 439.48 397.247 438.596 397.247 437.493V437.288C397.247 436.55 397.388 435.891 397.671 435.312C397.958 434.729 398.359 434.276 398.874 433.952C399.389 433.629 399.963 433.467 400.597 433.467C401.604 433.467 402.381 433.788 402.928 434.431C403.479 435.073 403.755 435.982 403.755 437.158V437.828H398.922C398.972 438.439 399.175 438.922 399.53 439.277C399.89 439.633 400.341 439.811 400.884 439.811C401.645 439.811 402.265 439.503 402.743 438.888L403.639 439.742C403.342 440.184 402.946 440.528 402.449 440.774C401.957 441.016 401.403 441.137 400.788 441.137ZM400.59 434.8C400.134 434.8 399.765 434.959 399.482 435.278C399.204 435.597 399.027 436.042 398.949 436.611H402.114V436.488C402.078 435.932 401.93 435.513 401.67 435.23C401.41 434.943 401.05 434.8 400.59 434.8ZM411.315 441H409.654V438.013H406.776V441H405.115V433.604H406.776V436.687H409.654V433.604H411.315V441ZM413.12 439.674C413.58 439.159 413.888 438.671 414.043 438.211C414.202 437.746 414.298 437.154 414.33 436.434L414.426 433.604H419.56V439.674H420.585V443.201H418.931V441H414.187V443.201H412.505L412.512 439.674H413.12ZM415.068 439.674H417.905V435.032H416.039L415.991 436.447C415.927 437.805 415.62 438.881 415.068 439.674ZM426.19 441C426.118 440.859 426.054 440.629 425.999 440.31C425.47 440.861 424.823 441.137 424.058 441.137C423.315 441.137 422.709 440.925 422.239 440.501C421.77 440.077 421.535 439.553 421.535 438.929C421.535 438.14 421.827 437.536 422.41 437.117C422.998 436.693 423.837 436.481 424.926 436.481H425.944V435.996C425.944 435.613 425.837 435.308 425.623 435.08C425.409 434.848 425.083 434.731 424.646 434.731C424.267 434.731 423.957 434.827 423.716 435.019C423.474 435.205 423.354 435.445 423.354 435.736H421.692C421.692 435.331 421.827 434.952 422.096 434.602C422.365 434.246 422.729 433.968 423.189 433.768C423.654 433.567 424.172 433.467 424.741 433.467C425.607 433.467 426.298 433.686 426.812 434.123C427.327 434.556 427.592 435.167 427.605 435.955V439.291C427.605 439.956 427.699 440.487 427.886 440.884V441H426.19ZM424.365 439.804C424.693 439.804 425.001 439.724 425.288 439.564C425.58 439.405 425.799 439.191 425.944 438.922V437.527H425.049C424.434 437.527 423.971 437.634 423.661 437.849C423.351 438.063 423.196 438.366 423.196 438.758C423.196 439.077 423.301 439.332 423.511 439.523C423.725 439.71 424.01 439.804 424.365 439.804ZM429.41 433.604H431.071V439.674H433.956V433.604H435.617V439.674H436.622L436.485 443.194H434.975V441H429.41V433.604ZM442.412 433.604H444.066V441H442.412V436.064L439.514 441H437.859V433.604H439.514V438.539L442.412 433.604ZM450.451 433.604H452.105V441H450.451V436.064L447.553 441H445.898V433.604H447.553V438.539L450.451 433.604ZM454.108 443.242L453.213 442.709C453.477 442.294 453.657 441.932 453.753 441.622C453.853 441.317 453.906 441.005 453.91 440.686V439.394H455.407L455.4 440.59C455.396 441.073 455.273 441.556 455.031 442.039C454.794 442.527 454.487 442.928 454.108 443.242ZM466.256 434.923H463.856V441H462.195V434.923H459.823V433.604H466.256V434.923ZM470.187 441.137C469.134 441.137 468.279 440.806 467.623 440.146C466.971 439.48 466.646 438.596 466.646 437.493V437.288C466.646 436.55 466.787 435.891 467.069 435.312C467.356 434.729 467.757 434.276 468.272 433.952C468.787 433.629 469.362 433.467 469.995 433.467C471.002 433.467 471.779 433.788 472.326 434.431C472.878 435.073 473.153 435.982 473.153 437.158V437.828H468.32C468.37 438.439 468.573 438.922 468.929 439.277C469.289 439.633 469.74 439.811 470.282 439.811C471.043 439.811 471.663 439.503 472.142 438.888L473.037 439.742C472.741 440.184 472.344 440.528 471.848 440.774C471.355 441.016 470.802 441.137 470.187 441.137ZM469.988 434.8C469.533 434.8 469.163 434.959 468.881 435.278C468.603 435.597 468.425 436.042 468.348 436.611H471.513V436.488C471.476 435.932 471.328 435.513 471.068 435.23C470.809 434.943 470.449 434.8 469.988 434.8ZM478.841 438.956L481.028 433.604H483.106V441H481.445V436.105L479.408 441H478.28L476.236 436.078V441H474.575V433.604H476.667L478.841 438.956ZM289.978 457V449.604H292.979C293.99 449.604 294.76 449.781 295.289 450.137C295.818 450.488 296.082 450.993 296.082 451.654C296.082 451.996 295.975 452.304 295.761 452.577C295.551 452.846 295.239 453.053 294.824 453.199C295.307 453.299 295.69 453.502 295.973 453.808C296.255 454.113 296.396 454.473 296.396 454.888C296.396 455.576 296.141 456.1 295.631 456.46C295.125 456.82 294.396 457 293.443 457H289.978ZM291.639 453.849V455.688H293.457C294.309 455.688 294.735 455.382 294.735 454.771C294.735 454.156 294.302 453.849 293.437 453.849H291.639ZM291.639 452.659H293.006C293.949 452.659 294.421 452.381 294.421 451.825C294.421 451.242 293.974 450.941 293.081 450.923H291.639V452.659ZM299.623 451.955H301.25C301.856 451.955 302.385 452.06 302.836 452.27C303.287 452.479 303.629 452.773 303.861 453.151C304.098 453.53 304.217 453.969 304.217 454.471C304.217 455.232 303.948 455.842 303.41 456.303C302.872 456.763 302.157 456.995 301.264 457H297.962V449.604H299.623V451.955ZM307.108 457H305.447V449.604H307.108V457ZM299.623 453.288V455.674H301.243C301.649 455.674 301.968 455.574 302.2 455.373C302.437 455.168 302.556 454.879 302.556 454.505C302.556 454.131 302.439 453.837 302.207 453.623C301.979 453.404 301.669 453.293 301.277 453.288H299.623ZM310.827 449.604V455.674H313.138V449.604H314.799V455.674H317.116V449.604H318.771V457H309.166V449.604H310.827ZM323.829 457.137C322.776 457.137 321.922 456.806 321.266 456.146C320.614 455.48 320.288 454.596 320.288 453.493V453.288C320.288 452.55 320.429 451.891 320.712 451.312C320.999 450.729 321.4 450.276 321.915 449.952C322.43 449.629 323.004 449.467 323.638 449.467C324.645 449.467 325.422 449.788 325.969 450.431C326.52 451.073 326.796 451.982 326.796 453.158V453.828H321.963C322.013 454.439 322.216 454.922 322.571 455.277C322.931 455.633 323.382 455.811 323.925 455.811C324.686 455.811 325.306 455.503 325.784 454.888L326.68 455.742C326.383 456.184 325.987 456.528 325.49 456.774C324.998 457.016 324.444 457.137 323.829 457.137ZM323.631 450.8C323.175 450.8 322.806 450.959 322.523 451.278C322.245 451.597 322.068 452.042 321.99 452.611H325.155V452.488C325.119 451.932 324.971 451.513 324.711 451.23C324.451 450.943 324.091 450.8 323.631 450.8ZM331.738 457V447.047H335.149C336.275 447.047 337.132 447.272 337.72 447.724C338.308 448.175 338.602 448.847 338.602 449.74C338.602 450.196 338.479 450.606 338.232 450.971C337.986 451.335 337.626 451.618 337.152 451.818C337.69 451.964 338.105 452.24 338.396 452.646C338.693 453.047 338.841 453.53 338.841 454.095C338.841 455.029 338.54 455.747 337.938 456.248C337.341 456.749 336.485 457 335.368 457H331.738ZM333.468 452.509V455.619H335.389C335.931 455.619 336.355 455.485 336.66 455.216C336.965 454.947 337.118 454.573 337.118 454.095C337.118 453.06 336.59 452.532 335.532 452.509H333.468ZM333.468 451.237H335.163C335.701 451.237 336.12 451.117 336.421 450.875C336.726 450.629 336.879 450.283 336.879 449.836C336.879 449.344 336.738 448.988 336.455 448.77C336.177 448.551 335.742 448.441 335.149 448.441H333.468V451.237ZM344.829 457C344.756 456.859 344.692 456.629 344.638 456.31C344.109 456.861 343.462 457.137 342.696 457.137C341.953 457.137 341.347 456.925 340.878 456.501C340.409 456.077 340.174 455.553 340.174 454.929C340.174 454.14 340.465 453.536 341.049 453.117C341.637 452.693 342.475 452.481 343.564 452.481H344.583V451.996C344.583 451.613 344.476 451.308 344.262 451.08C344.048 450.848 343.722 450.731 343.284 450.731C342.906 450.731 342.596 450.827 342.354 451.019C342.113 451.205 341.992 451.445 341.992 451.736H340.331C340.331 451.331 340.465 450.952 340.734 450.602C341.003 450.246 341.368 449.968 341.828 449.768C342.293 449.567 342.81 449.467 343.38 449.467C344.246 449.467 344.936 449.686 345.451 450.123C345.966 450.556 346.23 451.167 346.244 451.955V455.291C346.244 455.956 346.338 456.487 346.524 456.884V457H344.829ZM343.004 455.804C343.332 455.804 343.64 455.724 343.927 455.564C344.218 455.405 344.437 455.191 344.583 454.922V453.527H343.688C343.072 453.527 342.61 453.634 342.3 453.849C341.99 454.063 341.835 454.366 341.835 454.758C341.835 455.077 341.94 455.332 342.149 455.523C342.364 455.71 342.648 455.804 343.004 455.804ZM349.71 449.604V455.674H352.021V449.604H353.682V455.674H355.999V449.604H357.653V457H348.049V449.604H349.71ZM362.972 455.674C363.432 455.159 363.74 454.671 363.895 454.211C364.054 453.746 364.15 453.154 364.182 452.434L364.277 449.604H369.411V455.674H370.437V459.201H368.782V457H364.038V459.201H362.356L362.363 455.674H362.972ZM364.92 455.674H367.757V451.032H365.891L365.843 452.447C365.779 453.805 365.471 454.881 364.92 455.674ZM371.312 453.233C371.312 452.509 371.455 451.857 371.742 451.278C372.029 450.695 372.433 450.248 372.952 449.938C373.472 449.624 374.069 449.467 374.743 449.467C375.741 449.467 376.55 449.788 377.17 450.431C377.794 451.073 378.132 451.925 378.182 452.987L378.188 453.377C378.188 454.106 378.047 454.758 377.765 455.332C377.487 455.906 377.086 456.351 376.562 456.665C376.042 456.979 375.44 457.137 374.757 457.137C373.713 457.137 372.877 456.79 372.248 456.098C371.624 455.4 371.312 454.473 371.312 453.315V453.233ZM372.973 453.377C372.973 454.138 373.13 454.735 373.444 455.168C373.759 455.596 374.196 455.811 374.757 455.811C375.317 455.811 375.753 455.592 376.062 455.154C376.377 454.717 376.534 454.076 376.534 453.233C376.534 452.486 376.372 451.894 376.049 451.456C375.73 451.019 375.295 450.8 374.743 450.8C374.201 450.8 373.77 451.016 373.451 451.449C373.132 451.878 372.973 452.52 372.973 453.377ZM382.099 452.037L383.507 449.604H385.353L383.09 453.247L385.428 457H383.596L382.119 454.471L380.649 457H378.804L381.142 453.247L378.886 449.604H380.718L382.099 452.037ZM385.899 453.233C385.899 452.509 386.043 451.857 386.33 451.278C386.617 450.695 387.021 450.248 387.54 449.938C388.06 449.624 388.657 449.467 389.331 449.467C390.329 449.467 391.138 449.788 391.758 450.431C392.382 451.073 392.719 451.925 392.77 452.987L392.776 453.377C392.776 454.106 392.635 454.758 392.353 455.332C392.075 455.906 391.674 456.351 391.149 456.665C390.63 456.979 390.028 457.137 389.345 457.137C388.301 457.137 387.465 456.79 386.836 456.098C386.212 455.4 385.899 454.473 385.899 453.315V453.233ZM387.561 453.377C387.561 454.138 387.718 454.735 388.032 455.168C388.347 455.596 388.784 455.811 389.345 455.811C389.905 455.811 390.34 455.592 390.65 455.154C390.965 454.717 391.122 454.076 391.122 453.233C391.122 452.486 390.96 451.894 390.637 451.456C390.318 451.019 389.882 450.8 389.331 450.8C388.789 450.8 388.358 451.016 388.039 451.449C387.72 451.878 387.561 452.52 387.561 453.377ZM393.72 455.674C394.18 455.159 394.488 454.671 394.643 454.211C394.802 453.746 394.898 453.154 394.93 452.434L395.025 449.604H400.159V455.674H401.185V459.201H399.53V457H394.786V459.201H393.104L393.111 455.674H393.72ZM395.668 455.674H398.505V451.032H396.639L396.591 452.447C396.527 453.805 396.219 454.881 395.668 455.674Z" fill="#0C111E"/>
<circle cx="249" cy="436" r="24" fill="#F2F5F9"/>
<path d="M252.642 434.052C252.311 434.052 252.042 434.32 252.042 434.652L252.042 448.4C252.042 448.731 251.773 449 251.442 449L246.558 449C246.227 449 245.958 448.731 245.958 448.4L245.958 434.652C245.958 434.32 245.689 434.052 245.358 434.052L240.443 434.052C239.909 434.052 239.641 433.407 240.018 433.028L248.575 424.428C248.809 424.192 249.191 424.192 249.425 424.428L257.982 433.028C258.359 433.407 258.091 434.052 257.557 434.052L252.642 434.052Z" fill="#24BD53"/>
<defs>
<filter id="filter0_d" x="0" y="0" width="340" height="120" filterUnits="userSpaceOnUse" color-interpolation-filters="sRGB">
<feFlood flood-opacity="0" result="BackgroundImageFix"/>
<feColorMatrix in="SourceAlpha" type="matrix" values="0 0 0 0 0 0 0 0 0 0 0 0 0 0 0 0 0 0 127 0"/>
<feMorphology radius="4" operator="dilate" in="SourceAlpha" result="effect1_dropShadow"/>
<feOffset dx="8" dy="8"/>
<feGaussianBlur stdDeviation="8"/>
<feColorMatrix type="matrix" values="0 0 0 0 0.538542 0 0 0 0 0.561063 0 0 0 0 0.5875 0 0 0 0.04 0"/>
<feBlend mode="normal" in2="BackgroundImageFix" result="effect1_dropShadow"/>
<feBlend mode="normal" in="SourceGraphic" in2="effect1_dropShadow" result="shape"/>
</filter>
<filter id="filter1_d" x="157" y="128" width="340" height="120" filterUnits="userSpaceOnUse" color-interpolation-filters="sRGB">
<feFlood flood-opacity="0" result="BackgroundImageFix"/>
<feColorMatrix in="SourceAlpha" type="matrix" values="0 0 0 0 0 0 0 0 0 0 0 0 0 0 0 0 0 0 127 0"/>
<feMorphology radius="4" operator="dilate" in="SourceAlpha" result="effect1_dropShadow"/>
<feOffset dx="8" dy="8"/>
<feGaussianBlur stdDeviation="8"/>
<feColorMatrix type="matrix" values="0 0 0 0 0.538542 0 0 0 0 0.561063 0 0 0 0 0.5875 0 0 0 0.04 0"/>
<feBlend mode="normal" in2="BackgroundImageFix" result="effect1_dropShadow"/>
<feBlend mode="normal" in="SourceGraphic" in2="effect1_dropShadow" result="shape"/>
</filter>
<filter id="filter2_d" x="29" y="256" width="340" height="120" filterUnits="userSpaceOnUse" color-interpolation-filters="sRGB">
<feFlood flood-opacity="0" result="BackgroundImageFix"/>
<feColorMatrix in="SourceAlpha" type="matrix" values="0 0 0 0 0 0 0 0 0 0 0 0 0 0 0 0 0 0 127 0"/>
<feMorphology radius="4" operator="dilate" in="SourceAlpha" result="effect1_dropShadow"/>
<feOffset dx="8" dy="8"/>
<feGaussianBlur stdDeviation="8"/>
<feColorMatrix type="matrix" values="0 0 0 0 0.538542 0 0 0 0 0.561063 0 0 0 0 0.5875 0 0 0 0.04 0"/>
<feBlend mode="normal" in2="BackgroundImageFix" result="effect1_dropShadow"/>
<feBlend mode="normal" in="SourceGraphic" in2="effect1_dropShadow" result="shape"/>
</filter>
<filter id="filter3_d" x="197" y="384" width="340" height="120" filterUnits="userSpaceOnUse" color-interpolation-filters="sRGB">
<feFlood flood-opacity="0" result="BackgroundImageFix"/>
<feColorMatrix in="SourceAlpha" type="matrix" values="0 0 0 0 0 0 0 0 0 0 0 0 0 0 0 0 0 0 127 0"/>
<feMorphology radius="4" operator="dilate" in="SourceAlpha" result="effect1_dropShadow"/>
<feOffset dx="8" dy="8"/>
<feGaussianBlur stdDeviation="8"/>
<feColorMatrix type="matrix" values="0 0 0 0 0.538542 0 0 0 0 0.561063 0 0 0 0 0.5875 0 0 0 0.04 0"/>
<feBlend mode="normal" in2="BackgroundImageFix" result="effect1_dropShadow"/>
<feBlend mode="normal" in="SourceGraphic" in2="effect1_dropShadow" result="shape"/>
</filter>
</defs>
</svg>
