<svg width="101" height="33" viewBox="0 0 101 33" fill="none" xmlns="http://www.w3.org/2000/svg">
<g clip-path="url(#clip0)">
<path d="M43.4077 32.2428H35.293L40.3685 0.859375H48.4829L43.4077 32.2428Z" fill="#00579F"/>
<path d="M72.8245 1.62713C71.2239 0.992133 68.6853 0.291016 65.5462 0.291016C57.5326 0.291016 51.8895 4.56428 51.8549 10.6738C51.7883 15.1813 55.8952 17.6849 58.9668 19.1879C62.1063 20.7237 63.1735 21.7261 63.1735 23.0951C63.1415 25.1975 60.6366 26.1667 58.3003 26.1667C55.0605 26.1667 53.3246 25.667 50.6865 24.4973L49.618 23.9959L48.4824 31.0407C50.3856 31.9078 53.8921 32.6773 57.5326 32.711C66.0472 32.711 71.5905 28.5039 71.6561 21.9932C71.6885 18.4207 69.5199 15.6832 64.8446 13.4463C62.0064 12.0103 60.2683 11.0421 60.2683 9.57282C60.3016 8.23715 61.7384 6.86909 64.9423 6.86909C67.5803 6.80208 69.5186 7.43619 70.987 8.07075L71.7209 8.404L72.8245 1.62713Z" fill="#00579F"/>
<path d="M83.6096 21.1248C84.2778 19.3218 86.8493 12.3439 86.8493 12.3439C86.8156 12.4109 87.5163 10.5077 87.917 9.33934L88.4841 12.0435C88.4841 12.0435 90.0208 19.5557 90.3545 21.1248C89.0863 21.1248 85.2124 21.1248 83.6096 21.1248ZM93.6262 0.859375H87.3494C85.4138 0.859375 83.9433 1.42648 83.1081 3.46327L71.0547 32.2423H79.5693C79.5693 32.2423 80.9711 28.3689 81.2724 27.5346C82.2064 27.5346 90.4894 27.5346 91.691 27.5346C91.924 28.6365 92.6593 32.2423 92.6593 32.2423H100.173L93.6262 0.859375Z" fill="#00579F"/>
<path d="M28.5171 0.859375L20.57 22.2599L19.7016 17.9196C18.2324 12.9115 13.6245 7.47029 8.48242 4.76477L15.7616 32.2095H24.3428L37.0978 0.859375H28.5171Z" fill="#00579F"/>
<path d="M13.1894 0.861328H0.133567L0 1.49544C10.1844 4.09978 16.9293 10.3774 19.7005 17.9229L16.8623 3.49939C16.395 1.495 14.9591 0.927446 13.1894 0.861328Z" fill="#FAA61A"/>
</g>
<defs>
<clipPath id="clip0">
<rect width="100.174" height="32.42" fill="white" transform="translate(0 0.291016)"/>
</clipPath>
</defs>
</svg>
