<svg width="80" height="80" viewBox="0 0 80 80" fill="none" xmlns="http://www.w3.org/2000/svg">
<path d="M32.25 5.05181C37.0457 2.28301 42.9543 2.28301 47.75 5.05181L66.391 15.8142C71.1867 18.583 74.141 23.7 74.141 29.2376V50.7624C74.141 56.3 71.1867 61.417 66.391 64.1858L47.75 74.9482C42.9543 77.717 37.0457 77.717 32.25 74.9482L13.609 64.1858C8.81327 61.417 5.85898 56.3 5.85898 50.7624V29.2376C5.85898 23.7 8.81327 18.583 13.609 15.8142L32.25 5.05181Z" stroke="#24BD53"/>
<path d="M40.5496 27.3496C33.565 27.3496 30.8688 31.8592 30.6496 36.1496V39.8277C30.265 40.2682 30.0996 40.8311 30.0996 41.5465C30.0996 42.8119 30.9182 43.8496 32.1277 44.1246C33.5586 47.865 35.9305 52.6496 39.9996 52.6496C42.1996 52.6496 43.9055 51.2188 45.2246 49.3496H43.798C42.5885 50.8342 41.323 51.5496 39.948 51.5496C37.3076 51.5496 35.0432 48.9027 32.9527 43.4027L32.8496 43.0762L32.523 43.0246C31.8076 43.0246 31.1996 42.3715 31.1996 41.5465C31.1996 41.2242 31.2598 40.9535 31.3543 40.7387L33.159 41.598C33.3309 41.6818 33.5328 41.6711 33.6939 41.568C33.8529 41.467 33.9518 41.2908 33.9496 41.0996V37.1637C34.3299 37.1379 35.3311 37.0992 36.9918 36.6996C38.7385 36.2807 40.7537 35.5309 42.148 34.1902C43.624 36.1346 45.5318 36.8887 46.0496 37.0605V41.0996C46.0475 41.2908 46.1463 41.467 46.3053 41.568C46.4664 41.6711 46.6684 41.6818 46.8402 41.598L47.6996 41.1684V42.9902C47.6115 43.0096 47.517 43.0246 47.4246 43.0246L47.098 43.0762L46.9777 43.4027C46.4277 44.8336 45.8777 46.0539 45.3277 47.098C45.9873 46.9885 46.6061 46.7156 47.0465 46.2215C47.3773 45.5061 47.648 44.7842 47.923 44.1246C48.0326 44.0967 48.14 44.0516 48.2496 44.0043V44.3996C48.2496 46.2537 46.8037 47.6996 44.9496 47.6996H42.6465C42.4166 47.0637 41.8107 46.5996 41.0996 46.5996H39.9996C39.0951 46.5996 38.3496 47.3451 38.3496 48.2496C38.3496 49.1541 39.0951 49.8996 39.9996 49.8996H41.0996C41.8107 49.8996 42.4166 49.4355 42.6465 48.7996H44.9496C47.3859 48.7996 49.3496 46.8359 49.3496 44.3996V43.8496C50.2541 43.8496 50.9996 43.1041 50.9996 42.1996V39.9996C50.9996 39.0951 50.2541 38.3496 49.3496 38.3496V36.1496C49.1305 31.3092 46.4385 28.5592 41.873 28.4496L40.773 27.3496H40.5496ZM40.3262 28.4496L41.4262 29.5496H41.6496C47.1496 29.5496 48.14 33.6746 48.2496 36.1496V38.3496C48.2324 38.3496 48.2152 38.3496 48.198 38.3496C47.9145 38.3754 47.6975 38.6139 47.6996 38.8996V39.9309L47.1496 40.2059V36.6996C47.1518 36.4525 46.9906 36.2355 46.7543 36.1668C46.7543 36.1668 44.0129 35.3053 42.6637 33.1074C42.5541 32.9313 42.3543 32.8324 42.148 32.8496C41.9998 32.8646 41.8623 32.9377 41.7699 33.0559C40.6742 34.3707 38.5881 35.1936 36.7512 35.634C34.9143 36.0744 33.3652 36.1496 33.3652 36.1496C33.0752 36.1668 32.8496 36.4096 32.8496 36.6996V40.223L31.698 39.673V36.1496C32.0289 30.5938 36.3107 28.5055 40.3262 28.4496ZM48.7996 39.4496H49.3496C49.6547 39.4496 49.8996 39.6945 49.8996 39.9996V42.1996C49.8996 42.5047 49.6547 42.7496 49.3496 42.7496H48.9027C48.8684 42.741 48.834 42.7346 48.7996 42.7324V40.3434C48.8082 40.2854 48.8082 40.2295 48.7996 40.1715V39.4496ZM39.9996 47.6996H41.0996C41.4047 47.6996 41.6496 47.9445 41.6496 48.2496C41.6496 48.5547 41.4047 48.7996 41.0996 48.7996H39.9996C39.6945 48.7996 39.4496 48.5547 39.4496 48.2496C39.4496 47.9445 39.6945 47.6996 39.9996 47.6996Z" fill="black"/>
</svg>
