<svg width="80" height="80" viewBox="0 0 80 80" fill="none" xmlns="http://www.w3.org/2000/svg">
<path d="M32.25 5.05181C37.0457 2.28301 42.9543 2.28301 47.75 5.05181L66.391 15.8142C71.1867 18.583 74.141 23.7 74.141 29.2376V50.7624C74.141 56.3 71.1867 61.417 66.391 64.1858L47.75 74.9482C42.9543 77.717 37.0457 77.717 32.25 74.9482L13.609 64.1858C8.81327 61.417 5.85898 56.3 5.85898 50.7624V29.2376C5.85898 23.7 8.81327 18.583 13.609 15.8142L32.25 5.05181Z" stroke="#24BD53"/>
<path d="M48.0816 39.0697C48.0816 33.5911 42.3065 30 36.5408 30C30.7521 30 25 33.608 25 39.0697C25 41.136 25.905 43.1566 27.5483 44.7594C27.6112 44.8208 27.6353 44.9139 27.6111 45.0023C27.095 46.8932 25.8725 48.6013 25.3708 49.248C25.2148 49.4491 25.1891 49.7152 25.3039 49.9423C25.4161 50.1645 25.638 50.3005 25.8858 50.3005C25.8914 50.3005 25.897 50.3004 25.9026 50.3003C28.3573 50.2391 31.2026 49.5463 32.9613 47.8172C33.0228 47.7567 33.111 47.7328 33.1973 47.7534C34.2779 48.0097 35.4029 48.1396 36.5408 48.1396C42.3278 48.1395 48.0816 44.5329 48.0816 39.0697ZM33.4001 46.8981C33.018 46.8073 32.6235 46.9167 32.3451 47.1904C30.5863 48.9196 27.7144 49.3127 26.3548 49.4001C26.9758 48.5428 27.9856 46.9683 28.459 45.2337C28.5672 44.8373 28.4534 44.4145 28.162 44.1302C26.6684 42.6735 25.8789 40.9236 25.8789 39.0697C25.8789 34.5533 30.6618 30.8789 36.5408 30.8789C42.4198 30.8789 47.2027 34.5533 47.2027 39.0697C47.2027 43.5862 42.4198 47.2605 36.5408 47.2605C35.4711 47.2605 34.4144 47.1386 33.4001 46.8981Z" fill="black"/>
<path d="M50.9087 46.371C53.4709 45.0761 55.0006 42.8692 55.0006 40.4674C55.0006 37.073 51.9322 34.1726 47.7046 33.5708C47.4647 33.5367 47.2418 33.7037 47.2077 33.944C47.1734 34.1842 47.3405 34.4067 47.5808 34.4409C51.3709 34.9805 54.1217 37.5149 54.1217 40.4674C54.1217 42.5306 52.7724 44.4444 50.5122 45.5866C50.0728 45.8087 49.8373 46.2997 49.9396 46.7808C50.1539 47.7877 50.6101 48.7201 50.9749 49.3521C48.3798 48.9202 47.3962 47.6749 47.0851 47.136C46.8931 46.8033 46.5341 46.597 46.1466 46.597C46.1454 46.597 46.1443 46.597 46.1432 46.597L46.111 46.5971C45.6236 46.5971 45.1357 46.5633 44.6608 46.4965C44.4211 46.4629 44.1982 46.6303 44.1645 46.8706C44.1307 47.111 44.2982 47.3332 44.5385 47.3669C45.0538 47.4393 45.5829 47.4759 46.111 47.4759L46.1467 47.4759H46.1473C46.2209 47.4759 46.2884 47.5139 46.3238 47.5753C47.514 49.6379 50.2501 50.1646 51.3712 50.2952C51.6188 50.3241 51.8547 50.2109 51.9868 49.9993C52.1186 49.7882 52.1169 49.5269 51.9824 49.3173C51.6447 48.7914 51.0421 47.7388 50.7993 46.5979C50.7799 46.5067 50.8249 46.4133 50.9087 46.371Z" fill="black"/>
<path d="M29.7027 37.498C28.8629 37.498 28.1797 38.1813 28.1797 39.0211C28.1797 39.8608 28.8629 40.5441 29.7027 40.5441C30.5425 40.5441 31.2257 39.8608 31.2257 39.0211C31.2257 38.1813 30.5425 37.498 29.7027 37.498ZM29.7027 39.6653C29.3475 39.6653 29.0586 39.3763 29.0586 39.0211C29.0586 38.666 29.3476 38.377 29.7027 38.377C30.0579 38.377 30.3468 38.666 30.3468 39.0211C30.3468 39.3763 30.0579 39.6653 29.7027 39.6653Z" fill="black"/>
<path d="M34.0484 37.498C33.2086 37.498 32.5254 38.1813 32.5254 39.0211C32.5254 39.8608 33.2086 40.5441 34.0484 40.5441C34.8882 40.5441 35.5714 39.8608 35.5714 39.0211C35.5714 38.1813 34.8882 37.498 34.0484 37.498ZM34.0484 39.6653C33.6932 39.6653 33.4043 39.3763 33.4043 39.0211C33.4043 38.666 33.6933 38.377 34.0484 38.377C34.4036 38.377 34.6925 38.666 34.6925 39.0211C34.6925 39.3763 34.4036 39.6653 34.0484 39.6653Z" fill="black"/>
<path d="M38.3922 37.498C37.5523 37.498 36.8691 38.1813 36.8691 39.0211C36.8691 39.8608 37.5523 40.5441 38.3922 40.5441C39.232 40.5441 39.9152 39.8608 39.9152 39.0211C39.9152 38.1813 39.232 37.498 38.3922 37.498ZM38.3922 39.6653C38.037 39.6653 37.748 39.3763 37.748 39.0211C37.748 38.666 38.037 38.377 38.3922 38.377C38.7473 38.377 39.0363 38.666 39.0363 39.0211C39.0363 39.3763 38.7474 39.6653 38.3922 39.6653Z" fill="black"/>
<path d="M42.7359 37.498C41.8961 37.498 41.2129 38.1813 41.2129 39.0211C41.2129 39.8608 41.8961 40.5441 42.7359 40.5441C43.5757 40.5441 44.2589 39.8608 44.2589 39.0211C44.2589 38.1813 43.5757 37.498 42.7359 37.498ZM42.7359 39.6653C42.3807 39.6653 42.0918 39.3763 42.0918 39.0211C42.0918 38.666 42.3808 38.377 42.7359 38.377C43.0911 38.377 43.38 38.666 43.38 39.0211C43.38 39.3763 43.0911 39.6653 42.7359 39.6653Z" fill="black"/>
</svg>
