<svg width="80" height="80" viewBox="0 0 80 80" fill="none" xmlns="http://www.w3.org/2000/svg">
<path d="M32.25 5.05181C37.0457 2.28301 42.9543 2.28301 47.75 5.05181L66.391 15.8142C71.1867 18.583 74.141 23.7 74.141 29.2376V50.7624C74.141 56.3 71.1867 61.417 66.391 64.1858L47.75 74.9482C42.9543 77.717 37.0457 77.717 32.25 74.9482L13.609 64.1858C8.81327 61.417 5.85898 56.3 5.85898 50.7624V29.2376C5.85898 23.7 8.81327 18.583 13.609 15.8142L32.25 5.05181Z" stroke="#24BD53"/>
<path d="M56 42.9993C56 42.198 55.6813 41.4513 55.132 40.9006C55.7547 40.2193 56.072 39.306 55.9853 38.3553C55.8293 36.6606 54.3026 35.3326 52.508 35.3326H44.272C44.68 34.094 45.3333 31.8233 45.3333 29.9993C45.3333 27.1073 42.876 24.666 41.3333 24.666C39.9493 24.666 38.9586 25.446 38.9173 25.478C38.7586 25.6047 38.6666 25.7967 38.6666 25.9993V30.5206L34.8253 38.8393L34.6666 38.9206V38.666C34.6666 38.298 34.3679 37.9993 33.9999 37.9993H27.3333C25.4947 37.9993 24 39.494 24 41.3326V51.9993C24 53.838 25.4947 55.3326 27.3333 55.3326H31.3333C32.7746 55.3326 34.0066 54.4126 34.4706 53.1286C35.58 53.6993 37.0733 53.9993 38 53.9993H50.2387C51.6907 53.9993 52.9614 53.0206 53.26 51.6713C53.4133 50.9753 53.324 50.2753 53.02 49.6673C54.004 49.1726 54.6667 48.1553 54.6667 46.9993C54.6667 46.5273 54.5587 46.0753 54.3547 45.6673C55.3387 45.1713 56 44.1553 56 42.9993ZM53.188 44.6446C52.9307 44.6753 52.7133 44.85 52.6307 45.0966C52.5494 45.3433 52.6174 45.614 52.8067 45.7926C53.1454 46.1113 53.3334 46.5406 53.3334 46.9993C53.3334 47.8406 52.6974 48.5473 51.8561 48.6446C51.5987 48.6753 51.3814 48.85 51.2987 49.0966C51.2174 49.3433 51.2854 49.614 51.4748 49.7926C51.9134 50.206 52.0894 50.786 51.9574 51.3833C51.7934 52.1273 51.0708 52.666 50.2388 52.666H38C36.9173 52.666 35.1013 52.158 34.472 51.5273C34.2813 51.338 33.9933 51.282 33.7453 51.3833C33.496 51.486 33.3333 51.73 33.3333 51.9993C33.3333 53.102 32.436 53.9993 31.3333 53.9993H27.3333C26.2306 53.9993 25.3333 53.102 25.3333 51.9993V41.3326C25.3333 40.23 26.2306 39.3326 27.3333 39.3326H33.3333V39.9993C33.3333 40.23 33.4533 40.4446 33.6506 40.5673C33.8453 40.6846 34.0906 40.6966 34.2986 40.5953L35.6319 39.9286C35.7666 39.862 35.8746 39.75 35.9386 39.6126L39.9386 30.946C39.9786 30.858 39.9999 30.762 39.9999 30.666V26.3606C40.2773 26.2073 40.7587 25.9993 41.3333 25.9993C42.064 25.9993 44 27.8153 44 29.9993C44 32.346 42.7227 35.7286 42.7107 35.762C42.6334 35.966 42.66 36.1967 42.784 36.378C42.9093 36.558 43.1147 36.666 43.3333 36.666H52.508C53.62 36.666 54.564 37.462 54.6573 38.478C54.728 39.238 54.3626 39.9607 53.708 40.3647C53.504 40.49 53.3827 40.7167 53.392 40.958C53.4013 41.1993 53.54 41.4153 53.7533 41.526C54.3173 41.8127 54.6666 42.378 54.6666 42.9993C54.6667 43.8406 54.0307 44.5473 53.188 44.6446Z" fill="black"/>
<path d="M34.0026 39.334C33.6346 39.334 33.3359 39.6327 33.3359 40.0007V52.0007C33.3359 52.3687 33.6346 52.6674 34.0026 52.6674C34.3706 52.6674 34.6693 52.3687 34.6693 52.0007V40.0007C34.6693 39.6327 34.3706 39.334 34.0026 39.334Z" fill="black"/>
</svg>
