<svg width="80" height="80" viewBox="0 0 80 80" fill="none" xmlns="http://www.w3.org/2000/svg">
<path d="M32.25 5.05181C37.0457 2.28301 42.9543 2.28301 47.75 5.05181L66.391 15.8142C71.1867 18.583 74.141 23.7 74.141 29.2376V50.7624C74.141 56.3 71.1867 61.417 66.391 64.1858L47.75 74.9482C42.9543 77.717 37.0457 77.717 32.25 74.9482L13.609 64.1858C8.81327 61.417 5.85898 56.3 5.85898 50.7624V29.2376C5.85898 23.7 8.81327 18.583 13.609 15.8142L32.25 5.05181Z" stroke="#24BD53"/>
<path d="M40.0008 46.0536C37.3774 46.0507 34.8623 45.0072 33.0072 43.1522C31.1521 41.2972 30.1086 38.7821 30.1055 36.1587V25.7293C30.1055 25.6146 30.151 25.5046 30.2321 25.4235C30.3132 25.3424 30.4232 25.2969 30.5379 25.2969H49.4637C49.5784 25.2969 49.6884 25.3424 49.7695 25.4235C49.8506 25.5046 49.8962 25.6146 49.8962 25.7293V36.1587C49.8931 38.7821 48.8495 41.2972 46.9945 43.1522C45.1394 45.0072 42.6242 46.0507 40.0008 46.0536ZM30.9703 26.1617V36.1587C30.9703 38.5537 31.9218 40.8507 33.6153 42.5442C35.3088 44.2378 37.6058 45.1892 40.0008 45.1892C42.3959 45.1892 44.6928 44.2378 46.3863 42.5442C48.0799 40.8507 49.0313 38.5537 49.0313 36.1587V26.1617H30.9703Z" fill="black"/>
<path d="M42.5943 50.811H37.4051C37.2904 50.811 37.1804 50.7655 37.0993 50.6844C37.0182 50.6033 36.9727 50.4933 36.9727 50.3786V45.2586C36.9727 45.1439 37.0182 45.0339 37.0993 44.9528C37.1804 44.8717 37.2904 44.8262 37.4051 44.8262C37.5198 44.8262 37.6298 44.8717 37.7109 44.9528C37.792 45.0339 37.8375 45.1439 37.8375 45.2586V49.9462H42.1618V45.2586C42.1618 45.1439 42.2074 45.0339 42.2885 44.9528C42.3696 44.8717 42.4796 44.8262 42.5943 44.8262C42.709 44.8262 42.819 44.8717 42.9001 44.9528C42.9812 45.0339 43.0267 45.1439 43.0267 45.2586V50.3786C43.0267 50.4933 42.9812 50.6033 42.9001 50.6844C42.819 50.7655 42.709 50.811 42.5943 50.811Z" fill="black"/>
<path d="M46.4871 54.7031H33.5141C33.4448 54.703 33.3766 54.6863 33.3152 54.6544C33.2537 54.6225 33.2008 54.5763 33.1609 54.5196C33.121 54.463 33.0953 54.3977 33.086 54.329C33.0766 54.2604 33.0839 54.1906 33.1072 54.1253L34.497 50.2334C34.527 50.1495 34.5821 50.0768 34.655 50.0254C34.7278 49.974 34.8148 49.9464 34.9039 49.9463H45.0972C45.1864 49.9464 45.2733 49.974 45.3462 50.0254C45.419 50.0768 45.4742 50.1495 45.5041 50.2334L46.894 54.1253C46.9173 54.1906 46.9245 54.2604 46.9152 54.329C46.9058 54.3977 46.8801 54.463 46.8402 54.5196C46.8004 54.5763 46.7475 54.6225 46.686 54.6544C46.6245 54.6863 46.5563 54.703 46.4871 54.7031ZM34.1277 53.8382H45.8734L44.7924 50.8112H35.2088L34.1277 53.8382Z" fill="black"/>
<path d="M40.2375 39.5578C40.1228 39.5578 40.0128 39.5123 39.9317 39.4312C39.8506 39.3501 39.8051 39.2401 39.8051 39.1254V33.2685L37.9534 35.1202C37.9132 35.1604 37.8654 35.1922 37.8129 35.2139C37.7603 35.2356 37.7041 35.2467 37.6472 35.2467C37.5904 35.2466 37.5341 35.2354 37.4816 35.2135C37.4291 35.1917 37.3814 35.1598 37.3413 35.1196C37.3011 35.0793 37.2693 35.0316 37.2476 34.9791C37.2259 34.9265 37.2148 34.8702 37.2148 34.8134C37.2149 34.7565 37.2262 34.7003 37.248 34.6478C37.2698 34.5953 37.3017 34.5476 37.3419 34.5075L39.9318 31.9176C39.9923 31.8572 40.0693 31.816 40.1532 31.7993C40.237 31.7826 40.324 31.7912 40.403 31.8239C40.482 31.8566 40.5495 31.9121 40.597 31.9832C40.6446 32.0543 40.6699 32.1378 40.6699 32.2234V39.1254C40.6699 39.2401 40.6244 39.3501 40.5433 39.4312C40.4622 39.5123 40.3522 39.5578 40.2375 39.5578Z" fill="black"/>
<path d="M42.3526 39.5592H38.1238C38.0092 39.5592 37.8992 39.5136 37.8181 39.4325C37.737 39.3514 37.6914 39.2415 37.6914 39.1268C37.6914 39.0121 37.737 38.9021 37.8181 38.821C37.8992 38.7399 38.0092 38.6943 38.1238 38.6943H42.3526C42.4673 38.6943 42.5773 38.7399 42.6584 38.821C42.7395 38.9021 42.785 39.0121 42.785 39.1268C42.785 39.2415 42.7395 39.3514 42.6584 39.4325C42.5773 39.5136 42.4673 39.5592 42.3526 39.5592Z" fill="black"/>
<path d="M51.0808 37.8371H49.3641C49.2494 37.8371 49.1394 37.7916 49.0583 37.7105C48.9772 37.6294 48.9316 37.5194 48.9316 37.4047C48.9316 37.29 48.9772 37.18 49.0583 37.0989C49.1394 37.0178 49.2494 36.9723 49.3641 36.9723H51.0808C51.8117 36.9715 52.5125 36.6808 53.0293 36.1639C53.5461 35.6471 53.8368 34.9464 53.8376 34.2155V30.0533H49.4627C49.348 30.0533 49.238 30.0078 49.1569 29.9267C49.0758 29.8456 49.0302 29.7356 49.0302 29.6209C49.0302 29.5062 49.0758 29.3962 49.1569 29.3151C49.238 29.234 49.348 29.1885 49.4627 29.1885H54.27C54.3847 29.1885 54.4947 29.234 54.5758 29.3151C54.6569 29.3962 54.7025 29.5062 54.7025 29.6209V34.2155C54.7014 35.1757 54.3195 36.0963 53.6406 36.7752C52.9616 37.4542 52.041 37.8361 51.0808 37.8371Z" fill="black"/>
<path d="M30.6372 37.8371H28.9204C27.9603 37.8361 27.0397 37.4542 26.3607 36.7752C25.6818 36.0963 25.2999 35.1757 25.2988 34.2155V29.6209C25.2988 29.5062 25.3444 29.3962 25.4255 29.3151C25.5066 29.234 25.6166 29.1885 25.7313 29.1885H30.5386C30.6533 29.1885 30.7633 29.234 30.8444 29.3151C30.9255 29.3962 30.971 29.5062 30.971 29.6209C30.971 29.7356 30.9255 29.8456 30.8444 29.9267C30.7633 30.0078 30.6533 30.0533 30.5386 30.0533H26.1637V34.2155C26.1645 34.9464 26.4552 35.6471 26.972 36.1639C27.4888 36.6808 28.1896 36.9715 28.9204 36.9723H30.6372C30.7519 36.9723 30.8619 37.0178 30.943 37.0989C31.0241 37.18 31.0696 37.29 31.0696 37.4047C31.0696 37.5194 31.0241 37.6294 30.943 37.7105C30.8619 37.7916 30.7519 37.8371 30.6372 37.8371Z" fill="black"/>
</svg>
