<svg width="80" height="80" viewBox="0 0 80 80" fill="none" xmlns="http://www.w3.org/2000/svg">
<path d="M33 6.35085C37.3316 3.84999 42.6684 3.84999 47 6.35085L65.641 17.1132C69.9726 19.6141 72.641 24.2359 72.641 29.2376V50.7624C72.641 55.7641 69.9726 60.3859 65.641 62.8868L47 73.6492C42.6684 76.15 37.3316 76.15 33 73.6491L14.359 62.8868C10.0274 60.3859 7.35898 55.7641 7.35898 50.7624V29.2376C7.35898 24.2359 10.0274 19.6141 14.359 17.1132L33 6.35085Z" stroke="#EB5757" stroke-width="4"/>
<path d="M42.8438 50.1562H37.625L37.2188 17.5H43.2812L42.8438 50.1562ZM37 60.0938C37 59.1562 37.2812 58.375 37.8438 57.75C38.4271 57.1042 39.2812 56.7812 40.4062 56.7812C41.5312 56.7812 42.3854 57.1042 42.9688 57.75C43.5521 58.375 43.8438 59.1562 43.8438 60.0938C43.8438 61.0312 43.5521 61.8125 42.9688 62.4375C42.3854 63.0417 41.5312 63.3438 40.4062 63.3438C39.2812 63.3438 38.4271 63.0417 37.8438 62.4375C37.2812 61.8125 37 61.0312 37 60.0938Z" fill="black"/>
</svg>
