<?xml version="1.0" encoding="utf-8"?>
<!-- Generator: Adobe Illustrator 24.2.1, SVG Export Plug-In . SVG Version: 6.00 Build 0)  -->
<svg version="1.1" id="Layer_1" xmlns="http://www.w3.org/2000/svg" xmlns:xlink="http://www.w3.org/1999/xlink" x="0px" y="0px"
	 viewBox="0 0 179 40" style="enable-background:new 0 0 179 40;" xml:space="preserve">
<style type="text/css">
	.st0{fill-rule:evenodd;clip-rule:evenodd;fill:#25265E;}
	.st1{fill:#FFFFFF;filter:url(#Adobe_OpacityMaskFilter);}
	.st2{fill-rule:evenodd;clip-rule:evenodd;}
	.st3{mask:url(#a_1_);fill:#FFFFFF;}
	.st4{fill:#FFFFFF;filter:url(#Adobe_OpacityMaskFilter_1_);}
	.st5{mask:url(#b_1_);fill:#FFFFFF;}
	.st6{fill:#FFFFFF;filter:url(#Adobe_OpacityMaskFilter_2_);}
	.st7{mask:url(#c_1_);fill:#FFFFFF;}
	.st8{fill:#FFFFFF;filter:url(#Adobe_OpacityMaskFilter_3_);}
	.st9{mask:url(#d_1_);fill:#FFFFFF;}
	.st10{fill:#25265E;stroke:#FFFFFF;stroke-width:0.2;}
	.st11{fill:#25265E;}
	.st12{fill-rule:evenodd;clip-rule:evenodd;fill:#FFFFFF;}
	.st13{fill:#FFFFFF;filter:url(#Adobe_OpacityMaskFilter_4_);}
	.st14{mask:url(#e_1_);fill:#FFFFFF;}
	.st15{fill:#FFFFFF;filter:url(#Adobe_OpacityMaskFilter_5_);}
	.st16{mask:url(#f_1_);fill:#25265E;}
	.st17{fill:#FFFFFF;filter:url(#Adobe_OpacityMaskFilter_6_);}
	.st18{mask:url(#g_1_);fill:#FFFFFF;}
	.st19{fill:#FFFFFF;filter:url(#Adobe_OpacityMaskFilter_7_);}
	.st20{mask:url(#h_1_);fill:#FFFFFF;}
</style>
<g>
	<path class="st0" d="M159.4,20c0-2.3,0.9-4.2,2.3-5.7s3.4-2.3,5.6-2.3c2.2,0,4.2,0.9,5.7,2.3c1.4,1.5,2.3,3.4,2.3,5.7
		s-0.9,4.2-2.3,5.7c-1.4,1.5-3.5,2.3-5.7,2.3c-2.2,0-4.2-0.9-5.6-2.3C160.3,24.2,159.4,22.3,159.4,20z M161.6,20c0,1.6,0.7,3,1.7,4
		c1,1,2.5,1.7,4,1.7c1.4,0,2.9-0.7,4-1.7c1-1,1.7-2.4,1.7-4c0-1.6-0.7-3-1.7-4c-1-1-2.5-1.7-4-1.7c-1.6,0-3,0.7-4,1.7
		C162.3,17,161.6,18.4,161.6,20L161.6,20z"/>
	<path class="st0" d="M120,19.9c-0.1,4.7,3.2,8,7.5,8c2.8,0,5.9-1.9,7-4.9c0.2-0.5,0.4-1.4,0.4-2.7h-8.3v2.2h5.7
		c-0.9,2.3-3,3.2-4.9,3.2c-3,0-5.4-2.4-5.4-5.7c0-3.3,2.3-5.7,5.4-5.7c2,0,4.4,0.9,5,3.4h2.4c-0.8-4.2-4.4-5.7-7.3-5.7
		C123.4,12,120,15.2,120,19.9z"/>
	<path class="st0" d="M146,14.3c-1.3,1.5-2.2,3.4-2.2,5.6s0.9,4.1,2.2,5.6c1.4,1.5,3.3,2.4,5.4,2.4c3.6,0,6.4-2.4,7.3-5.9h-2.2
		c-0.8,2.3-2.8,3.7-5.1,3.7c-1.5,0-2.8-0.7-3.8-1.7c-0.9-1-1.6-2.4-1.6-4c0-1.6,0.7-3,1.6-4c0.9-1,2.3-1.7,3.8-1.7
		c2.2,0,4.2,1.2,5,3.5h2.2c-0.9-3.5-3.7-5.8-7.2-5.8C149.3,12.1,147.4,13,146,14.3z"/>
	<path class="st0" d="M52,12.1v15.6l7.1,0.1c3,0,4.4-2.3,4.4-4.7c0-1.5-0.7-3.2-2.4-3.9c1.6-1.1,1.7-2.9,1.1-4.5
		c-0.6-1.5-1.8-2.6-3.8-2.6L52,12.1z M54.2,14.4h4.3c2.4,0,2.4,4-0.1,4h-4.2V14.4z M59.1,20.7h-4.8v4.9h4.8c1.5,0,2.2-1.2,2.2-2.4
		C61.3,22,60.6,20.7,59.1,20.7z"/>
	<path class="st0" d="M116.6,12.2v10.9L109,12.2h-1.7v15.6l2.2-0.1V16.8l7.5,10.9h1.8V12.2H116.6z"/>
	<path class="st0" d="M86,12.2v2.3h4.6v13.4l2.3-0.1V14.5h4.6v-2.3L86,12.2z"/>
	<path class="st0" d="M74.2,12.2v2.3h4.6v13.4l2.3-0.1V14.5h4.6v-2.3L74.2,12.2z"/>
	<path class="st0" d="M98.2,12.3v2.2h2.9v11.1h-2.9v2.2h8v-2.2h-2.9V14.5h2.9v-2.2L98.2,12.3z"/>
	<path class="st0" d="M64.6,12.3v15.6l9.4-0.1v-2.2h-7.2v-4.4h7v-2.3h-7v-4.4H74v-2.2L64.6,12.3z"/>
	<path class="st0" d="M176.2,26.5c-0.1,0.7,0.5,1.4,1.3,1.4s1.4-0.7,1.4-1.4c0-0.8-0.6-1.4-1.4-1.4
		C176.8,25.1,176.2,25.7,176.2,26.5z"/>
	<path class="st0" d="M21.8,14.3c-0.5,0.4-1.1,0.6-1.8,0.8c-0.7,0.1-1.4,0.2-2.2,0.2h-5.4l1.2-8.8h6.2c1.6,0,2.7,0.4,3.3,1.3
		c0.6,0.9,0.9,1.9,0.7,3.1c-0.1,0.8-0.4,1.5-0.7,2.1C22.8,13.5,22.3,14,21.8,14.3z M23.3,24.1c-0.1,1.1-0.5,1.9-1,2.6
		c-0.5,0.6-1.1,1.1-1.8,1.5c-0.7,0.4-1.4,0.6-2.2,0.8c-0.8,0.1-1.4,0.2-2,0.2h-5.8l1.5-10.3h5.9c1.9,0,3.4,0.4,4.4,1.3
		C23.2,21.1,23.6,22.4,23.3,24.1z M26.2,14.6c1.1-1.1,1.7-2.5,1.9-4.2c0.2-1.3,0.1-2.4-0.2-3.3c-0.3-0.9-0.8-1.7-1.5-2.3
		c-0.7-0.6-1.6-1.1-2.6-1.4c-1-0.3-2.2-0.5-3.5-0.5H10.1L6,32.7h10.1c1.4,0,2.8-0.2,4.1-0.6c1.3-0.4,2.5-0.9,3.5-1.6
		c0.3-0.2,0.6-0.4,0.9-0.7c0.3-0.2,0.5-0.5,0.8-0.7c0,0,0,0,0,0c0.3-0.4,0.6-0.7,0.9-1.1c0.3-0.5,0.6-1,0.8-1.5
		c0.2-0.4,0.3-0.8,0.4-1.3c0,0,0-0.1,0-0.1c0-0.2,0.1-0.4,0.1-0.6c0.1-0.4,0.1-0.8,0.1-1.3c-0.3,0-0.6-0.1-0.9-0.1
		c-0.3-0.1-0.5-0.2-0.7-0.3c-0.5-0.3-0.7-0.6-0.7-1.1c0-0.5,0.2-0.9,0.7-1.2c0,0,0.1-0.1,0.1-0.1c0.2-0.1,0.4-0.2,0.7-0.2
		c-0.1-0.3-0.3-0.6-0.5-0.8c0,0-0.1-0.1-0.1-0.1c-0.1-0.2-0.3-0.3-0.4-0.5c-0.4-0.4-0.8-0.7-1.3-1c-0.7-0.4-1.5-0.6-2.4-0.7V17
		C23.8,16.5,25.1,15.7,26.2,14.6z M27.4,21.6c0-0.1-0.1-0.2-0.1-0.3h-0.1c0,0.3,0.1,0.5,0.2,0.7C27.5,21.9,27.5,21.7,27.4,21.6z"/>
	<path class="st0" d="M25.9,26.4c-0.1,0-0.2,0-0.2,0.1c-0.3,0.3-0.5,0.6-0.7,0.9c-0.2,0.4-0.4,1-0.4,1.6c0,1,0.3,1.9,1,2.6
		c0.6,0.7,1.4,1,2.5,1c0.5,0,1-0.1,1.5-0.3c0.4-0.2,0.8-0.5,1.1-0.9c0.2-0.3,0.4-0.7,0.6-1c0.1-0.4,0.2-0.8,0.2-1.2
		c0-0.7-0.1-1.3-0.4-1.8c-0.2-0.3-0.5-0.7-0.9-1c-0.1-0.1-0.3,0-0.4,0.1c-0.1,0.2,0,0.4,0.1,0.5c0.3,0.2,0.5,0.4,0.7,0.6
		c0.3,0.3,0.4,0.7,0.4,1.1c0,0.6-0.3,1.2-0.8,1.6c-0.5,0.4-1.2,0.6-2,0.6c-0.9,0-1.6-0.2-2.1-0.5c-0.5-0.4-0.8-0.9-0.8-1.5
		c0-0.4,0.1-0.8,0.4-1.1c0.2-0.2,0.3-0.4,0.6-0.6c0.1-0.1,0.1-0.1,0.1-0.2c0-0.1,0-0.2-0.1-0.2l0,0C26.1,26.4,26,26.4,25.9,26.4
		C25.9,26.4,25.9,26.4,25.9,26.4z M28,32.7c-1.1,0-2-0.4-2.7-1.1c-0.7-0.7-1.1-1.7-1.1-2.8c0-0.7,0.1-1.2,0.4-1.7
		c0.2-0.3,0.4-0.7,0.8-1c0.1-0.1,0.3-0.2,0.5-0.1c0.2,0,0.3,0.1,0.4,0.3l0,0c0.1,0.1,0.1,0.3,0.1,0.4c0,0.2-0.1,0.3-0.3,0.5
		c-0.2,0.2-0.4,0.3-0.5,0.5c-0.2,0.3-0.3,0.6-0.3,0.9c0,0.5,0.2,1,0.6,1.2c0.5,0.3,1.1,0.5,1.9,0.5c0.8,0,1.4-0.2,1.8-0.5
		c0.4-0.3,0.7-0.8,0.7-1.3c0-0.4-0.1-0.7-0.3-0.9c-0.2-0.2-0.4-0.4-0.6-0.5l0,0c-0.3-0.2-0.3-0.6-0.1-0.9l0,0
		c0.2-0.3,0.6-0.4,0.8-0.2c0.5,0.3,0.8,0.7,1,1.1c0.3,0.5,0.5,1.2,0.5,1.9c0,0.5-0.1,1-0.2,1.3c-0.2,0.4-0.4,0.8-0.6,1.1
		c-0.3,0.4-0.8,0.8-1.3,1C29.1,32.6,28.6,32.7,28,32.7z"/>
</g>
<defs>
	<filter id="Adobe_OpacityMaskFilter" filterUnits="userSpaceOnUse" x="24.1" y="25.7" width="7.8" height="7.3">
		<feColorMatrix  type="matrix" values="1 0 0 0 0  0 1 0 0 0  0 0 1 0 0  0 0 0 1 0"/>
	</filter>
</defs>
<mask maskUnits="userSpaceOnUse" x="24.1" y="25.7" width="7.8" height="7.3" id="a_1_">
	<path class="st1" d="M23.3,24.9h9v9h-9L23.3,24.9z"/>
	<path class="st2" d="M25.9,26.4c-0.1,0-0.2,0-0.2,0.1c-0.3,0.3-0.5,0.6-0.7,0.9c-0.2,0.4-0.4,1-0.4,1.6c0,1,0.3,1.9,1,2.6
		c0.6,0.7,1.4,1,2.5,1c0.5,0,1-0.1,1.5-0.3c0.4-0.2,0.8-0.5,1.1-0.9c0.2-0.3,0.4-0.7,0.6-1c0.1-0.4,0.2-0.8,0.2-1.2
		c0-0.7-0.1-1.3-0.4-1.8c-0.2-0.3-0.5-0.7-0.9-1c-0.1-0.1-0.3,0-0.4,0.1c-0.1,0.2,0,0.4,0.1,0.5c0.3,0.2,0.5,0.4,0.7,0.6
		c0.3,0.3,0.4,0.7,0.4,1.1c0,0.6-0.3,1.2-0.8,1.6c-0.5,0.4-1.2,0.6-2,0.6c-0.9,0-1.6-0.2-2.1-0.5c-0.5-0.4-0.8-0.9-0.8-1.5
		c0-0.4,0.1-0.8,0.4-1.1c0.2-0.2,0.3-0.4,0.6-0.6c0.1-0.1,0.1-0.1,0.1-0.2c0-0.1,0-0.2-0.1-0.2l0,0C26.1,26.4,26,26.4,25.9,26.4
		C25.9,26.4,25.9,26.4,25.9,26.4z M28,32.7c-1.1,0-2-0.4-2.7-1.1c-0.7-0.7-1.1-1.7-1.1-2.8c0-0.7,0.1-1.2,0.4-1.7
		c0.2-0.3,0.4-0.7,0.8-1c0.1-0.1,0.3-0.2,0.5-0.1c0.2,0,0.3,0.1,0.4,0.3l0,0c0.1,0.1,0.1,0.3,0.1,0.4c0,0.2-0.1,0.3-0.3,0.5
		c-0.2,0.2-0.4,0.3-0.5,0.5c-0.2,0.3-0.3,0.6-0.3,0.9c0,0.5,0.2,1,0.6,1.2c0.5,0.3,1.1,0.5,1.9,0.5c0.8,0,1.4-0.2,1.8-0.5
		c0.4-0.3,0.7-0.8,0.7-1.3c0-0.4-0.1-0.7-0.3-0.9c-0.2-0.2-0.4-0.4-0.6-0.5l0,0c-0.3-0.2-0.3-0.6-0.1-0.9l0,0
		c0.2-0.3,0.6-0.4,0.8-0.2c0.5,0.3,0.8,0.7,1,1.1c0.3,0.5,0.5,1.2,0.5,1.9c0,0.5-0.1,1-0.2,1.3c-0.2,0.4-0.4,0.8-0.6,1.1
		c-0.3,0.4-0.8,0.8-1.3,1C29.1,32.6,28.6,32.7,28,32.7z"/>
</mask>
<path class="st3" d="M25.7,26.4l0.1,0.2L25.7,26.4z M25,27.3l0.2,0.1l0,0L25,27.3z M25.6,31.4l-0.1,0.1l0,0L25.6,31.4z M29.5,32.1
	l0.1,0.2L29.5,32.1z M30.6,31.2l0.2,0.1l0,0L30.6,31.2z M31.2,30.2l0.2,0.1l0,0L31.2,30.2z M30.9,27.2l-0.2,0.1l0,0L30.9,27.2z
	 M30,26.2l0.1-0.2l0,0l0,0L30,26.2z M29.6,26.3l-0.2-0.1l0,0L29.6,26.3z M29.7,26.8L29.5,27l0,0l0,0L29.7,26.8z M30.4,27.4l-0.2,0.1
	l0,0L30.4,27.4z M30,30.1l0.1,0.2l0,0L30,30.1z M25.9,30.2l-0.1,0.2l0,0L25.9,30.2z M25.5,27.6l-0.2-0.1l0,0L25.5,27.6z M26.1,27
	l0.1,0.2l0,0L26.1,27z M26.2,26.8l-0.2,0l0,0L26.2,26.8z M26.1,26.5L26,26.6l0,0l0,0L26.1,26.5z M26.1,26.5l0.2-0.1l0,0l0,0
	L26.1,26.5z M25.9,26.4l0,0.2l0,0L25.9,26.4z M25.4,31.7l-0.1,0.1l0,0L25.4,31.7z M24.7,27.2l0.2,0.1l0,0L24.7,27.2z M25.5,26.2
	l-0.1-0.2l0,0L25.5,26.2z M25.9,26.1l0-0.2h0L25.9,26.1z M26.4,26.3l0.2-0.1l0,0l0,0L26.4,26.3z M26.4,26.4l-0.2,0.1l0,0l0,0
	L26.4,26.4z M26.5,26.8l-0.2,0v0L26.5,26.8z M26.2,27.3l0.1,0.2l0,0L26.2,27.3z M25.7,27.8l-0.2-0.1l0,0L25.7,27.8z M26.1,29.9
	l-0.1,0.2l0,0L26.1,29.9z M29.8,29.9l0.1,0.2v0L29.8,29.9z M30.1,27.6L30,27.7l0,0L30.1,27.6z M29.5,27.1l-0.1,0.2l0,0l0,0
	L29.5,27.1z M29.5,27l-0.1,0.2l0,0L29.5,27z M29.4,26.1L29.2,26l0,0L29.4,26.1z M29.4,26.1L29.2,26l0,0L29.4,26.1z M30.2,25.9
	l0.1-0.2l0,0l0,0L30.2,25.9z M31.2,27L31,27.1l0,0L31.2,27z M31.5,30.3l0.2,0.1l0,0L31.5,30.3z M30.9,31.4l0.2,0.1l0,0L30.9,31.4z
	 M29.6,32.4l0.1,0.2L29.6,32.4z M25.9,26.2c-0.1,0-0.2,0-0.3,0.1l0.3,0.3c0,0,0.1,0,0.1,0V26.2z M25.5,26.3
	c-0.3,0.3-0.6,0.6-0.7,0.9l0.4,0.2c0.1-0.3,0.4-0.5,0.7-0.8L25.5,26.3z M24.8,27.2c-0.3,0.5-0.4,1-0.4,1.7h0.4
	c0-0.6,0.1-1.1,0.3-1.5L24.8,27.2z M24.4,28.9c0,1.1,0.3,2,1,2.7l0.3-0.3c-0.6-0.7-0.9-1.4-0.9-2.4H24.4z M25.4,31.6
	c0.7,0.7,1.5,1,2.6,1v-0.4c-1,0-1.7-0.3-2.3-0.9L25.4,31.6z M28,32.6c0.6,0,1.1-0.1,1.5-0.3l-0.2-0.4c-0.4,0.2-0.9,0.3-1.4,0.3V32.6
	z M29.6,32.3c0.5-0.2,0.9-0.5,1.2-1l-0.3-0.2c-0.3,0.4-0.6,0.7-1.1,0.9L29.6,32.3z M30.8,31.3c0.2-0.3,0.4-0.7,0.6-1.1L31,30.1
	c-0.1,0.4-0.3,0.7-0.5,1L30.8,31.3z M31.4,30.2c0.1-0.4,0.2-0.8,0.2-1.3h-0.4c0,0.5-0.1,0.9-0.2,1.2L31.4,30.2z M31.6,28.9
	c0-0.7-0.2-1.3-0.5-1.9l-0.3,0.2c0.3,0.5,0.4,1,0.4,1.7H31.6z M31.1,27.1c-0.2-0.4-0.5-0.7-1-1l-0.2,0.3c0.4,0.3,0.7,0.6,0.8,0.9
	L31.1,27.1z M30.1,26C30,26,29.9,26,29.8,26c-0.1,0-0.2,0.1-0.3,0.2l0.3,0.2c0,0,0.1,0,0.1-0.1c0,0,0.1,0,0.1,0L30.1,26z M29.4,26.2
	c-0.1,0.1-0.1,0.3-0.1,0.4c0,0.1,0.1,0.3,0.2,0.3l0.3-0.3c0,0-0.1-0.1-0.1-0.1c0,0,0-0.1,0-0.1L29.4,26.2z M29.6,27
	c0.3,0.2,0.5,0.3,0.6,0.5l0.3-0.2c-0.2-0.2-0.4-0.5-0.7-0.6L29.6,27z M30.2,27.5c0.2,0.3,0.4,0.6,0.4,1H31c0-0.5-0.2-0.9-0.4-1.3
	L30.2,27.5z M30.6,28.5c0,0.6-0.2,1.1-0.7,1.4l0.2,0.3c0.6-0.4,0.9-1,0.9-1.7H30.6z M29.8,30c-0.5,0.4-1.1,0.5-1.9,0.5v0.4
	c0.9,0,1.6-0.2,2.1-0.6L29.8,30z M28,30.5c-0.9,0-1.5-0.2-2-0.5l-0.2,0.3c0.6,0.4,1.3,0.5,2.2,0.5L28,30.5z M26,30
	c-0.5-0.3-0.7-0.8-0.7-1.3h-0.4c0,0.7,0.3,1.3,0.9,1.7L26,30z M25.3,28.7c0-0.3,0.1-0.7,0.3-1l-0.3-0.2c-0.3,0.4-0.4,0.8-0.4,1.2
	L25.3,28.7z M25.6,27.7c0.1-0.2,0.3-0.3,0.5-0.5l-0.2-0.3c-0.3,0.2-0.5,0.4-0.6,0.6L25.6,27.7z M26.2,27.2c0.1-0.1,0.2-0.2,0.2-0.4
	L26,26.8c0,0.1,0,0.1-0.1,0.1L26.2,27.2z M26.4,26.8c0-0.1,0-0.3-0.1-0.4L26,26.7c0,0,0,0,0,0.1L26.4,26.8z M26.3,26.4L26.3,26.4
	l-0.4,0.2l0,0L26.3,26.4z M26.3,26.4c-0.1-0.1-0.2-0.2-0.4-0.2l-0.1,0.4c0,0,0.1,0,0.1,0L26.3,26.4z M25.9,26.2
	C25.9,26.2,25.9,26.2,25.9,26.2l-0.1,0.4c0,0,0,0,0,0L25.9,26.2z M28,32.5c-1,0-1.9-0.3-2.5-1l-0.3,0.3c0.7,0.8,1.7,1.1,2.8,1.1
	V32.5z M25.5,31.5c-0.7-0.7-1-1.6-1-2.6h-0.4c0,1.1,0.4,2.1,1.1,2.9L25.5,31.5z M24.5,28.9c0-0.6,0.1-1.2,0.4-1.6l-0.4-0.2
	c-0.3,0.5-0.4,1.1-0.4,1.8H24.5z M24.9,27.3c0.2-0.3,0.4-0.6,0.7-0.9l-0.3-0.3c-0.4,0.3-0.6,0.6-0.8,1L24.9,27.3z M25.6,26.4
	c0.1-0.1,0.2-0.1,0.3-0.1l0.1-0.4c-0.2,0-0.5,0-0.6,0.2L25.6,26.4z M25.9,26.3c0.1,0,0.2,0.1,0.3,0.2l0.3-0.2
	c-0.1-0.2-0.3-0.3-0.6-0.3L25.9,26.3z M26.2,26.4L26.2,26.4l0.4-0.2l0,0L26.2,26.4z M26.2,26.5c0.1,0.1,0.1,0.2,0.1,0.3l0.4,0.1
	c0-0.2,0-0.4-0.1-0.6L26.2,26.5z M26.3,26.8c0,0.1-0.1,0.2-0.2,0.3l0.2,0.3c0.2-0.1,0.3-0.4,0.3-0.6L26.3,26.8z M26.1,27.1
	c-0.3,0.2-0.4,0.3-0.6,0.5l0.3,0.2c0.1-0.2,0.2-0.3,0.5-0.4L26.1,27.1z M25.6,27.6c-0.2,0.3-0.3,0.7-0.3,1.1h0.4
	c0-0.3,0.1-0.6,0.3-0.8L25.6,27.6z M25.2,28.7c0,0.6,0.2,1.1,0.7,1.4l0.2-0.3c-0.4-0.3-0.6-0.6-0.6-1.1H25.2z M25.9,30.1
	c0.5,0.3,1.2,0.5,2,0.5v-0.4c-0.8,0-1.4-0.1-1.8-0.4L25.9,30.1z M28,30.6c0.8,0,1.4-0.2,1.9-0.6l-0.2-0.3c-0.4,0.3-1,0.5-1.7,0.5
	L28,30.6z M29.9,30c0.5-0.4,0.8-0.9,0.8-1.5h-0.4c0,0.5-0.2,0.9-0.6,1.2L29.9,30z M30.7,28.5c0-0.4-0.1-0.8-0.4-1.1L30,27.7
	c0.2,0.2,0.3,0.5,0.3,0.8H30.7z M30.3,27.5c-0.2-0.2-0.4-0.4-0.7-0.6l-0.2,0.3c0.2,0.1,0.4,0.3,0.6,0.5L30.3,27.5z M29.6,26.9
	L29.6,26.9l-0.3,0.3l0,0L29.6,26.9z M29.6,26.9c-0.2-0.2-0.2-0.5-0.1-0.6L29.2,26c-0.2,0.4-0.1,0.9,0.2,1.2L29.6,26.9z M29.5,26.3
	L29.5,26.3L29.2,26l0,0L29.5,26.3z M29.5,26.3c0.1-0.2,0.4-0.2,0.6-0.1l0.2-0.3c-0.4-0.2-0.9-0.1-1.1,0.2L29.5,26.3z M30.1,26.1
	c0.5,0.3,0.8,0.6,0.9,1l0.4-0.2c-0.2-0.4-0.6-0.8-1.1-1.1L30.1,26.1z M31,27.1c0.3,0.5,0.4,1.1,0.4,1.8h0.4c0-0.8-0.2-1.5-0.5-2
	L31,27.1z M31.5,28.9c0,0.5-0.1,0.9-0.2,1.3l0.4,0.1c0.1-0.4,0.2-0.9,0.2-1.4H31.5z M31.3,30.2c-0.1,0.4-0.3,0.7-0.6,1.1l0.3,0.2
	c0.3-0.4,0.5-0.7,0.6-1.2L31.3,30.2z M30.7,31.3c-0.3,0.4-0.7,0.7-1.2,0.9l0.2,0.4c0.5-0.2,1-0.6,1.3-1.1L30.7,31.3z M29.5,32.2
	c-0.5,0.2-0.9,0.3-1.5,0.3v0.4c0.6,0,1.1-0.1,1.7-0.3L29.5,32.2z"/>
<path class="st0" d="M29.5,26.2c0.1-0.2,0.4-0.3,0.6-0.1c0.4,0.3,0.7,0.6,0.9,1c0.3,0.5,0.5,1.2,0.5,1.9c0,0.5-0.1,0.9-0.2,1.3
	c-0.1,0.4-0.3,0.7-0.6,1.1c-0.3,0.4-0.7,0.7-1.2,1c-0.5,0.2-0.9,0.3-1.5,0.3c-1.1,0-1.9-0.3-2.6-1c-0.7-0.7-1-1.6-1-2.7
	c0-0.6,0.1-1.2,0.4-1.6c0.2-0.3,0.4-0.6,0.7-0.9c0.2-0.2,0.5-0.1,0.7,0.1l0,0c0.2,0.2,0.1,0.5-0.1,0.7c-0.2,0.2-0.4,0.3-0.5,0.5
	c-0.2,0.3-0.3,0.6-0.3,1c0,0.6,0.2,1,0.7,1.4c0.5,0.3,1.1,0.5,2,0.5c0.8,0,1.4-0.2,1.9-0.6c0.5-0.4,0.7-0.9,0.7-1.5
	c0-0.4-0.1-0.7-0.4-1c-0.2-0.2-0.4-0.4-0.6-0.6C29.4,26.8,29.3,26.5,29.5,26.2z"/>
<defs>
	<filter id="Adobe_OpacityMaskFilter_1_" filterUnits="userSpaceOnUse" x="24.3" y="25.8" width="7.5" height="7">
		<feColorMatrix  type="matrix" values="1 0 0 0 0  0 1 0 0 0  0 0 1 0 0  0 0 0 1 0"/>
	</filter>
</defs>
<mask maskUnits="userSpaceOnUse" x="24.3" y="25.8" width="7.5" height="7" id="b_1_">
	<path class="st4" d="M23.5,25h9v8h-9L23.5,25z"/>
	<path class="st2" d="M29.5,26.2c0.1-0.2,0.4-0.3,0.6-0.1c0.4,0.3,0.7,0.6,0.9,1c0.3,0.5,0.5,1.2,0.5,1.9c0,0.5-0.1,0.9-0.2,1.3
		c-0.1,0.4-0.3,0.7-0.6,1.1c-0.3,0.4-0.7,0.7-1.2,1c-0.5,0.2-0.9,0.3-1.5,0.3c-1.1,0-1.9-0.3-2.6-1c-0.7-0.7-1-1.6-1-2.7
		c0-0.6,0.1-1.2,0.4-1.6c0.2-0.3,0.4-0.6,0.7-0.9c0.2-0.2,0.5-0.1,0.7,0.1l0,0c0.2,0.2,0.1,0.5-0.1,0.7c-0.2,0.2-0.4,0.3-0.5,0.5
		c-0.2,0.3-0.3,0.6-0.3,1c0,0.6,0.2,1,0.7,1.4c0.5,0.3,1.1,0.5,2,0.5c0.8,0,1.4-0.2,1.9-0.6c0.5-0.4,0.7-0.9,0.7-1.5
		c0-0.4-0.1-0.7-0.4-1c-0.2-0.2-0.4-0.4-0.6-0.6C29.4,26.8,29.3,26.5,29.5,26.2z"/>
</mask>
<path class="st5" d="M30.1,26.1l0.1-0.2l0,0l0,0L30.1,26.1z M31.1,27.1l-0.2,0.1l0,0L31.1,27.1z M31.3,30.2l0.2,0.1l0,0L31.3,30.2z
	 M30.8,31.3l0.2,0.1l0,0L30.8,31.3z M29.6,32.3l0.1,0.2l0,0L29.6,32.3z M25.5,31.5l-0.1,0.1l0,0L25.5,31.5z M24.8,27.2l0.2,0.1l0,0
	L24.8,27.2z M25.6,26.3l0.1,0.2L25.6,26.3z M26.2,26.4l0.2-0.1l0,0l0,0L26.2,26.4z M26.3,26.5l-0.2,0.1l0,0l0,0L26.3,26.5z
	 M26.1,27.2l0.1,0.2l0,0L26.1,27.2z M25.6,27.7l-0.2-0.1l0,0L25.6,27.7z M26,30.1l-0.1,0.2l0,0L26,30.1z M29.9,30l0.1,0.2v0L29.9,30
	z M30.2,27.5l-0.2,0.1l0,0L30.2,27.5z M29.6,26.9l-0.1,0.2l0,0l0,0L29.6,26.9z M29.6,26.3c0.1-0.1,0.3-0.2,0.4-0.1l0.2-0.3
	c-0.3-0.2-0.7-0.1-0.9,0.2L29.6,26.3z M30,26.2c0.4,0.3,0.7,0.5,0.9,0.9l0.4-0.2c-0.2-0.5-0.6-0.8-1-1.1L30,26.2z M30.9,27.2
	c0.3,0.5,0.4,1.1,0.4,1.8h0.4c0-0.7-0.2-1.4-0.5-2L30.9,27.2z M31.3,28.9c0,0.4-0.1,0.9-0.2,1.2l0.4,0.1c0.1-0.4,0.2-0.9,0.2-1.4
	H31.3z M31.1,30.2c-0.1,0.4-0.3,0.7-0.5,1l0.3,0.2c0.2-0.3,0.4-0.7,0.6-1.1L31.1,30.2z M30.6,31.2c-0.3,0.4-0.7,0.7-1.1,0.9l0.2,0.4
	c0.5-0.2,0.9-0.6,1.3-1L30.6,31.2z M29.5,32.1c-0.4,0.2-0.9,0.3-1.4,0.3v0.4c0.6,0,1.1-0.1,1.6-0.3L29.5,32.1z M28,32.4
	c-1,0-1.8-0.3-2.4-1l-0.3,0.3c0.7,0.7,1.6,1.1,2.7,1.1V32.4z M25.6,31.4c-0.6-0.7-1-1.5-1-2.5h-0.4c0,1.1,0.4,2.1,1.1,2.8L25.6,31.4
	z M24.7,28.9c0-0.6,0.1-1.1,0.3-1.5l-0.4-0.2c-0.3,0.5-0.4,1.1-0.4,1.7H24.7z M25,27.3c0.2-0.3,0.4-0.6,0.7-0.8l-0.3-0.3
	c-0.3,0.3-0.6,0.6-0.8,1L25,27.3z M25.7,26.5c0.1-0.1,0.3-0.1,0.4,0.1l0.3-0.2c-0.2-0.3-0.7-0.4-1-0.1L25.7,26.5z M26.1,26.5
	L26.1,26.5l0.4-0.1l0,0L26.1,26.5z M26.1,26.6c0.1,0.1,0.1,0.3-0.1,0.4l0.2,0.3c0.3-0.2,0.4-0.7,0.2-1L26.1,26.6z M26,27
	c-0.2,0.2-0.4,0.3-0.6,0.6l0.3,0.2c0.1-0.2,0.3-0.3,0.5-0.5L26,27z M25.4,27.6c-0.2,0.3-0.4,0.7-0.4,1.1h0.4c0-0.3,0.1-0.6,0.3-0.9
	L25.4,27.6z M25.1,28.7c0,0.6,0.3,1.2,0.8,1.5l0.2-0.3c-0.4-0.3-0.6-0.7-0.6-1.2H25.1z M25.9,30.2c0.5,0.3,1.2,0.5,2.1,0.5v-0.4
	c-0.8,0-1.5-0.2-1.9-0.4L25.9,30.2z M28,30.7c0.8,0,1.5-0.2,2-0.6l-0.2-0.3c-0.4,0.3-1,0.5-1.8,0.5V30.7z M30,30.2
	c0.5-0.4,0.8-1,0.8-1.6h-0.4c0,0.5-0.2,1-0.7,1.3L30,30.2z M30.8,28.5c0-0.4-0.1-0.8-0.4-1.2l-0.3,0.2c0.2,0.3,0.3,0.6,0.3,0.9H30.8
	z M30.4,27.4c-0.2-0.2-0.4-0.4-0.7-0.6l-0.2,0.3c0.2,0.2,0.5,0.3,0.6,0.5L30.4,27.4z M29.7,26.8c-0.1-0.1-0.2-0.3-0.1-0.4l-0.3-0.2
	c-0.2,0.3-0.1,0.7,0.2,1L29.7,26.8z"/>
<path class="st0" d="M26.9,20.3c0.3-0.1,0.6-0.1,1.1-0.1c0.8,0,1.4,0.1,1.9,0.4c0.4,0.3,0.6,0.6,0.6,1c0,0.4-0.2,0.7-0.6,1
	C29.4,22.9,28.8,23,28,23c-0.1,0-0.3,0-0.4,0c-0.3,0-0.6-0.1-0.9-0.1c-0.3-0.1-0.5-0.2-0.7-0.3c-0.4-0.2-0.6-0.6-0.6-1
	c0-0.4,0.2-0.8,0.6-1c0,0,0.1,0,0.1-0.1l0,0C26.4,20.4,26.6,20.4,26.9,20.3z M27.4,25.3c0.2,0,0.4,0.1,0.7,0.1
	c0.6,0,1.1-0.1,1.5-0.3c0.5-0.2,0.9-0.5,1.2-0.9c0.3-0.3,0.5-0.7,0.7-1.2c0.2-0.4,0.2-0.9,0.2-1.4c0-0.4-0.1-1-0.3-1.4
	c-0.2-0.5-0.4-0.9-0.7-1.2c-0.4-0.4-0.8-0.7-1.2-0.9c-0.5-0.2-1-0.3-1.5-0.3c-0.6,0-1.1,0.1-1.5,0.3c-0.3,0.1-0.5,0.3-0.7,0.5
	c-0.2,0.1-0.3,0.3-0.4,0.4l0,0c-0.3,0.3-0.5,0.7-0.7,1.2c-0.2,0.4-0.2,0.9-0.2,1.4c0,0.5,0.1,1,0.3,1.4c0.2,0.5,0.4,0.9,0.7,1.2
	c0.4,0.4,0.8,0.7,1.2,0.9C26.8,25.2,27,25.3,27.4,25.3z"/>
<defs>
	<filter id="Adobe_OpacityMaskFilter_2_" filterUnits="userSpaceOnUse" x="24.2" y="17.6" width="7.8" height="8">
		<feColorMatrix  type="matrix" values="1 0 0 0 0  0 1 0 0 0  0 0 1 0 0  0 0 0 1 0"/>
	</filter>
</defs>
<mask maskUnits="userSpaceOnUse" x="24.2" y="17.6" width="7.8" height="8" id="c_1_">
	<path class="st6" d="M23.4,16.8h9v9h-9V16.8z"/>
	<path class="st2" d="M26.9,20.3c0.3-0.1,0.6-0.1,1.1-0.1c0.8,0,1.4,0.1,1.9,0.4c0.4,0.3,0.6,0.6,0.6,1c0,0.4-0.2,0.7-0.6,1
		C29.4,22.9,28.8,23,28,23c-0.1,0-0.3,0-0.4,0c-0.3,0-0.6-0.1-0.9-0.1c-0.3-0.1-0.5-0.2-0.7-0.3c-0.4-0.2-0.6-0.6-0.6-1
		c0-0.4,0.2-0.8,0.6-1c0,0,0.1,0,0.1-0.1l0,0C26.4,20.4,26.6,20.4,26.9,20.3z M27.4,25.3c0.2,0,0.4,0.1,0.7,0.1
		c0.6,0,1.1-0.1,1.5-0.3c0.5-0.2,0.9-0.5,1.2-0.9c0.3-0.3,0.5-0.7,0.7-1.2c0.2-0.4,0.2-0.9,0.2-1.4c0-0.4-0.1-1-0.3-1.4
		c-0.2-0.5-0.4-0.9-0.7-1.2c-0.4-0.4-0.8-0.7-1.2-0.9c-0.5-0.2-1-0.3-1.5-0.3c-0.6,0-1.1,0.1-1.5,0.3c-0.3,0.1-0.5,0.3-0.7,0.5
		c-0.2,0.1-0.3,0.3-0.4,0.4l0,0c-0.3,0.3-0.5,0.7-0.7,1.2c-0.2,0.4-0.2,0.9-0.2,1.4c0,0.5,0.1,1,0.3,1.4c0.2,0.5,0.4,0.9,0.7,1.2
		c0.4,0.4,0.8,0.7,1.2,0.9C26.8,25.2,27,25.3,27.4,25.3z"/>
</mask>
<path class="st7" d="M26.9,20.3l0,0.2l0,0L26.9,20.3z M29.9,20.6l0.1-0.2l0,0L29.9,20.6z M29.9,22.6l0.1,0.2l0,0L29.9,22.6z
	 M27.6,23l0-0.2l0,0l0,0L27.6,23z M26.8,22.9l-0.1,0.2l0,0L26.8,22.9z M26.1,22.6l0.1-0.2l0,0L26.1,22.6z M26.1,20.6l0.1,0.2l0,0
	L26.1,20.6z M26.2,20.5l0.1,0.2l0,0l0,0L26.2,20.5z M26.2,20.5l0.1,0.2l0,0L26.2,20.5z M27.4,25.3l0,0.2l0,0L27.4,25.3z M29.6,25.1
	l0.1,0.2l0,0L29.6,25.1z M30.8,24.2l0.1,0.1l0,0L30.8,24.2z M31.5,23l0.2,0.1l0,0L31.5,23z M31.7,21.6h0.2l0,0L31.7,21.6z
	 M31.5,20.2l-0.2,0.1l0,0L31.5,20.2z M30.8,19l0.1-0.1l0,0L30.8,19z M29.6,18.1l-0.1,0.2v0L29.6,18.1z M26.5,18.1L26.4,18l0,0
	L26.5,18.1z M25.8,18.6l0.1,0.2l0,0L25.8,18.6z M25.3,19l0.1,0.1l0,0L25.3,19z M25.3,19l-0.1-0.1l0,0L25.3,19z M24.6,20.2l-0.2-0.1
	l0,0L24.6,20.2z M24.6,23l0.2-0.1l0,0L24.6,23z M25.3,24.2l0.1-0.1l0,0L25.3,24.2z M26.5,25.1l0.1-0.2l0,0L26.5,25.1z M28,20
	c-0.4,0-0.8,0-1.1,0.1l0.1,0.4c0.3-0.1,0.6-0.1,1-0.1L28,20z M30,20.4c-0.5-0.3-1.2-0.4-2-0.4v0.4c0.8,0,1.4,0.1,1.8,0.4L30,20.4z
	 M30.7,21.7c0-0.3-0.1-0.5-0.2-0.7c-0.1-0.2-0.3-0.4-0.5-0.5l-0.2,0.3c0.2,0.1,0.3,0.2,0.4,0.4c0.1,0.1,0.1,0.3,0.1,0.5H30.7z
	 M30,22.8c0.5-0.3,0.7-0.7,0.7-1.1h-0.4c0,0.3-0.2,0.6-0.5,0.8L30,22.8z M28,23.2c0.8,0,1.5-0.1,2-0.4l-0.2-0.3
	c-0.4,0.2-1,0.4-1.8,0.4L28,23.2z M27.6,23.2c0.1,0,0.3,0,0.4,0v-0.4c-0.1,0-0.2,0-0.4,0L27.6,23.2z M26.7,23.1
	c0.3,0.1,0.6,0.1,0.9,0.1l0-0.4c-0.3,0-0.6,0-0.8-0.1L26.7,23.1z M26,22.8c0.2,0.1,0.4,0.2,0.7,0.3l0.1-0.4
	c-0.3-0.1-0.5-0.2-0.6-0.2L26,22.8z M25.3,21.6c0,0.2,0.1,0.5,0.2,0.7c0.1,0.2,0.3,0.4,0.5,0.5l0.2-0.3c-0.2-0.1-0.3-0.2-0.4-0.4
	c-0.1-0.1-0.1-0.3-0.1-0.5L25.3,21.6z M26,20.4c-0.2,0.2-0.4,0.3-0.5,0.5c-0.1,0.2-0.2,0.4-0.2,0.7h0.4c0-0.2,0-0.3,0.1-0.5
	c0.1-0.1,0.2-0.3,0.4-0.4L26,20.4z M26.2,20.4c-0.1,0-0.1,0.1-0.2,0.1l0.2,0.3c0,0,0.1,0,0.1,0L26.2,20.4z M26.2,20.4L26.2,20.4
	l0.1,0.4l0,0L26.2,20.4z M26.9,20.1c-0.3,0.1-0.5,0.1-0.7,0.2l0.2,0.4c0.2-0.1,0.4-0.2,0.6-0.2L26.9,20.1z M28.1,25.2
	c-0.2,0-0.4,0-0.6-0.1l-0.1,0.4c0.2,0,0.4,0.1,0.7,0.1V25.2z M29.5,24.9c-0.5,0.2-0.9,0.3-1.5,0.3v0.4c0.6,0,1.1-0.1,1.6-0.3
	L29.5,24.9z M30.7,24.1c-0.3,0.4-0.7,0.6-1.2,0.9l0.2,0.4c0.5-0.2,0.9-0.6,1.3-0.9L30.7,24.1z M31.3,23c-0.2,0.5-0.4,0.8-0.6,1.1
	l0.3,0.3c0.3-0.3,0.5-0.7,0.7-1.2L31.3,23z M31.5,21.6c0,0.5-0.1,0.9-0.2,1.3l0.4,0.1c0.2-0.5,0.3-1,0.3-1.5H31.5z M31.3,20.3
	c0.2,0.4,0.2,1,0.2,1.4l0.4,0c0-0.4-0.1-1-0.3-1.5L31.3,20.3z M30.7,19.2c0.3,0.3,0.5,0.6,0.6,1.1l0.4-0.1c-0.2-0.5-0.4-0.9-0.7-1.2
	L30.7,19.2z M29.5,18.3c0.4,0.2,0.8,0.5,1.2,0.8l0.3-0.3c-0.4-0.4-0.8-0.7-1.3-0.9L29.5,18.3z M28,18c0.5,0,1,0.1,1.5,0.3l0.2-0.4
	c-0.5-0.2-1-0.3-1.6-0.3V18z M26.6,18.3C27,18.1,27.5,18,28,18v-0.4c-0.6,0-1.1,0.1-1.6,0.3L26.6,18.3z M25.9,18.7
	c0.2-0.1,0.4-0.3,0.7-0.4L26.4,18c-0.3,0.2-0.6,0.3-0.8,0.5L25.9,18.7z M25.5,19.1c0.1-0.1,0.3-0.3,0.4-0.4l-0.3-0.3
	c-0.2,0.1-0.3,0.3-0.5,0.4L25.5,19.1z M25.4,19.2L25.4,19.2l-0.2-0.3l0,0L25.4,19.2z M24.8,20.3c0.2-0.5,0.4-0.9,0.6-1.1l-0.3-0.3
	c-0.3,0.3-0.5,0.7-0.7,1.2L24.8,20.3z M24.6,21.6c0-0.5,0.1-0.9,0.2-1.3l-0.4-0.1c-0.2,0.5-0.3,1-0.3,1.5H24.6z M24.8,23
	c-0.2-0.4-0.2-0.8-0.2-1.3h-0.4c0,0.5,0.1,1.1,0.3,1.5L24.8,23z M25.4,24c-0.3-0.3-0.5-0.6-0.6-1.1l-0.4,0.1
	c0.2,0.5,0.4,0.9,0.7,1.2L25.4,24z M26.6,24.9c-0.4-0.2-0.8-0.5-1.2-0.8l-0.3,0.3c0.4,0.4,0.8,0.7,1.3,0.9L26.6,24.9z M27.4,25.1
	c-0.4-0.1-0.6-0.1-0.8-0.3l-0.2,0.4c0.3,0.1,0.5,0.2,0.9,0.3L27.4,25.1z"/>
<path class="st0" d="M31.4,16.3c0,0.2-0.1,0.4-0.2,0.6c-0.2,0.2-0.4,0.3-0.6,0.3c-0.2,0-0.4-0.1-0.6-0.2c-0.2-0.2-0.2-0.4-0.2-0.6
	c0-0.2,0.1-0.4,0.2-0.6c0.2-0.2,0.4-0.2,0.6-0.2c0.2,0,0.4,0.1,0.6,0.2C31.4,15.9,31.4,16.1,31.4,16.3z"/>
<defs>
	<filter id="Adobe_OpacityMaskFilter_3_" filterUnits="userSpaceOnUse" x="29.6" y="15.3" width="2" height="2">
		<feColorMatrix  type="matrix" values="1 0 0 0 0  0 1 0 0 0  0 0 1 0 0  0 0 0 1 0"/>
	</filter>
</defs>
<mask maskUnits="userSpaceOnUse" x="29.6" y="15.3" width="2" height="2" id="d_1_">
	<path class="st8" d="M28.8,14.5h3v3h-3V14.5z"/>
	<path class="st2" d="M31.4,16.3c0,0.2-0.1,0.4-0.2,0.6c-0.2,0.2-0.4,0.3-0.6,0.3c-0.2,0-0.4-0.1-0.6-0.2c-0.2-0.2-0.2-0.4-0.2-0.6
		c0-0.2,0.1-0.4,0.2-0.6c0.2-0.2,0.4-0.2,0.6-0.2c0.2,0,0.4,0.1,0.6,0.2C31.4,15.9,31.4,16.1,31.4,16.3z"/>
</mask>
<path class="st9" d="M31.2,16.9l-0.1-0.1l0,0L31.2,16.9z M30.1,16.9l0.1-0.1l0,0L30.1,16.9z M30.1,15.8l0.1,0.1l0,0L30.1,15.8z
	 M31.2,15.8l-0.1,0.1l0,0l0,0L31.2,15.8z M31.2,16.3c0,0.2-0.1,0.3-0.2,0.4l0.3,0.3c0.2-0.2,0.3-0.5,0.3-0.7H31.2z M31.1,16.8
	c-0.1,0.1-0.3,0.2-0.4,0.2v0.4c0.3,0,0.5-0.1,0.7-0.3L31.1,16.8z M30.6,17c-0.2,0-0.3-0.1-0.4-0.2L29.9,17c0.2,0.2,0.5,0.3,0.7,0.3
	V17z M30.2,16.8c-0.1-0.1-0.2-0.3-0.2-0.4h-0.4c0,0.3,0.1,0.5,0.3,0.7L30.2,16.8z M30,16.3c0-0.2,0.1-0.3,0.2-0.4l-0.3-0.3
	c-0.2,0.2-0.3,0.5-0.3,0.7H30z M30.2,15.9c0.1-0.1,0.3-0.2,0.4-0.2v-0.4c-0.3,0-0.5,0.1-0.7,0.3L30.2,15.9z M30.6,15.7
	c0.2,0,0.3,0.1,0.4,0.2l0.3-0.3c-0.2-0.2-0.5-0.3-0.7-0.3V15.7z M31.1,15.9c0.1,0.1,0.2,0.2,0.2,0.4h0.4c0-0.3-0.1-0.5-0.3-0.7
	L31.1,15.9z"/>
<path class="st10" d="M29.6,21.2v-0.1h-0.1h-1.2h-0.1v0.1v1.2v0.1h0.1c0.4,0,0.7-0.1,0.9-0.4l0,0C29.5,21.9,29.6,21.5,29.6,21.2z"/>
<path class="st10" d="M27.7,21.2v-0.1h-0.1h-1.2h-0.1v0.1c0,0.3,0.1,0.6,0.3,0.8l0,0l0,0c0,0,0,0,0.1,0.1l0,0c0,0,0,0,0.1,0.1
	c0.2,0.2,0.6,0.4,0.9,0.4h0.1v-0.1V21.2z"/>
<path class="st11" d="M6,0h28c3.3,0,6,2.7,6,6v28c0,3.3-2.7,6-6,6H6c-3.3,0-6-2.7-6-6V6C0,2.7,2.7,0,6,0z"/>
<path class="st12" d="M22.8,16.9c-0.5,0.3-1,0.5-1.6,0.7c-0.6,0.1-1.2,0.2-1.9,0.2h-4.7l1.1-7.7h5.4c1.4,0,2.4,0.4,2.9,1.1
	c0.5,0.8,0.7,1.6,0.6,2.7c-0.1,0.7-0.3,1.3-0.6,1.8C23.7,16.2,23.3,16.6,22.8,16.9z M24.1,25.5c-0.1,0.9-0.4,1.7-0.9,2.2
	s-1,1-1.6,1.3c-0.6,0.3-1.2,0.5-1.9,0.7c-0.7,0.1-1.2,0.2-1.8,0.2h-5.1l1.3-9h5.1c1.7,0,3,0.4,3.9,1.2C24,22.8,24.4,23.9,24.1,25.5z
	 M26.6,17.1c0.9-0.9,1.5-2.2,1.7-3.6c0.1-1.1,0.1-2.1-0.2-2.9c-0.3-0.8-0.7-1.5-1.3-2c-0.6-0.5-1.4-0.9-2.3-1.2
	c-0.9-0.3-1.9-0.4-3-0.4h-8.9L9,32.9h8.8c1.3,0,2.5-0.2,3.6-0.5c1.1-0.3,2.2-0.8,3.1-1.4c0.3-0.2,0.5-0.4,0.8-0.6
	c0.2-0.2,0.5-0.4,0.7-0.6c0,0,0,0,0,0c0.3-0.3,0.6-0.7,0.8-1c0.3-0.4,0.5-0.9,0.7-1.3c0.1-0.4,0.2-0.7,0.3-1.1c0,0,0-0.1,0-0.1
	c0-0.2,0.1-0.3,0.1-0.5c0.1-0.4,0.1-0.7,0.1-1.1c-0.3,0-0.5-0.1-0.8-0.1c-0.2-0.1-0.5-0.1-0.6-0.2c-0.4-0.2-0.6-0.6-0.6-1
	c0-0.4,0.2-0.8,0.6-1c0,0,0.1-0.1,0.1-0.1c0.2-0.1,0.4-0.2,0.6-0.2c-0.1-0.2-0.3-0.5-0.4-0.7c0,0-0.1-0.1-0.1-0.1
	c-0.1-0.2-0.3-0.3-0.4-0.4c-0.3-0.3-0.7-0.6-1.1-0.8c-0.6-0.4-1.3-0.6-2.1-0.6v-0.1C24.6,18.8,25.7,18.1,26.6,17.1z M27.8,23.3
	c0-0.1-0.1-0.2-0.1-0.3h-0.1c0,0.2,0.1,0.4,0.2,0.6C27.8,23.5,27.8,23.4,27.8,23.3z"/>
<path class="st0" d="M26.4,27.4c-0.1,0-0.1,0-0.2,0.1c-0.3,0.2-0.5,0.5-0.6,0.8c-0.2,0.4-0.3,0.8-0.3,1.4c0,0.9,0.3,1.6,0.9,2.2
	c0.6,0.6,1.3,0.9,2.2,0.9c0.5,0,0.9-0.1,1.3-0.3c0.4-0.2,0.7-0.4,1-0.8c0.2-0.3,0.4-0.6,0.5-0.9c0.1-0.3,0.2-0.7,0.2-1.1
	c0-0.6-0.1-1.1-0.4-1.6c-0.2-0.3-0.4-0.6-0.8-0.8c-0.1-0.1-0.3,0-0.4,0.1c-0.1,0.1,0,0.3,0.1,0.4c0.2,0.1,0.4,0.3,0.6,0.5
	c0.2,0.3,0.3,0.6,0.3,1c0,0.6-0.2,1-0.7,1.4c-0.4,0.3-1,0.5-1.8,0.5c-0.8,0-1.4-0.1-1.8-0.4c-0.4-0.3-0.7-0.8-0.7-1.3
	c0-0.3,0.1-0.7,0.3-1c0.1-0.2,0.3-0.3,0.5-0.5c0.1,0,0.1-0.1,0.1-0.2c0-0.1,0-0.2-0.1-0.2l0,0C26.6,27.5,26.5,27.5,26.4,27.4
	C26.4,27.4,26.4,27.4,26.4,27.4z M28.3,33c-1,0-1.7-0.3-2.3-0.9c-0.6-0.6-0.9-1.5-0.9-2.4c0-0.6,0.1-1.1,0.3-1.5
	c0.2-0.3,0.4-0.6,0.7-0.8c0.1-0.1,0.3-0.1,0.4-0.1c0.2,0,0.3,0.1,0.4,0.2l0,0c0.1,0.1,0.1,0.2,0.1,0.4c0,0.2-0.1,0.3-0.2,0.4
	c-0.2,0.1-0.3,0.3-0.4,0.4c-0.2,0.3-0.3,0.5-0.3,0.8c0,0.5,0.2,0.8,0.6,1.1c0.4,0.3,0.9,0.4,1.7,0.4c0.7,0,1.2-0.1,1.6-0.5
	c0.4-0.3,0.6-0.7,0.6-1.2c0-0.3-0.1-0.6-0.3-0.8c-0.1-0.2-0.3-0.3-0.5-0.5l0,0c-0.2-0.2-0.3-0.5-0.1-0.8l0,0
	c0.2-0.2,0.5-0.3,0.7-0.2c0.4,0.3,0.7,0.6,0.9,0.9c0.3,0.5,0.4,1,0.4,1.7c0,0.4-0.1,0.8-0.2,1.2c-0.1,0.4-0.3,0.7-0.5,1
	c-0.3,0.4-0.7,0.7-1.1,0.9C29.2,32.9,28.8,33,28.3,33z"/>
<defs>
	<filter id="Adobe_OpacityMaskFilter_4_" filterUnits="userSpaceOnUse" x="24.8" y="26.8" width="6.8" height="6.4">
		<feColorMatrix  type="matrix" values="1 0 0 0 0  0 1 0 0 0  0 0 1 0 0  0 0 0 1 0"/>
	</filter>
</defs>
<mask maskUnits="userSpaceOnUse" x="24.8" y="26.8" width="6.8" height="6.4" id="e_1_">
	<path class="st13" d="M24,26h8v8h-8V26z"/>
	<path class="st2" d="M26.4,27.4c-0.1,0-0.1,0-0.2,0.1c-0.3,0.2-0.5,0.5-0.6,0.8c-0.2,0.4-0.3,0.8-0.3,1.4c0,0.9,0.3,1.6,0.9,2.2
		c0.6,0.6,1.3,0.9,2.2,0.9c0.5,0,0.9-0.1,1.3-0.3c0.4-0.2,0.7-0.4,1-0.8c0.2-0.3,0.4-0.6,0.5-0.9c0.1-0.3,0.2-0.7,0.2-1.1
		c0-0.6-0.1-1.1-0.4-1.6c-0.2-0.3-0.4-0.6-0.8-0.8c-0.1-0.1-0.3,0-0.4,0.1c-0.1,0.1,0,0.3,0.1,0.4c0.2,0.1,0.4,0.3,0.6,0.5
		c0.2,0.3,0.3,0.6,0.3,1c0,0.6-0.2,1-0.7,1.4c-0.4,0.3-1,0.5-1.8,0.5c-0.8,0-1.4-0.1-1.8-0.4c-0.4-0.3-0.7-0.8-0.7-1.3
		c0-0.3,0.1-0.7,0.3-1c0.1-0.2,0.3-0.3,0.5-0.5c0.1,0,0.1-0.1,0.1-0.2c0-0.1,0-0.2-0.1-0.2l0,0C26.6,27.5,26.5,27.5,26.4,27.4
		C26.4,27.4,26.4,27.4,26.4,27.4z M28.3,33c-1,0-1.7-0.3-2.3-0.9c-0.6-0.6-0.9-1.5-0.9-2.4c0-0.6,0.1-1.1,0.3-1.5
		c0.2-0.3,0.4-0.6,0.7-0.8c0.1-0.1,0.3-0.1,0.4-0.1c0.2,0,0.3,0.1,0.4,0.2l0,0c0.1,0.1,0.1,0.2,0.1,0.4c0,0.2-0.1,0.3-0.2,0.4
		c-0.2,0.1-0.3,0.3-0.4,0.4c-0.2,0.3-0.3,0.5-0.3,0.8c0,0.5,0.2,0.8,0.6,1.1c0.4,0.3,0.9,0.4,1.7,0.4c0.7,0,1.2-0.1,1.6-0.5
		c0.4-0.3,0.6-0.7,0.6-1.2c0-0.3-0.1-0.6-0.3-0.8c-0.1-0.2-0.3-0.3-0.5-0.5l0,0c-0.2-0.2-0.3-0.5-0.1-0.8l0,0
		c0.2-0.2,0.5-0.3,0.7-0.2c0.4,0.3,0.7,0.6,0.9,0.9c0.3,0.5,0.4,1,0.4,1.7c0,0.4-0.1,0.8-0.2,1.2c-0.1,0.4-0.3,0.7-0.5,1
		c-0.3,0.4-0.7,0.7-1.1,0.9C29.2,32.9,28.8,33,28.3,33z"/>
</mask>
<path class="st14" d="M26.2,27.5l0.1,0.2v0L26.2,27.5z M25.6,28.3l0.2,0.1l0,0L25.6,28.3z M26.1,31.9L26,32l0,0L26.1,31.9z
	 M29.6,32.5l0.1,0.2h0L29.6,32.5z M30.6,31.7l0.2,0.1l0,0L30.6,31.7z M31,30.8l0.2,0.1l0,0L31,30.8z M30.8,28.1l-0.2,0.1l0,0
	L30.8,28.1z M30,27.3l0.1-0.2l0,0l0,0L30,27.3z M29.6,27.4l-0.2-0.1l0,0L29.6,27.4z M29.7,27.8L29.6,28l0,0l0,0L29.7,27.8z
	 M30.3,28.3l-0.2,0.1l0,0L30.3,28.3z M30,30.7l0.1,0.2l0,0L30,30.7z M26.4,30.8L26.3,31l0,0L26.4,30.8z M26,28.5l-0.2-0.1l0,0
	L26,28.5z M26.5,28l0.1,0.2l0,0L26.5,28z M26.7,27.8l-0.2,0l0,0L26.7,27.8z M26.6,27.6l-0.2,0.1l0,0l0,0L26.6,27.6z M26.6,27.6
	l0.2-0.1l0,0l0,0L26.6,27.6z M26.4,27.4l0,0.2l0,0L26.4,27.4z M25.9,32.1l-0.1,0.1l0,0L25.9,32.1z M25.3,28.1l0.2,0.1l0,0L25.3,28.1
	z M26,27.3l-0.1-0.2l0,0L26,27.3z M26.4,27.2l0-0.2h0L26.4,27.2z M26.8,27.4l0.2-0.1l0,0l0,0L26.8,27.4z M26.8,27.4l-0.2,0.1l0,0
	l0,0L26.8,27.4z M26.9,27.8l-0.2,0L26.9,27.8z M26.7,28.2l0.1,0.2l0,0L26.7,28.2z M26.3,28.7l-0.2-0.1l0,0L26.3,28.7z M26.5,30.6
	l-0.1,0.2l0,0L26.5,30.6z M29.8,30.5l0.1,0.2L29.8,30.5z M30.1,28.5l-0.2,0.1l0,0L30.1,28.5z M29.6,28l-0.1,0.2l0,0l0,0L29.6,28z
	 M29.6,28l-0.1,0.2l0,0L29.6,28z M29.4,27.2l-0.2-0.1l0,0L29.4,27.2z M29.4,27.2l-0.2-0.1l0,0L29.4,27.2z M30.2,27.1l0.1-0.2l0,0
	l0,0L30.2,27.1z M31,28l-0.2,0.1l0,0L31,28z M31.3,30.9l0.2,0.1l0,0L31.3,30.9z M30.8,31.8l0.2,0.1l0,0L30.8,31.8z M29.7,32.7
	l0.1,0.2h0L29.7,32.7z M26.4,27.2c-0.1,0-0.2,0-0.3,0.1l0.3,0.3c0,0,0,0,0.1,0V27.2z M26.1,27.4c-0.3,0.2-0.5,0.5-0.7,0.8l0.4,0.2
	c0.1-0.2,0.3-0.5,0.6-0.7L26.1,27.4z M25.4,28.2c-0.2,0.4-0.3,0.9-0.3,1.5h0.4c0-0.5,0.1-0.9,0.3-1.3L25.4,28.2z M25.1,29.6
	c0,0.9,0.3,1.7,0.9,2.4l0.3-0.3c-0.5-0.6-0.8-1.2-0.8-2.1H25.1z M26,32c0.6,0.6,1.4,0.9,2.3,0.9v-0.4c-0.8,0-1.5-0.3-2-0.8L26,32z
	 M28.3,32.9c0.5,0,0.9-0.1,1.4-0.3l-0.2-0.4c-0.4,0.2-0.7,0.2-1.2,0.2L28.3,32.9z M29.6,32.7c0.4-0.2,0.8-0.5,1.1-0.9l-0.3-0.2
	c-0.3,0.3-0.6,0.6-0.9,0.7L29.6,32.7z M30.7,31.8c0.2-0.3,0.4-0.6,0.5-0.9l-0.4-0.1c-0.1,0.3-0.3,0.6-0.5,0.9L30.7,31.8z M31.2,30.8
	c0.1-0.3,0.2-0.7,0.2-1.2H31c0,0.4-0.1,0.7-0.1,1L31.2,30.8z M31.4,29.7c0-0.6-0.1-1.2-0.4-1.7l-0.3,0.2c0.2,0.4,0.4,0.9,0.4,1.5
	H31.4z M31,28c-0.2-0.3-0.5-0.6-0.8-0.9l-0.2,0.3c0.4,0.3,0.6,0.5,0.7,0.8L31,28z M30.1,27.1c-0.1-0.1-0.2-0.1-0.4,0
	c-0.1,0-0.2,0.1-0.3,0.2l0.3,0.2c0,0,0,0,0.1,0c0,0,0.1,0,0.1,0L30.1,27.1z M29.5,27.3c-0.1,0.1-0.1,0.3-0.1,0.4
	c0,0.1,0.1,0.2,0.2,0.3l0.3-0.3c0,0,0-0.1-0.1-0.1c0,0,0-0.1,0-0.1L29.5,27.3z M29.6,28c0.2,0.1,0.4,0.3,0.5,0.5l0.3-0.2
	c-0.2-0.2-0.4-0.4-0.6-0.6L29.6,28z M30.1,28.5c0.2,0.3,0.3,0.5,0.3,0.9h0.4c0-0.4-0.1-0.8-0.4-1.1L30.1,28.5z M30.5,29.3
	c0,0.5-0.2,0.9-0.6,1.2l0.2,0.3c0.5-0.4,0.8-0.9,0.8-1.5L30.5,29.3z M29.8,30.6c-0.4,0.3-0.9,0.5-1.6,0.5v0.4c0.8,0,1.4-0.2,1.9-0.5
	L29.8,30.6z M28.2,31c-0.8,0-1.3-0.1-1.7-0.4L26.3,31c0.5,0.3,1.1,0.5,1.9,0.5V31z M26.5,30.6c-0.4-0.3-0.6-0.7-0.6-1.1h-0.4
	c0,0.6,0.3,1.1,0.8,1.5L26.5,30.6z M25.9,29.5c0-0.3,0.1-0.6,0.3-0.9l-0.3-0.2c-0.2,0.3-0.4,0.7-0.4,1.1H25.9z M26.2,28.6
	c0.1-0.2,0.2-0.3,0.5-0.4l-0.2-0.3c-0.2,0.2-0.4,0.3-0.6,0.5L26.2,28.6z M26.7,28.2c0.1-0.1,0.2-0.2,0.2-0.4l-0.4-0.1
	c0,0,0,0.1,0,0.1L26.7,28.2z M26.9,27.8c0-0.1,0-0.3-0.1-0.4l-0.3,0.2c0,0,0,0,0,0.1L26.9,27.8z M26.8,27.5L26.8,27.5l-0.4,0.2l0,0
	L26.8,27.5z M26.8,27.4c-0.1-0.1-0.2-0.2-0.3-0.2l-0.1,0.4c0,0,0,0,0.1,0L26.8,27.4z M26.4,27.2C26.4,27.2,26.4,27.2,26.4,27.2
	l-0.1,0.4c0,0,0,0,0,0c0,0,0,0,0,0L26.4,27.2z M28.3,32.8c-0.9,0-1.6-0.3-2.2-0.9l-0.3,0.3c0.6,0.7,1.5,1,2.5,1V32.8z M26.1,31.9
	c-0.6-0.6-0.9-1.4-0.9-2.3h-0.4c0,1,0.3,1.9,1,2.6L26.1,31.9z M25.2,29.6c0-0.6,0.1-1,0.3-1.4L25.2,28c-0.2,0.4-0.4,1-0.4,1.6
	L25.2,29.6z M25.5,28.2c0.1-0.3,0.3-0.5,0.6-0.8l-0.3-0.3c-0.3,0.3-0.6,0.6-0.7,0.9L25.5,28.2z M26.2,27.5c0.1-0.1,0.2-0.1,0.3-0.1
	l0.1-0.4c-0.2,0-0.4,0-0.6,0.2L26.2,27.5z M26.4,27.4c0.1,0,0.2,0.1,0.2,0.1l0.3-0.2c-0.1-0.2-0.3-0.3-0.5-0.3L26.4,27.4z
	 M26.6,27.5L26.6,27.5l0.4-0.2l0,0L26.6,27.5z M26.7,27.6c0,0.1,0.1,0.2,0.1,0.2l0.4,0.1c0-0.2,0-0.4-0.1-0.5L26.7,27.6z M26.7,27.8
	c0,0.1-0.1,0.2-0.2,0.3l0.2,0.3c0.2-0.1,0.3-0.3,0.3-0.5L26.7,27.8z M26.6,28.1c-0.2,0.2-0.4,0.3-0.5,0.5l0.3,0.2
	c0.1-0.1,0.2-0.2,0.4-0.4L26.6,28.1z M26.1,28.5c-0.2,0.3-0.3,0.6-0.3,0.9h0.4c0-0.2,0.1-0.5,0.2-0.7L26.1,28.5z M25.8,29.5
	c0,0.5,0.2,1,0.6,1.3l0.2-0.3c-0.3-0.2-0.5-0.5-0.5-0.9L25.8,29.5z M26.4,30.7c0.4,0.3,1,0.4,1.8,0.4v-0.4c-0.7,0-1.2-0.1-1.6-0.4
	L26.4,30.7z M28.2,31.2c0.7,0,1.3-0.2,1.7-0.5l-0.2-0.3c-0.4,0.3-0.8,0.4-1.5,0.4V31.2z M29.9,30.7c0.4-0.3,0.7-0.8,0.7-1.3h-0.4
	c0,0.4-0.2,0.7-0.5,1L29.9,30.7z M30.6,29.3c0-0.4-0.1-0.7-0.3-1l-0.3,0.2c0.2,0.2,0.2,0.4,0.2,0.7H30.6z M30.3,28.4
	c-0.2-0.2-0.4-0.4-0.6-0.5l-0.2,0.3c0.2,0.1,0.4,0.3,0.5,0.4L30.3,28.4z M29.7,27.9L29.7,27.9l-0.3,0.3l0,0L29.7,27.9z M29.7,27.9
	c-0.2-0.1-0.2-0.4-0.1-0.5l-0.3-0.2c-0.2,0.3-0.1,0.8,0.2,1L29.7,27.9z M29.6,27.4L29.6,27.4l-0.3-0.2l0,0L29.6,27.4z M29.6,27.4
	c0.1-0.2,0.3-0.2,0.5-0.1l0.2-0.3c-0.3-0.2-0.8-0.1-1,0.2L29.6,27.4z M30,27.2c0.4,0.3,0.7,0.6,0.8,0.9l0.4-0.2
	c-0.2-0.4-0.5-0.7-0.9-1L30,27.2z M30.9,28.1c0.3,0.4,0.4,1,0.4,1.6h0.4c0-0.7-0.1-1.3-0.4-1.8L30.9,28.1z M31.3,29.7
	c0,0.4-0.1,0.8-0.2,1.1l0.4,0.1c0.1-0.4,0.2-0.8,0.2-1.2H31.3z M31.1,30.8c-0.1,0.3-0.3,0.6-0.5,0.9l0.3,0.2c0.2-0.3,0.4-0.6,0.5-1
	L31.1,30.8z M30.6,31.7c-0.3,0.4-0.6,0.6-1,0.8l0.2,0.4c0.5-0.2,0.8-0.5,1.2-0.9L30.6,31.7z M29.6,32.5c-0.4,0.2-0.8,0.3-1.3,0.3
	v0.4c0.5,0,1-0.1,1.5-0.3L29.6,32.5z"/>
<path class="st12" d="M29.5,27.3c0.1-0.2,0.4-0.2,0.6-0.1c0.3,0.2,0.6,0.5,0.8,0.9c0.3,0.5,0.4,1,0.4,1.6c0,0.4-0.1,0.8-0.2,1.1
	c-0.1,0.3-0.3,0.7-0.5,0.9c-0.3,0.4-0.6,0.7-1,0.8c-0.4,0.2-0.8,0.3-1.3,0.3c-0.9,0-1.7-0.3-2.3-0.9c-0.6-0.6-0.9-1.4-0.9-2.3
	c0-0.5,0.1-1,0.3-1.4c0.2-0.3,0.4-0.6,0.6-0.8c0.2-0.2,0.5-0.1,0.6,0.1l0,0c0.1,0.2,0.1,0.5-0.1,0.6c-0.2,0.1-0.3,0.3-0.5,0.5
	c-0.2,0.3-0.3,0.6-0.3,0.9c0,0.5,0.2,0.9,0.6,1.2c0.4,0.3,1,0.4,1.7,0.4c0.7,0,1.2-0.2,1.7-0.5c0.4-0.3,0.6-0.8,0.6-1.3
	c0-0.3-0.1-0.6-0.3-0.9c-0.1-0.2-0.3-0.4-0.6-0.5C29.5,27.8,29.4,27.5,29.5,27.3z"/>
<defs>
	<filter id="Adobe_OpacityMaskFilter_5_" filterUnits="userSpaceOnUse" x="24.9" y="26.9" width="6.6" height="6.1">
		<feColorMatrix  type="matrix" values="1 0 0 0 0  0 1 0 0 0  0 0 1 0 0  0 0 0 1 0"/>
	</filter>
</defs>
<mask maskUnits="userSpaceOnUse" x="24.9" y="26.9" width="6.6" height="6.1" id="f_1_">
	<path class="st15" d="M24.1,26.1h8v7h-8L24.1,26.1z"/>
	<path class="st2" d="M29.5,27.3c0.1-0.2,0.4-0.2,0.6-0.1c0.3,0.2,0.6,0.5,0.8,0.9c0.3,0.5,0.4,1,0.4,1.6c0,0.4-0.1,0.8-0.2,1.1
		c-0.1,0.3-0.3,0.7-0.5,0.9c-0.3,0.4-0.6,0.7-1,0.8c-0.4,0.2-0.8,0.3-1.3,0.3c-0.9,0-1.7-0.3-2.3-0.9c-0.6-0.6-0.9-1.4-0.9-2.3
		c0-0.5,0.1-1,0.3-1.4c0.2-0.3,0.4-0.6,0.6-0.8c0.2-0.2,0.5-0.1,0.6,0.1l0,0c0.1,0.2,0.1,0.5-0.1,0.6c-0.2,0.1-0.3,0.3-0.5,0.5
		c-0.2,0.3-0.3,0.6-0.3,0.9c0,0.5,0.2,0.9,0.6,1.2c0.4,0.3,1,0.4,1.7,0.4c0.7,0,1.2-0.2,1.7-0.5c0.4-0.3,0.6-0.8,0.6-1.3
		c0-0.3-0.1-0.6-0.3-0.9c-0.1-0.2-0.3-0.4-0.6-0.5C29.5,27.8,29.4,27.5,29.5,27.3z"/>
</mask>
<path class="st16" d="M30.1,27.2l0.1-0.2l0,0l0,0L30.1,27.2z M30.9,28.1l-0.2,0.1l0,0L30.9,28.1z M31.2,30.8l0.2,0.1l0,0L31.2,30.8z
	 M30.7,31.8l0.2,0.1l0,0L30.7,31.8z M29.6,32.6l0.1,0.2h0L29.6,32.6z M26,32l-0.1,0.1l0,0L26,32z M25.5,28.2l0.2,0.1l0,0L25.5,28.2z
	 M26.1,27.4l0.1,0.2h0L26.1,27.4z M26.7,27.5l0.2-0.1l0,0l0,0L26.7,27.5z M26.7,27.5l-0.2,0.1l0,0l0,0L26.7,27.5z M26.6,28.1
	l0.1,0.2l0,0L26.6,28.1z M26.1,28.6L26,28.5l0,0L26.1,28.6z M26.5,30.7l-0.1,0.2l0,0L26.5,30.7z M29.9,30.6l0.1,0.2l0,0L29.9,30.6z
	 M30.2,28.4L30,28.5l0,0L30.2,28.4z M29.6,27.9l-0.1,0.2l0,0l0,0L29.6,27.9z M29.7,27.4c0.1-0.1,0.2-0.1,0.3-0.1l0.2-0.3
	c-0.3-0.2-0.6-0.1-0.8,0.2L29.7,27.4z M30,27.4c0.3,0.2,0.6,0.5,0.8,0.8l0.4-0.2c-0.2-0.4-0.5-0.7-0.9-0.9L30,27.4z M30.8,28.2
	c0.2,0.4,0.4,0.9,0.4,1.5h0.4c0-0.6-0.1-1.2-0.4-1.7L30.8,28.2z M31.1,29.7c0,0.4,0,0.8-0.2,1.1l0.4,0.1c0.1-0.4,0.2-0.8,0.2-1.2
	H31.1z M31,30.8c-0.1,0.3-0.3,0.6-0.5,0.9l0.3,0.2c0.2-0.3,0.4-0.6,0.5-1L31,30.8z M30.5,31.6c-0.3,0.4-0.6,0.6-1,0.8l0.2,0.4
	c0.4-0.2,0.8-0.5,1.1-0.9L30.5,31.6z M29.5,32.4c-0.4,0.2-0.8,0.3-1.2,0.3v0.4c0.5,0,1-0.1,1.4-0.3L29.5,32.4z M28.3,32.7
	c-0.9,0-1.6-0.3-2.1-0.8l-0.3,0.3c0.6,0.6,1.4,1,2.4,1V32.7z M26.2,31.8c-0.5-0.6-0.8-1.3-0.8-2.2h-0.4c0,1,0.3,1.8,0.9,2.5
	L26.2,31.8z M25.3,29.6c0-0.5,0.1-1,0.3-1.3l-0.4-0.2c-0.2,0.4-0.3,1-0.3,1.5L25.3,29.6z M25.6,28.3c0.1-0.3,0.3-0.5,0.6-0.7
	L26,27.3c-0.3,0.2-0.5,0.5-0.7,0.9L25.6,28.3z M26.2,27.6c0.1-0.1,0.2-0.1,0.3,0l0.3-0.2c-0.2-0.3-0.6-0.3-0.9-0.1L26.2,27.6z
	 M26.5,27.6L26.5,27.6l0.4-0.1l0,0L26.5,27.6z M26.6,27.6c0.1,0.1,0,0.2-0.1,0.3l0.2,0.3c0.3-0.2,0.4-0.6,0.1-0.9L26.6,27.6z
	 M26.5,28c-0.2,0.2-0.4,0.3-0.5,0.5l0.3,0.2c0.1-0.2,0.2-0.3,0.4-0.4L26.5,28z M26,28.5c-0.2,0.3-0.3,0.6-0.3,1h0.4
	c0-0.3,0.1-0.6,0.3-0.8L26,28.5z M25.7,29.5c0,0.6,0.2,1,0.7,1.4l0.2-0.3c-0.4-0.2-0.5-0.6-0.5-1H25.7z M26.4,30.8
	c0.5,0.3,1.1,0.5,1.8,0.5v-0.4c-0.7,0-1.3-0.1-1.6-0.4L26.4,30.8z M28.2,31.3c0.7,0,1.3-0.2,1.8-0.5l-0.2-0.3
	c-0.4,0.3-0.9,0.4-1.6,0.4V31.3z M30,30.8c0.5-0.4,0.7-0.8,0.7-1.4h-0.4c0,0.5-0.2,0.8-0.6,1.1L30,30.8z M30.7,29.3
	c0-0.4-0.1-0.7-0.4-1L30,28.6c0.2,0.2,0.3,0.5,0.3,0.8H30.7z M30.4,28.3c-0.2-0.2-0.4-0.4-0.6-0.5l-0.2,0.3c0.2,0.1,0.4,0.3,0.5,0.4
	L30.4,28.3z M29.8,27.8c-0.1-0.1-0.1-0.3-0.1-0.4l-0.3-0.2c-0.2,0.3-0.1,0.7,0.1,0.9L29.8,27.8z"/>
<path class="st0" d="M27.3,22.1c0.3-0.1,0.6-0.1,0.9-0.1c0.7,0,1.3,0.1,1.7,0.4c0.4,0.2,0.6,0.5,0.6,0.9c0,0.3-0.2,0.6-0.6,0.9
	c-0.4,0.2-1,0.4-1.7,0.4c-0.1,0-0.2,0-0.3,0c-0.3,0-0.5,0-0.7-0.1c-0.2-0.1-0.4-0.1-0.6-0.2C26.2,24,26,23.7,26,23.3
	c0-0.4,0.2-0.7,0.6-0.9c0,0,0.1,0,0.1,0l0,0C26.9,22.3,27.1,22.2,27.3,22.1z M27.7,26.5c0.2,0,0.4,0.1,0.6,0.1
	c0.5,0,0.9-0.1,1.3-0.3c0.4-0.2,0.8-0.5,1.1-0.8c0.2-0.3,0.4-0.6,0.6-1c0.1-0.4,0.2-0.8,0.2-1.2c0-0.4-0.1-0.8-0.2-1.3
	c-0.2-0.4-0.3-0.7-0.6-1c-0.3-0.3-0.7-0.6-1.1-0.8c-0.4-0.2-0.9-0.3-1.3-0.3c-0.5,0-0.9,0.1-1.4,0.3c-0.3,0.1-0.5,0.3-0.6,0.4
	c-0.1,0.1-0.3,0.2-0.4,0.4l0,0c-0.2,0.2-0.4,0.6-0.6,1c-0.1,0.4-0.2,0.8-0.2,1.2c0,0.5,0.1,0.9,0.2,1.2c0.2,0.4,0.4,0.8,0.6,1
	c0.3,0.3,0.7,0.6,1.1,0.8C27.2,26.4,27.4,26.5,27.7,26.5z"/>
<defs>
	<filter id="Adobe_OpacityMaskFilter_6_" filterUnits="userSpaceOnUse" x="24.9" y="19.8" width="6.9" height="7">
		<feColorMatrix  type="matrix" values="1 0 0 0 0  0 1 0 0 0  0 0 1 0 0  0 0 0 1 0"/>
	</filter>
</defs>
<mask maskUnits="userSpaceOnUse" x="24.9" y="19.8" width="6.9" height="7" id="g_1_">
	<path class="st17" d="M24.1,19h8v8h-8L24.1,19z"/>
	<path class="st2" d="M27.3,22.1c0.3-0.1,0.6-0.1,0.9-0.1c0.7,0,1.3,0.1,1.7,0.4c0.4,0.2,0.6,0.5,0.6,0.9c0,0.3-0.2,0.6-0.6,0.9
		c-0.4,0.2-1,0.4-1.7,0.4c-0.1,0-0.2,0-0.3,0c-0.3,0-0.5,0-0.7-0.1c-0.2-0.1-0.4-0.1-0.6-0.2C26.2,24,26,23.7,26,23.3
		c0-0.4,0.2-0.7,0.6-0.9c0,0,0.1,0,0.1,0l0,0C26.9,22.3,27.1,22.2,27.3,22.1z M27.7,26.5c0.2,0,0.4,0.1,0.6,0.1
		c0.5,0,0.9-0.1,1.3-0.3c0.4-0.2,0.8-0.5,1.1-0.8c0.2-0.3,0.4-0.6,0.6-1c0.1-0.4,0.2-0.8,0.2-1.2c0-0.4-0.1-0.8-0.2-1.3
		c-0.2-0.4-0.3-0.7-0.6-1c-0.3-0.3-0.7-0.6-1.1-0.8c-0.4-0.2-0.9-0.3-1.3-0.3c-0.5,0-0.9,0.1-1.4,0.3c-0.3,0.1-0.5,0.3-0.6,0.4
		c-0.1,0.1-0.3,0.2-0.4,0.4l0,0c-0.2,0.2-0.4,0.6-0.6,1c-0.1,0.4-0.2,0.8-0.2,1.2c0,0.5,0.1,0.9,0.2,1.2c0.2,0.4,0.4,0.8,0.6,1
		c0.3,0.3,0.7,0.6,1.1,0.8C27.2,26.4,27.4,26.5,27.7,26.5z"/>
</mask>
<path class="st18" d="M27.3,22.1l0,0.2l0,0L27.3,22.1z M29.9,22.4l0.1-0.2l0,0L29.9,22.4z M29.9,24.2l0.1,0.2l0,0L29.9,24.2z
	 M27.9,24.5l0-0.2l0,0l0,0L27.9,24.5z M27.2,24.4l-0.1,0.2l0,0L27.2,24.4z M26.6,24.2l0.1-0.2l0,0L26.6,24.2z M26.6,22.4l0.1,0.2
	l0,0L26.6,22.4z M26.7,22.3l0.1,0.2l0,0l0,0L26.7,22.3z M26.7,22.3l0.1,0.2l0,0L26.7,22.3z M27.7,26.5l0,0.2l0,0L27.7,26.5z
	 M29.6,26.3l0.1,0.2l0,0L29.6,26.3z M30.7,25.5l0.1,0.1l0,0L30.7,25.5z M31.3,24.5l0.2,0.1l0,0L31.3,24.5z M31.5,23.3h0.2l0,0
	L31.5,23.3z M31.3,22l-0.2,0.1l0,0L31.3,22z M30.7,21l0.1-0.1l0,0L30.7,21z M29.6,20.2l-0.1,0.2L29.6,20.2z M26.9,20.2l-0.1-0.2l0,0
	L26.9,20.2z M26.3,20.6l0.1,0.2l0,0L26.3,20.6z M25.9,21l0.1,0.1l0,0L25.9,21z M25.9,21l-0.1-0.1l0,0L25.9,21z M25.3,22.1L25.1,22
	l0,0L25.3,22.1z M25.3,24.5l0.2-0.1l0,0L25.3,24.5z M25.9,25.5l0.1-0.1l0,0L25.9,25.5z M27,26.3l0.1-0.2l0,0L27,26.3z M28.2,21.9
	c-0.4,0-0.7,0-1,0.1l0.1,0.4c0.2-0.1,0.5-0.1,0.9-0.1L28.2,21.9z M30,22.2c-0.5-0.3-1-0.4-1.8-0.4v0.4c0.7,0,1.2,0.1,1.6,0.3
	L30,22.2z M30.7,23.3c0-0.2-0.1-0.4-0.2-0.6c-0.1-0.2-0.3-0.3-0.5-0.5l-0.2,0.3c0.2,0.1,0.3,0.2,0.4,0.3c0.1,0.1,0.1,0.2,0.1,0.4
	H30.7z M30,24.3c0.4-0.2,0.7-0.6,0.7-1h-0.4c0,0.3-0.1,0.5-0.5,0.7L30,24.3z M28.2,24.7c0.7,0,1.3-0.1,1.8-0.4L29.8,24
	c-0.4,0.2-0.9,0.3-1.6,0.3V24.7z M27.9,24.7c0.1,0,0.2,0,0.4,0v-0.4c-0.1,0-0.2,0-0.3,0L27.9,24.7z M27.1,24.6
	c0.3,0.1,0.5,0.1,0.8,0.1l0-0.4c-0.2,0-0.5,0-0.7-0.1L27.1,24.6z M26.5,24.4c0.2,0.1,0.4,0.2,0.6,0.3l0.1-0.4
	c-0.2-0.1-0.4-0.1-0.5-0.2L26.5,24.4z M25.8,23.3c0,0.2,0.1,0.4,0.2,0.6c0.1,0.2,0.3,0.3,0.5,0.4l0.2-0.3c-0.2-0.1-0.3-0.2-0.3-0.3
	c-0.1-0.1-0.1-0.2-0.1-0.4L25.8,23.3z M26.5,22.2c-0.2,0.1-0.4,0.3-0.5,0.5c-0.1,0.2-0.2,0.4-0.2,0.6h0.4c0-0.2,0-0.3,0.1-0.4
	c0.1-0.1,0.2-0.2,0.4-0.3L26.5,22.2z M26.6,22.2c0,0-0.1,0-0.1,0.1l0.2,0.3c0,0,0,0,0,0c0,0,0,0,0,0c0,0,0,0,0,0L26.6,22.2z
	 M26.6,22.2L26.6,22.2l0.1,0.4l0,0L26.6,22.2z M27.3,21.9c-0.3,0.1-0.5,0.1-0.7,0.2l0.2,0.4c0.1-0.1,0.3-0.1,0.6-0.2L27.3,21.9z
	 M28.3,26.4c-0.2,0-0.4,0-0.5-0.1l-0.1,0.4c0.2,0,0.4,0.1,0.6,0.1V26.4z M29.6,26.1c-0.4,0.2-0.8,0.2-1.3,0.2v0.4
	c0.5,0,1-0.1,1.4-0.3L29.6,26.1z M30.6,25.4c-0.3,0.3-0.6,0.6-1,0.7l0.2,0.4c0.4-0.2,0.8-0.5,1.1-0.8L30.6,25.4z M31.1,24.5
	c-0.2,0.4-0.3,0.7-0.6,1l0.3,0.3c0.3-0.3,0.5-0.6,0.6-1.1L31.1,24.5z M31.3,23.3c0,0.4-0.1,0.8-0.2,1.2l0.4,0.1
	c0.2-0.4,0.2-0.8,0.2-1.3H31.3z M31.1,22.1c0.1,0.4,0.2,0.8,0.2,1.2l0.4,0c0-0.4-0.1-0.9-0.2-1.3L31.1,22.1z M30.5,21.1
	c0.2,0.3,0.4,0.6,0.6,1l0.4-0.1c-0.2-0.4-0.4-0.8-0.6-1.1L30.5,21.1z M29.5,20.4c0.4,0.2,0.7,0.4,1,0.7l0.3-0.3
	c-0.3-0.4-0.7-0.6-1.1-0.8L29.5,20.4z M28.3,20.2c0.5,0,0.8,0.1,1.3,0.3l0.2-0.4c-0.5-0.2-0.9-0.3-1.4-0.3V20.2z M27,20.4
	c0.4-0.2,0.8-0.3,1.3-0.3v-0.4c-0.5,0-1,0.1-1.4,0.3L27,20.4z M26.4,20.8c0.1-0.1,0.3-0.2,0.6-0.4l-0.2-0.4
	c-0.3,0.1-0.5,0.3-0.7,0.4L26.4,20.8z M26.1,21.1c0.1-0.1,0.2-0.2,0.4-0.3l-0.3-0.3c-0.2,0.1-0.3,0.3-0.4,0.4L26.1,21.1z M26,21.2
	L26,21.2l-0.2-0.3l0,0L26,21.2z M25.5,22.1c0.2-0.4,0.4-0.7,0.6-1l-0.3-0.3c-0.3,0.3-0.5,0.6-0.6,1.1L25.5,22.1z M25.3,23.3
	c0-0.4,0.1-0.8,0.2-1.2L25.1,22c-0.2,0.4-0.2,0.8-0.2,1.3H25.3z M25.5,24.4c-0.1-0.3-0.2-0.7-0.2-1.2h-0.4c0,0.5,0.1,0.9,0.2,1.3
	L25.5,24.4z M26,25.4c-0.2-0.2-0.4-0.5-0.6-0.9l-0.4,0.1c0.2,0.4,0.4,0.8,0.6,1.1L26,25.4z M27,26.1c-0.4-0.2-0.7-0.4-1-0.7
	l-0.3,0.3c0.3,0.4,0.7,0.6,1.1,0.8L27,26.1z M27.8,26.3c-0.3-0.1-0.5-0.1-0.7-0.2l-0.2,0.4c0.2,0.1,0.5,0.2,0.8,0.2L27.8,26.3z"/>
<path class="st0" d="M31.3,18.7c0,0.2-0.1,0.4-0.2,0.5c-0.1,0.1-0.3,0.2-0.5,0.2c-0.2,0-0.4-0.1-0.5-0.2c-0.1-0.1-0.2-0.3-0.2-0.5
	s0.1-0.4,0.2-0.5c0.1-0.1,0.3-0.2,0.5-0.2c0.2,0,0.4,0.1,0.5,0.2C31.2,18.3,31.3,18.4,31.3,18.7z"/>
<defs>
	<filter id="Adobe_OpacityMaskFilter_7_" filterUnits="userSpaceOnUse" x="29.6" y="17.7" width="1.8" height="1.8">
		<feColorMatrix  type="matrix" values="1 0 0 0 0  0 1 0 0 0  0 0 1 0 0  0 0 0 1 0"/>
	</filter>
</defs>
<mask maskUnits="userSpaceOnUse" x="29.6" y="17.7" width="1.8" height="1.8" id="h_1_">
	<path class="st19" d="M28.8,16.9h3v3h-3V16.9z"/>
	<path class="st2" d="M31.3,18.7c0,0.2-0.1,0.4-0.2,0.5c-0.1,0.1-0.3,0.2-0.5,0.2c-0.2,0-0.4-0.1-0.5-0.2c-0.1-0.1-0.2-0.3-0.2-0.5
		s0.1-0.4,0.2-0.5c0.1-0.1,0.3-0.2,0.5-0.2c0.2,0,0.4,0.1,0.5,0.2C31.2,18.3,31.3,18.4,31.3,18.7z"/>
</mask>
<path class="st20" d="M31.1,19.2L30.9,19l0,0L31.1,19.2z M30.1,19.2l0.1-0.1l0,0L30.1,19.2z M30.1,18.2l0.1,0.1l0,0L30.1,18.2z
	 M31.1,18.2l-0.1,0.1l0,0l0,0L31.1,18.2z M31.1,18.7c0,0.1-0.1,0.3-0.1,0.4l0.3,0.3c0.2-0.2,0.3-0.4,0.3-0.7H31.1z M30.9,19
	c-0.1,0.1-0.2,0.2-0.4,0.2v0.4c0.3,0,0.5-0.1,0.6-0.3L30.9,19z M30.6,19.2c-0.1,0-0.3,0-0.4-0.1l-0.3,0.3c0.2,0.2,0.4,0.3,0.7,0.3
	V19.2z M30.2,19c-0.1-0.1-0.1-0.2-0.1-0.4h-0.4c0,0.2,0.1,0.5,0.3,0.6L30.2,19z M30,18.7c0-0.2,0-0.3,0.1-0.4L29.9,18
	c-0.2,0.2-0.3,0.4-0.3,0.7H30z M30.2,18.3c0.1-0.1,0.2-0.1,0.4-0.1v-0.4c-0.2,0-0.5,0.1-0.6,0.3L30.2,18.3z M30.6,18.1
	c0.1,0,0.3,0,0.4,0.1l0.3-0.3c-0.2-0.2-0.4-0.3-0.7-0.3V18.1z M30.9,18.3c0.1,0.1,0.1,0.2,0.1,0.3h0.4c0-0.3-0.1-0.5-0.3-0.6
	L30.9,18.3z"/>
<path class="st10" d="M29.7,22.9v-0.1h-0.1h-1h-0.1v0.1V24v0.1h0.1c0.3,0,0.6-0.1,0.8-0.3C29.5,23.5,29.7,23.2,29.7,22.9z"/>
<path class="st10" d="M28,22.9v-0.1h-0.1h-1h-0.1v0.1c0,0.3,0.1,0.5,0.2,0.7l0,0l0,0c0,0,0,0,0,0.1l0,0c0,0,0,0,0.1,0.1
	c0.2,0.2,0.5,0.3,0.8,0.3H28V24V22.9z"/>
</svg>
