<svg fill="none" height="40" viewBox="0 0 179 40" width="179" xmlns="http://www.w3.org/2000/svg" xmlns:xlink="http://www.w3.org/1999/xlink"><mask id="a" fill="#000" height="9" maskUnits="userSpaceOnUse" width="9" x="23.3047" y="24.8696"><path d="m23.3047 24.8696h9v9h-9z" fill="#fff"/><path clip-rule="evenodd" d="m25.8645 26.3667c-.0775 0-.1528.0277-.2121.0792-.3112.2696-.5406.5525-.7016.8644-.2336.4312-.3512.9586-.3512 1.5702 0 1.0318.3187 1.8705.9749 2.5638.6387.6607 1.4471.9821 2.4709.9821.5461 0 1.0092-.0953 1.4566-.2997.4447-.2034.8169-.5011 1.1378-.9105.2232-.3102.4103-.6597.5523-1.0332.1199-.3508.1815-.7704.1815-1.2429 0-.6837-.1466-1.285-.4363-1.7874-.1851-.3498-.4702-.6505-.8993-.9508-.1349-.0771-.3422-.0297-.4429.1111-.1036.1599-.0407.3818.0844.4948.2718.1701.5058.3755.6762.5951.2606.326.3995.719.3995 1.1347 0 .6435-.2672 1.1746-.7945 1.5791-.5109.3914-1.1658.5816-2.0036.5816-.8843 0-1.5611-.1642-2.0688-.5015-.5142-.3573-.7736-.8597-.7736-1.495 0-.3887.1232-.7632.3656-1.1136.1519-.2153.3204-.3768.582-.5588.0756-.0564.129-.1484.1427-.2496.0124-.089-.0081-.1727-.0573-.236l-.0254-.0452c-.0522-.0719-.1281-.1177-.2154-.1292-.014-.002-.0284-.0027-.0424-.0027zm2.1809 6.3577c-1.0916 0-1.9942-.361-2.6824-1.0727-.7025-.7424-1.0583-1.6744-1.0583-2.7712 0-.662.13-1.2376.3864-1.7107.1773-.3435.4295-.6554.7697-.9504.1333-.1154.3092-.1685.4845-.1454.174.0231.3249.1167.4249.2637l.0189.035c.0916.1249.13.2835.1079.4473-.0245.181-.1209.3459-.2643.4523-.2382.1655-.3806.3017-.5119.488-.2066.298-.3115.6151-.3115.9415 0 .5311.2164.9511.6432 1.2478.4559.3026 1.0796.4507 1.9046.4507.771 0 1.3682-.1705 1.8257-.5213.4497-.3448.6778-.7961.6778-1.3414 0-.3514-.1127-.6709-.3353-.9491-.1525-.1962-.3633-.3798-.6103-.5328l-.0183-.0135c-.2597-.2222-.3245-.624-.1453-.8963l.0026-.004c.1877-.2657.5647-.3518.841-.1919.4797.335.7938.6689.9994 1.0573.3135.5436.4738 1.1957.4738 1.9328 0 .5054-.0671.9581-.1994 1.3451-.1532.4025-.3526.7751-.5944 1.1113-.3499.4464-.7696.7817-1.2512 1.0019-.4868.2225-.9883.326-1.5778.326z" fill="#000" fill-rule="evenodd"/></mask><mask id="b" fill="#000" height="8" maskUnits="userSpaceOnUse" width="9" x="23.4521" y="25.0186"><path d="m23.4521 25.0186h9v8h-9z" fill="#fff"/><path clip-rule="evenodd" d="m29.4741 26.2283c.147-.2087.4415-.2681.6478-.1491.3829.2684.7214.5812.9427.9983.3092.5364.4562 1.1624.4562 1.8626 0 .4616-.0587.9086-.1913 1.2963-.1473.3873-.3389.7447-.5742 1.0727-.3388.4319-.7364.7448-1.1929.9534-.4568.2087-.9427.3129-1.5171.3129-1.0603 0-1.9144-.3425-2.5768-1.0279-.6628-.7002-1.0164-1.5795-1.0164-2.6671 0-.626.118-1.1772.3683-1.6391.1766-.3425.4268-.6405.7364-.9089.2059-.1787.5298-.149.6921.0894l.0146.03c.1623.2086.103.5363-.1176.7002-.2359.1638-.3979.3128-.5451.5215-.2063.298-.3386.6406-.3386 1.0279 0 .5812.2356 1.0431.7068 1.3708.4711.3129 1.1193.4767 1.9883.4767.7951 0 1.4285-.1787 1.9143-.5509.4859-.3725.7361-.8644.7361-1.4604 0-.3725-.1176-.7299-.3679-1.0431-.1619-.2083-.3828-.4022-.6481-.566-.1916-.1639-.2649-.4767-.1176-.7002z" fill="#000" fill-rule="evenodd"/></mask><mask id="c" fill="#000" height="9" maskUnits="userSpaceOnUse" width="9" x="23.3633" y="16.8252"><path d="m23.3633 16.8252h9v9h-9z" fill="#fff"/><path clip-rule="evenodd" d="m26.929 20.3096c.2942-.0676.6449-.1006 1.0717-.1006.7915 0 1.4308.1388 1.8984.4115.4331.2601.6344.5884.6344 1.0338 0 .3936-.2134.7213-.6344.9745-.4542.2727-1.0929.4111-1.8984.4111-.1313 0-.2558 0-.376-.0148-.2861-.0132-.5751-.0521-.8528-.1144-.2825-.0752-.5005-.1619-.6722-.2687-.4252-.242-.6318-.57-.6318-1.0025 0-.4316.2027-.7609.6413-1.0385.0332-.0221.0801-.0461.1121-.0567l.0195-.0082c.1854-.094.4034-.1658.6882-.2265zm.4767 5.0232c.2079.0303.4226.0613.6543.0613.5696 0 1.0554-.0936 1.5348-.297.4737-.2239.8853-.5262 1.2248-.8994.2669-.298.4875-.6781.6768-1.1647.1626-.4338.2447-.9079.2447-1.4176-.0251-.4187-.0775-.9597-.26-1.4304-.1769-.4721-.3982-.8529-.6768-1.1644-.363-.3989-.7651-.6887-1.2297-.8858-.4976-.2114-.9838-.3096-1.5296-.3096-.5914 0-1.0831.0989-1.55.3122-.3099.1477-.5338.2875-.7215.4507-.17.1374-.3199.2785-.4392.413l-.0469.0475c-.2591.2759-.481.6574-.6788 1.1674-.1629.4338-.2453.9075-.2453 1.4083 0 .5281.0883 1.0039.26 1.4087.1802.481.4024.8581.6771 1.1509.363.3989.7654.6887 1.2272.8845.2437.1094.5119.1905.8781.2644z" fill="#000" fill-rule="evenodd"/></mask><mask id="d" fill="#000" height="3" maskUnits="userSpaceOnUse" width="3" x="28.8271" y="14.5156"><path d="m28.8271 14.5156h3v3h-3z" fill="#fff"/><path clip-rule="evenodd" d="m31.4473 16.32c0 .2087-.0737.4322-.236.5812-.1619.1639-.3532.2532-.5738.2532-.2212 0-.4272-.0745-.5744-.2383-.162-.1639-.236-.3577-.236-.5812 0-.2236.074-.4319.236-.5809.1619-.1639.3532-.2384.5744-.2384.2206 0 .4269.0745.5738.2384.1623.1338.236.3277.236.566z" fill="#000" fill-rule="evenodd"/></mask><mask id="e" fill="#000" height="8" maskUnits="userSpaceOnUse" width="8" x="24.0117" y="26.0041"><path d="m24.0117 26.0041h8v8h-8z" fill="#fff"/><path clip-rule="evenodd" d="m26.3767 27.4389c-.0678 0-.1336.0242-.1855.0692-.2722.2359-.4729.4833-.6137.7561-.2043.3772-.3072.8386-.3072 1.3735 0 .9026.2787 1.6362.8528 2.2426.5586.5779 1.2657.859 2.1613.859.4777 0 .8827-.0833 1.274-.2621.3891-.1779.7145-.4383.9953-.7965.1952-.2713.3588-.577.4831-.9037.1049-.3068.1588-.6739.1588-1.0871 0-.5981-.1283-1.1241-.3817-1.5635-.1619-.306-.4113-.569-.7866-.8317-.118-.0674-.2993-.0259-.3874.0972-.0906.1399-.0356.3339.0738.4328.2377.1488.4424.3285.5915.5205.228.2852.3494.629.3494.9926 0 .5629-.2337 1.0274-.6949 1.3812-.4469.3423-1.0198.5087-1.7526.5087-.7735 0-1.3655-.1436-1.8096-.4386-.4497-.3126-.6766-.752-.6766-1.3077 0-.34.1077-.6676.3198-.9741.1328-.1883.2802-.3296.509-.4888.0662-.0493.1129-.1297.1249-.2183.0108-.0778-.0071-.1511-.0502-.2064l-.0222-.0395c-.0456-.0629-.112-.103-.1884-.1131-.0123-.0017-.0248-.0023-.0371-.0023zm1.907 5.5611c-.9548 0-1.7443-.3158-2.3462-.9383-.6145-.6494-.9258-1.4646-.9258-2.424 0-.5791.1137-1.0825.3381-1.4963.155-.3005.3756-.5733.6732-.8314.1165-.1009.2704-.1473.4238-.1272.1522.0202.2842.1021.3717.2307l.0165.0306c.0801.1093.1137.248.0943.3913-.0213.1583-.1057.3025-.2311.3956-.2084.1448-.3329.2639-.4478.4268-.1807.2607-.2725.5381-.2725.8236 0 .4645.1893.8319.5627 1.0914.3987.2648.9442.3942 1.6659.3942.6744 0 1.1968-.1491 1.597-.4559.3933-.3016.5928-.6964.5928-1.1733 0-.3074-.0986-.5868-.2933-.8302-.1334-.1716-.3178-.3322-.5338-.466l-.016-.0118c-.2271-.1944-.2839-.5459-.1271-.7841l.0023-.0035c.1641-.2324.4939-.3076.7356-.1678.4196.293.6943.5851.8742.9248.2741.4755.4144 1.0459.4144 1.6907 0 .442-.0587.838-.1745 1.1765-.1339.3521-.3083.6779-.5198.9721-.3061.3904-.6732.6837-1.0945.8763-.4258.1946-.8645.2852-1.3801.2852z" fill="#000" fill-rule="evenodd"/></mask><mask id="f" fill="#000" height="7" maskUnits="userSpaceOnUse" width="8" x="24.1426" y="26.1344"><path d="m24.1426 26.1344h8v7h-8z" fill="#fff"/><path clip-rule="evenodd" d="m29.5353 27.3178c.1285-.1825.3862-.2344.5666-.1304.3349.2348.631.5084.8246.8732.2705.4692.399 1.0168.399 1.6293 0 .4037-.0513.7947-.1673 1.1338-.1288.3388-.2964.6514-.5022.9383-.2964.3778-.6442.6515-1.0435.834-.3996.1825-.8245.2736-1.327.2736-.9275 0-1.6745-.2996-2.2539-.8991-.5798-.6125-.889-1.3815-.889-2.3328 0-.5476.1032-1.0298.322-1.4338.1545-.2996.3734-.5603.6442-.795.1801-.1563.4634-.1303.6054.0782l.0128.0262c.1419.1825.0901.4692-.1029.6125-.2063.1433-.348.2736-.4768.4562-.1804.2607-.2962.5603-.2962.8991 0 .5084.2061.9124.6182 1.199.4122.2737.9791.417 1.7392.417.6955 0 1.2496-.1563 1.6745-.4819.425-.3258.6439-.7561.6439-1.2774 0-.3259-.1029-.6385-.3218-.9124-.1417-.1823-.3349-.3518-.5669-.4951-.1676-.1433-.2317-.417-.1029-.6125z" fill="#000" fill-rule="evenodd"/></mask><mask id="g" fill="#000" height="8" maskUnits="userSpaceOnUse" width="8" x="24.0645" y="18.9677"><path d="m24.0645 18.9677h8v8h-8z" fill="#fff"/><path clip-rule="evenodd" d="m27.3085 22.1408c.2574-.0592.564-.088.9374-.088.6923 0 1.2515.1214 1.6605.3599.3788.2275.555.5147.555.9043 0 .3443-.1867.6309-.555.8524-.3973.2385-.9559.3596-1.6605.3596-.1148 0-.2237 0-.3289-.013-.2502-.0115-.503-.0456-.7459-.1001-.2471-.0657-.4378-.1416-.588-.235-.3719-.2116-.5526-.4986-.5526-.8769 0-.3775.1773-.6655.5609-.9083.0291-.0194.0701-.0404.098-.0496l.0171-.0072c.1622-.0822.3529-.1451.602-.1981zm.4172 4.3937c.1818.0266.3696.0537.5723.0537.4982 0 .9232-.0819 1.3424-.2598.4145-.1958.7744-.4603 1.0714-.7867.2334-.2607.4264-.5932.592-1.0188.1422-.3795.2141-.7941.2141-1.2399-.022-.3663-.0679-.8395-.2275-1.2512-.1548-.413-.3483-.746-.592-1.0185-.3175-.349-.6692-.6024-1.0756-.7749-.4353-.1848-.8605-.2707-1.3379-.2707-.5173 0-.9474.0865-1.3559.273-.271.1292-.4668.2515-.631.3942-.1488.1203-.2799.2437-.3842.3613l-.041.0416c-.2266.2413-.4207.575-.5937 1.0211-.1425.3794-.2146.7938-.2146 1.2318 0 .462.0772.8781.2274 1.2322.1576.4207.352.7506.5923 1.0067.3175.3489.6695.6024 1.0733.7737.2132.0957.4478.1666.7682.2312z" fill="#000" fill-rule="evenodd"/></mask><mask id="h" fill="#000" height="3" maskUnits="userSpaceOnUse" width="3" x="28.8438" y="16.9474"><path d="m28.8438 16.9474h3v3h-3z" fill="#fff"/><path clip-rule="evenodd" d="m31.2609 18.6511c0 .1825-.0645.378-.2064.5083-.1416.1434-.3089.2215-.5019.2215-.1935 0-.3737-.0652-.5025-.2085-.1417-.1433-.2063-.3129-.2063-.5084s.0646-.3777.2063-.5081c.1417-.1433.309-.2085.5025-.2085.193 0 .3734.0652.5019.2085.1419.1171.2064.2867.2064.4952z" fill="#000" fill-rule="evenodd"/></mask><g clip-rule="evenodd" fill-rule="evenodd"><path d="m159.399 20.0002c0-2.2753.943-4.1836 2.32-5.6516s3.406-2.3486 5.58-2.3486c2.246 0 4.203.8806 5.653 2.3486 1.449 1.468 2.319 3.3763 2.319 5.6516s-.943 4.1832-2.319 5.6512c-1.45 1.468-3.479 2.3486-5.653 2.3486-2.247 0-4.203-.8806-5.58-2.3486-1.45-1.468-2.32-3.3759-2.32-5.6512zm2.247-.0002c0 1.6147.652 3.0093 1.667 4.0366 1.014 1.0277 2.464 1.6883 3.986 1.6883 1.449 0 2.899-.6606 3.986-1.6883 1.014-1.0273 1.667-2.4219 1.667-4.0366 0-1.6146-.653-3.0093-1.667-4.0369-1.015-1.0273-2.464-1.688-3.986-1.688-1.594 0-2.972.6607-3.986 1.688-1.015 1.0276-1.667 2.4223-1.667 4.0369z" fill="#fff"/><path d="m120.048 19.9269c-.072 4.6972 3.189 7.9998 7.537 7.9998 2.826 0 5.943-1.9079 7.029-4.9172.218-.514.363-1.3947.436-2.7156h-8.334v2.2016h5.725c-.943 2.2753-2.971 3.2296-4.856 3.2296-3.044 0-5.362-2.4223-5.362-5.7249 0-3.3025 2.318-5.6516 5.362-5.6516 1.957 0 4.421.8811 5 3.3763h2.392c-.797-4.1836-4.421-5.7249-7.319-5.7249-4.276 0-7.61 3.2297-7.61 7.9269z" fill="#fff"/><path d="m145.993 14.3487c-1.305 1.468-2.175 3.3758-2.175 5.5778s.87 4.1103 2.175 5.5783c1.376 1.5413 3.261 2.4219 5.362 2.4219 3.624 0 6.45-2.4219 7.319-5.9444h-2.173c-.798 2.3482-2.827 3.7429-5.146 3.7429-1.522 0-2.826-.6607-3.769-1.6884-.941-1.0272-1.593-2.4219-1.593-3.9632 0-1.6151.652-3.0089 1.593-4.037.943-1.0273 2.319-1.6879 3.769-1.6879 2.247 0 4.203 1.1743 5 3.5233h2.174c-.869-3.5233-3.696-5.7982-7.174-5.7982-2.101 0-3.986.8806-5.362 2.2749z" fill="#fff"/><path d="m52 12.1469v15.5597l7.1018.0733c2.9714 0 4.4209-2.3486 4.4209-4.6972 0-1.468-.6524-3.1564-2.3919-3.8904 1.5943-1.1005 1.7395-2.9351 1.0871-4.4768-.5795-1.468-1.8118-2.5686-3.768-2.5686zm2.2461 2.2751h4.2761c2.3914 0 2.3914 4.0366-.0724 4.0366h-4.2037zm4.8558 6.3121h-4.7828v4.9172h4.7828c1.5215 0 2.2467-1.2472 2.2467-2.422 0-1.2476-.7252-2.4952-2.2467-2.4952z" fill="#fff"/><path d="m116.57 12.2201v10.9357l-7.537-10.9357h-1.739v15.6334l2.174-.0737v-10.9363l7.464 10.9363h1.812v-15.5597z" fill="#fff"/><path d="m85.9883 12.2201v2.2753h4.638v13.431l2.3194-.0733v-13.3577h4.6372v-2.2753z" fill="#fff"/><path d="m74.248 12.2201v2.2753h4.6381v13.431l2.3194-.0733v-13.3577h4.638v-2.2753z" fill="#fff"/><path d="m98.2354 12.2939v2.2019h2.8986v11.0824h-2.8986v2.202h7.9716v-2.202h-2.899v-11.0824h2.899v-2.2019z" fill="#fff"/><path d="m64.6094 12.2939v15.5596l9.4208-.0733v-2.202h-7.1738v-4.4035h6.957v-2.2753h-6.957v-4.4036h7.1738v-2.2019z" fill="#fff"/><path d="m176.212 26.4585c-.072.7344.508 1.3947 1.305 1.3947s1.376-.6607 1.376-1.3947c0-.8073-.579-1.3942-1.376-1.3942-.725 0-1.305.5869-1.305 1.3942z" fill="#fff"/><path d="m21.8166 14.3235c-.5448.3577-1.1486.6257-1.8407.7747-.6921.1491-1.3992.2236-2.1503.2236h-5.4194l1.2075-8.80554h6.2296c1.5905 0 2.7097.43187 3.3282 1.29627.6185.86406.854 1.87714.7218 3.05437-.118.8047-.3536 1.4898-.7218 2.0562-.3682.5809-.8247 1.0431-1.3549 1.4004zm1.5022 9.8038c-.1326 1.0579-.4712 1.9219-1.0013 2.5628-.5302.6409-1.134 1.1473-1.8411 1.5346-.7067.3726-1.4285.6257-2.1646.7599-.7514.1194-1.4285.1939-2.0323.1939h-5.832l1.4728-10.3105h5.876c1.929 0 3.4019.4471 4.4032 1.326.9867.864 1.3695 2.1751 1.1193 3.9333zm2.857-9.5358c1.075-1.0724 1.7228-2.4731 1.944-4.1716.162-1.25144.088-2.35419-.2212-3.29276-.3089-.93857-.8244-1.69846-1.5169-2.30934-.7067-.59604-1.5754-1.05791-2.6211-1.35593-1.0456-.29802-2.1945-.46187-3.4608-.46187h-10.1909l-4.1089 29.6647h10.0732c1.4432 0 2.8128-.1787 4.1087-.5512 1.2958-.3577 2.4594-.8941 3.4901-1.5943.3096-.2083.6038-.4322.8837-.6705.2652-.2232.5155-.4767.7511-.7299.0146-.0148.0146-.0148.0296-.0297.3239-.3577.6332-.745.8984-1.1472.3092-.4771.5741-.9834.7804-1.5198.1619-.4022.2796-.8347.3829-1.2814.0146-.0449.0146-.0894.0296-.1491.0437-.1938.0733-.3873.103-.596.059-.4322.0883-.8492.0736-1.2514-.3239-.0152-.6188-.0597-.8837-.1194-.2799-.0745-.5155-.1638-.7071-.2832-.4711-.268-.7067-.6405-.7067-1.132 0-.4919.2356-.8644.7067-1.1625.0444-.0296.1033-.0593.1476-.0745.206-.1041.4416-.1786.7215-.2383-.1473-.2829-.3093-.5512-.5009-.8044-.0293-.0448-.0733-.0893-.1176-.1342-.1326-.1787-.2945-.3428-.4418-.5067-.3682-.3725-.7808-.6854-1.2519-.9534-.7215-.4025-1.5022-.6409-2.3562-.6854v-.0893c1.5758-.4919 2.8866-1.2814 3.9616-2.3694zm1.2666 7.0329c-.0297-.1045-.059-.2087-.0886-.3129h-.0734c0 .2681.088.5064.2353.7151-.0147-.149-.0443-.2832-.0733-.4022z" fill="#25265e"/><path d="m25.8645 26.3667c-.0775 0-.1528.0277-.2121.0792-.3112.2696-.5406.5525-.7016.8644-.2336.4312-.3512.9586-.3512 1.5702 0 1.0318.3187 1.8705.9749 2.5638.6387.6607 1.4471.9821 2.4709.9821.5461 0 1.0092-.0953 1.4566-.2997.4447-.2034.8169-.5011 1.1378-.9105.2232-.3102.4103-.6597.5523-1.0332.1199-.3508.1815-.7704.1815-1.2429 0-.6837-.1466-1.285-.4363-1.7874-.1851-.3498-.4702-.6505-.8993-.9508-.1349-.0771-.3422-.0297-.4429.1111-.1036.1599-.0407.3818.0844.4948.2718.1701.5058.3755.6762.5951.2606.326.3995.719.3995 1.1347 0 .6435-.2672 1.1746-.7945 1.5791-.5109.3914-1.1658.5816-2.0036.5816-.8843 0-1.5611-.1642-2.0688-.5015-.5142-.3573-.7736-.8597-.7736-1.495 0-.3887.1232-.7632.3656-1.1136.1519-.2153.3204-.3768.582-.5588.0756-.0564.129-.1484.1427-.2496.0124-.089-.0081-.1727-.0573-.236l-.0254-.0452c-.0522-.0719-.1281-.1177-.2154-.1292-.014-.002-.0284-.0027-.0424-.0027zm2.1809 6.3577c-1.0916 0-1.9942-.361-2.6824-1.0727-.7025-.7424-1.0583-1.6744-1.0583-2.7712 0-.662.13-1.2376.3864-1.7107.1773-.3435.4295-.6554.7697-.9504.1333-.1154.3092-.1685.4845-.1454.174.0231.3249.1167.4249.2637l.0189.035c.0916.1249.13.2835.1079.4473-.0245.181-.1209.3459-.2643.4523-.2382.1655-.3806.3017-.5119.488-.2066.298-.3115.6151-.3115.9415 0 .5311.2164.9511.6432 1.2478.4559.3026 1.0796.4507 1.9046.4507.771 0 1.3682-.1705 1.8257-.5213.4497-.3448.6778-.7961.6778-1.3414 0-.3514-.1127-.6709-.3353-.9491-.1525-.1962-.3633-.3798-.6103-.5328l-.0183-.0135c-.2597-.2222-.3245-.624-.1453-.8963l.0026-.004c.1877-.2657.5647-.3518.841-.1919.4797.335.7938.6689.9994 1.0573.3135.5436.4738 1.1957.4738 1.9328 0 .5054-.0671.9581-.1994 1.3451-.1532.4025-.3526.7751-.5944 1.1113-.3499.4464-.7696.7817-1.2512 1.0019-.4868.2225-.9883.326-1.5778.326z" fill="#25265e"/></g><path d="m25.6524 26.4459.131.1511zm-.7016.8644.1759.0952.0019-.0035zm.6237 4.134-.1452.1375.0014.0015zm3.9275.6824.0831.1819zm1.1378-.9105.1575.1235.0049-.0067zm.5523-1.0332.1871.0711.0022-.0064zm-.2548-3.0303-.1769.0936.0036.0063zm-.8993-.9508.1146-.1639-.0074-.0052-.0079-.0045zm-.4429.1111-.1628-.1165-.005.0077zm.0844.4948-.1341.1484.0131.0118.0149.0094zm.6762.5951-.158.1226.0018.0023zm-.395 2.7138.1217.1588.0001-.0001zm-4.0724.0801-.1142.1643.0035.0023zm-.408-2.6086-.1634-.1153-.001.0015zm.582-.5588.1143.1643.0053-.004zm.1427-.2496-.1981-.0275-.0001.0007zm-.0573-.236-.1743.0981.0073.0129.0091.0117zm-.0254-.0452.1743-.0981-.0057-.01-.0067-.0093zm-.2154-.1292-.028.198.0018.0002zm-.5439 5.2823-.1452.1375.0015.0015zm-.6719-4.4819.1759.0953.0019-.0036zm.7697-.9504-.1309-.1512-.0002.0001zm.4845-.1454.0263-.1983h-.0002zm.4249.2637.176-.0951-.0049-.009-.0057-.0084zm.0189.035-.1759.0951.0065.012.0081.0111zm.1079.4473-.1982-.0268v.0001zm-.2643.4523.1142.1644.0051-.0038zm-.5119.488-.1634-.1153-.001.0013zm.3317 2.1893-.1141.1643.0035.0023zm3.7303-.0706.1217.1588v-.0001zm.3425-2.2905-.1579.1228.0017.0021zm-.6103-.5328-.1191.1608.0067.0049.0071.0044zm-.0183-.0135-.1303.1524.0113.0083zm-.1453-.8963-.167-.1101-.0001.0001zm.0026-.004-.1634-.1154-.0036.0054zm.841-.1919.1145-.1639-.0069-.0049-.0074-.0043zm.9994 1.0573-.1769.0936.0036.0063zm.2744 3.2779.187.0712.0022-.0065zm-.5944 1.1113.1576.1235.0048-.0067zm-1.2512 1.0019.0831.1819zm-3.7587-6.2317c-.1253 0-.2472.0448-.3431.1281l.262.3022c.0227-.0197.0513-.0303.0811-.0303zm-.3431.128c-.3272.2835-.5738.5859-.7483.9238l.3555.1835c.1475-.2858.3596-.5492.6548-.805zm-.7464.9203c-.253.4669-.3754 1.0289-.3754 1.6655h.4c0-.5865.1128-1.0795.3271-1.475zm-.3754 1.6655c0 1.0784.3352 1.9677 1.0297 2.7013l.2905-.275c-.6181-.6529-.9202-1.441-.9202-2.4263zm1.0311 2.7028c.6808.7043 1.5435 1.0431 2.6147 1.0431v-.4c-.9764 0-1.7306-.304-2.3271-.9211zm2.6147 1.0431c.5716 0 1.0634-.1002 1.5397-.3178l-.1663-.3638c-.4185.1912-.8528.2816-1.3734.2816zm1.5397-.3178c.4757-.2175.8727-.5361 1.2121-.969l-.3148-.2468c-.3025.3859-.6497.6628-1.0636.8521zm1.2171-.9756c.2337-.3249.4289-.6898.5769-1.0789l-.3739-.1422c-.1361.3579-.3151.6919-.5277.9875zm.5792-1.0853c.1286-.3763.1922-.8187.1922-1.3076h-.4c0 .456-.0595.853-.1707 1.1782zm.1922-1.3076c0-.7124-.1529-1.3495-.463-1.8873l-.3466.1998c.2693.4669.4096 1.0325.4096 1.6875zm-.4595-1.881c-.204-.3855-.5146-.7084-.9615-1.0211l-.2293.3278c.4115.2879.6711.5664.8372.8804zm-.9768-1.0308c-.1204-.0688-.2603-.0763-.381-.0469-.1217.0297-.2422.1011-.3238.2152l.3253.2328c.0191-.0267.0525-.0494.0933-.0594.0419-.0102.073-.0028.0876.0055zm-.71.1759c-.086.1328-.0983.2843-.0716.414.0263.1284.0935.251.1897.338l.2682-.2968c-.0288-.026-.0557-.0709-.0661-.1217-.0102-.0494-.0021-.0888.0155-.1159zm.1461.7732c.2551.1596.4704.3499.6243.5481l.316-.2452c-.187-.241-.4396-.4615-.728-.642zm.6261.5504c.2326.2909.3557.6399.3557 1.0098h.4c0-.4615-.1546-.8984-.4433-1.2596zm.3557 1.0098c0 .579-.2364 1.0524-.7162 1.4205l.2435.3173c.5747-.4409.8727-1.0297.8727-1.7378zm-.7161 1.4204c-.4667.3575-1.0749.5403-1.882.5403v.4c.8685 0 1.5702-.1977 2.1253-.6228zm-1.882.5403c-.8618 0-1.4949-.1603-1.9581-.468l-.2214.3331c.5522.3668 1.2726.5349 2.1795.5349zm-1.9547-.4657c-.4593-.3192-.6877-.7597-.6877-1.3308h-.4c0 .6994.2904 1.2638.8595 1.6593zm-.6877-1.3308c0-.344.1084-.6794.3301-.9999l-.3289-.2275c-.2632.3804-.4012.794-.4012 1.2274zm.3291-.9984c.1358-.1926.2862-.3384.5327-.5098l-.2284-.3284c-.2768.1925-.4634.3697-.6312.6077zm.5381-.5137c.1211-.0904.2009-.2318.2213-.3831l-.3964-.0536c-.0069.0511-.034.0937-.0641.116zm.2212-.3823c.0189-.1359-.0113-.2755-.0975-.3864l-.3158.2455c.0122.0157.023.0436.0171.0858zm-.0811-.3617-.0254-.0452-.3486.1962.0254.0452zm-.0378-.0645c-.0838-.1154-.2083-.1912-.3511-.2101l-.0524.3965c.0318.0043.0591.0201.0797.0484zm-.3494-.2099c-.0262-.0037-.0504-.0046-.0703-.0046v.4c.0082 0 .0126.0004.0144.0007zm2.1106 6.3531c-1.0435 0-1.8921-.3432-2.5386-1.0117l-.2875.278c.7299.7549 1.6864 1.1337 2.8261 1.1337zm-2.5371-1.0102c-.6646-.7024-1.0036-1.5839-1.0036-2.6337h-.4c0 1.1438.3727 2.1262 1.1131 2.9086zm-1.0036-2.6337c0-.6363.1249-1.1776.3623-1.6154l-.3517-.1906c-.2755.5083-.4106 1.1183-.4106 1.806zm.3642-1.619c.1639-.3176.3989-.61.7229-.891l-.2621-.3022c-.3563.3091-.6257.6404-.8163 1.0098zm.7228-.8909c.0902-.0781.209-.1139.3275-.0983l.0522-.3966c-.2321-.0306-.4652.0398-.6415.1925zm.3273-.0983c.1168.0154.2174.0773.2859.1779l.3307-.225c-.1316-.1934-.3327-.3188-.564-.3495zm.2753.1606.0189.0349.3519-.1903-.0189-.0349zm.0335.058c.059.0804.0867.1863.071.3023l.3964.0536c.0286-.2116-.0206-.4229-.1447-.5924zm.071.3024c-.0174.1287-.0862.2448-.1853.3185l.2385.3211c.1876-.1393.3117-.3529.3432-.5861zm-.1802.3148c-.2526.1755-.4135.3273-.5612.5369l.3269.2305c.1149-.163.2388-.2834.4625-.4389zm-.5622.5382c-.2271.3276-.3471.6839-.3471 1.0555h.4c0-.2812.0898-.5592.2759-.8276zm-.3471 1.0555c0 .5948.247 1.0769.7291 1.412l.2283-.3284c-.3717-.2584-.5574-.6163-.5574-1.0836zm.7326 1.4144c.5013.3328 1.1693.4841 2.0152.4841v-.4c-.8042 0-1.3835-.1448-1.7939-.4173zm2.0152.4841c.8002 0 1.4449-.1772 1.9474-.5625l-.2434-.3175c-.4124.3162-.9622.48-1.704.48zm1.9474-.5626c.4968-.3809.7561-.8898.7561-1.5001h-.4c0 .4803-.1969.874-.5995 1.1827zm.7561-1.5001c0-.3974-.1286-.7608-.3791-1.074l-.3124.2498c.1946.2433.2915.5188.2915.8242zm-.3774-1.0719c-.1695-.2179-.3993-.4167-.6629-.58l-.2106.3401c.2303.1426.4222.3111.5577.4854zm-.6492-.5707-.0182-.0135-.2381.3214.0182.0136zm-.0072-.0047c-.1886-.1614-.2283-.4522-.1083-.6345l-.3342-.2199c-.2384.3624-.1484.8753.1824 1.1583zm-.1084-.6344.0026-.004-.334-.22-.0026.0039zm-.001.0014c.1298-.1838.3934-.2407.5775-.1342l.2003-.3462c-.3686-.2132-.859-.098-1.1045.2496zm.5631-.1433c.4615.3222.7503.634.9371.9869l.3536-.1872c-.2244-.4238-.5638-.78-1.0617-1.1276zm.9406.9932c.2932.5084.4471 1.1249.4471 1.8329h.4c0-.7662-.1668-1.4539-.5005-2.0327zm.4471 1.8329c0 .4884-.065.9184-.1887 1.2804l.3785.1294c.1409-.4121.2102-.8873.2102-1.4098zm-.1864 1.274c-.1472.3869-.3385.744-.5698 1.0657l.3248.2335c.2523-.3509.4598-.7388.6189-1.157zm-.5648 1.059c-.3315.4229-.7263.7373-1.177.9434l.1663.3638c.5125-.2344.9571-.5905 1.3255-1.0604zm-1.177.9434c-.4581.2094-.9308.3079-1.4946.3079v.4c.6152 0 1.1454-.1085 1.6609-.3441z" fill="#fff" mask="url(#a)"/><path clip-rule="evenodd" d="m29.4741 26.2283c.147-.2087.4415-.2681.6478-.1491.3829.2684.7214.5812.9427.9983.3092.5364.4562 1.1624.4562 1.8626 0 .4616-.0587.9086-.1913 1.2963-.1473.3873-.3389.7447-.5742 1.0727-.3388.4319-.7364.7448-1.1929.9534-.4568.2087-.9427.3129-1.5171.3129-1.0603 0-1.9144-.3425-2.5768-1.0279-.6628-.7002-1.0164-1.5795-1.0164-2.6671 0-.626.118-1.1772.3683-1.6391.1766-.3425.4268-.6405.7364-.9089.2059-.1787.5298-.149.6921.0894l.0146.03c.1623.2086.103.5363-.1176.7002-.2359.1638-.3979.3128-.5451.5215-.2063.298-.3386.6406-.3386 1.0279 0 .5812.2356 1.0431.7068 1.3708.4711.3129 1.1193.4767 1.9883.4767.7951 0 1.4285-.1787 1.9143-.5509.4859-.3725.7361-.8644.7361-1.4604 0-.3725-.1176-.7299-.3679-1.0431-.1619-.2083-.3828-.4022-.6481-.566-.1916-.1639-.2649-.4767-.1176-.7002z" fill="#25265e" fill-rule="evenodd"/><path d="m30.1219 26.0792.1148-.1637-.0072-.0051-.0077-.0044zm.9427.9983-.1768.0938.0035.0061zm.2649 3.1589.187.0711.0022-.0064zm-.5742 1.0727.1575.1236.0051-.007zm-1.1929.9534.0831.182.0001-.0001zm-4.0939-.715-.1453.1375.0015.0015zm-.6481-4.3062.1758.0953.0019-.0036zm.7364-.9089.131.1511zm.6921.0894.1797-.0879-.0063-.0128-.0081-.0119zm.0146.03-.1797.0878.0091.0186.0127.0163zm-.1176.7002.1141.1643.0052-.0038zm-.5451.5215-.1634-.1153-.0011.0015zm.3682 2.3987-.1143.1642.0036.0024zm3.9026-.0742.1217.1588v-.0001zm.3682-2.5035-.1579.1228.0017.0021zm-.6481-.566-.1299.152.0117.01.0131.0081zm.0459-.5851c.0875-.1243.2679-.1581.3843-.0909l.1999-.3465c-.296-.1708-.7048-.086-.9112.2071zm.3695-.1004c.3695.259.6801.55.8808.9282l.3533-.1875c-.2418-.4558-.6082-.7905-1.0045-1.0682zm.8842.9344c.2886.5005.4295 1.0907.4295 1.7627h.4c0-.7284-.1531-1.3903-.483-1.9625zm.4295 1.7627c0 .446-.0569.87-.1806 1.2315l.3785.1295c.1416-.4139.2021-.8839.2021-1.361zm-.1783 1.2252c-.1412.3715-.3247.7135-.5497 1.0273l.3251.2331c.2455-.3423.4452-.715.5985-1.1182zm-.5445 1.0204c-.3201.4079-.6926.7001-1.1187.8949l.1663.3638c.4868-.2225.9094-.556 1.2671-1.0118zm-1.1187.8949c-.4286.1958-.8857.2948-1.434.2948v.4c.6006 0 1.1151-.1094 1.6002-.3309zm-1.434.2948c-1.0124 0-1.8124-.3248-2.433-.9669l-.2876.278c.7042.7286 1.6123 1.0889 2.7206 1.0889zm-2.4316-.9654c-.6256-.661-.9616-1.4901-.9616-2.5296h-.4c0 1.1358.3712 2.0651 1.0711 2.8046zm-.9616-2.5296c0-.6014.1134-1.118.3441-1.5438l-.3517-.1906c-.2698.498-.3924 1.0838-.3924 1.7344zm.346-1.5474c.1627-.3156.3953-.5942.6897-.8495l-.262-.3022c-.3247.2815-.5927.5989-.7832.9684zm.6897-.8495c.1194-.1036.3037-.0844.3957.0508l.3307-.2251c-.2325-.3414-.696-.3816-.9885-.1278zm.3814.0261.0146.03.3594-.1757-.0146-.03zm.0364.0649c.0854.1098.0625.3119-.0789.4169l.2385.3211c.2997-.2226.3954-.6759.1562-.9835zm-.0738.4132c-.2497.1734-.4304.338-.5944.5705l.3268.2307c.1305-.185.2737-.3184.4958-.4726zm-.5955.572c-.2247.3247-.3741.7062-.3741 1.1417h.4c0-.3391.1152-.6427.303-.9141zm-.3741 1.1417c0 .6447.266 1.1688.7926 1.535l.2284-.3284c-.4158-.2892-.621-.6888-.621-1.2066zm.7961 1.5374c.5155.3423 1.2072.5101 2.099.5101v-.4c-.8463 0-1.4509-.1599-1.8777-.4433zm2.099.5101c.8246 0 1.5053-.1855 2.036-.5921l-.2433-.3175c-.441.3378-1.0272.5096-1.7927.5096zm2.036-.5922c.533-.4086.8144-.9581.8144-1.6191h-.4c0 .531-.219.9653-.6578 1.3017zm.8144-1.6191c0-.417-.1324-.8186-.4116-1.1679l-.3125.2497c.2213.277.3241.5901.3241.9182zm-.4099-1.1658c-.1787-.2299-.4186-.4391-.701-.6135l-.2102.3403c.2481.1533.4501.3319.5953.5187zm-.6761-.5953c-.1277-.1092-.1636-.3122-.0806-.4382l-.334-.2201c-.2115.321-.1008.7438.1547.9623z" fill="#fff" mask="url(#b)"/><path clip-rule="evenodd" d="m26.929 20.3096c.2942-.0676.6449-.1006 1.0717-.1006.7915 0 1.4308.1388 1.8984.4115.4331.2601.6344.5884.6344 1.0338 0 .3936-.2134.7213-.6344.9745-.4542.2727-1.0929.4111-1.8984.4111-.1313 0-.2558 0-.376-.0148-.2861-.0132-.5751-.0521-.8528-.1144-.2825-.0752-.5005-.1619-.6722-.2687-.4252-.242-.6318-.57-.6318-1.0025 0-.4316.2027-.7609.6413-1.0385.0332-.0221.0801-.0461.1121-.0567l.0195-.0082c.1854-.094.4034-.1658.6882-.2265zm.4767 5.0232c.2079.0303.4226.0613.6543.0613.5696 0 1.0554-.0936 1.5348-.297.4737-.2239.8853-.5262 1.2248-.8994.2669-.298.4875-.6781.6768-1.1647.1626-.4338.2447-.9079.2447-1.4176-.0251-.4187-.0775-.9597-.26-1.4304-.1769-.4721-.3982-.8529-.6768-1.1644-.363-.3989-.7651-.6887-1.2297-.8858-.4976-.2114-.9838-.3096-1.5296-.3096-.5914 0-1.0831.0989-1.55.3122-.3099.1477-.5338.2875-.7215.4507-.17.1374-.3199.2785-.4392.413l-.0469.0475c-.2591.2759-.481.6574-.6788 1.1674-.1629.4338-.2453.9075-.2453 1.4083 0 .5281.0883 1.0039.26 1.4087.1802.481.4024.8581.6771 1.1509.363.3989.7654.6887 1.2272.8845.2437.1094.5119.1905.8781.2644z" fill="#25265e" fill-rule="evenodd"/><path d="m26.929 20.3096.0417.1956.0031-.0007zm2.9701.3109.103-.1715-.0023-.0013zm0 2.0083.1029.1715.0002-.0001zm-2.2744.3963.0245-.1985-.0076-.0009-.0077-.0004zm-.8528-.1144-.0514.1934.0076.0017zm-.6722-.2687.1057-.1699-.0068-.0039zm.0095-2.041.107.1691.0037-.0025zm.1121-.0567.0627.1899.0076-.0025.0074-.0031zm.0195-.0082.0779.1847.0125-.0063zm1.1649 4.7967-.0396.1963.0107.0016zm2.1891-.2357.0782.1842.0072-.0034zm1.2248-.8994.148.1346.001-.0012zm.6768-1.1647.1864.0725.0009-.0023zm.2447-1.4176h.2004l-.0007-.0119zm-.26-1.4304-.1873.0702.0008.0021zm-.6768-1.1644.1491-.1333-.0012-.0013zm-1.2297-.8858-.0782.184v.0001zm-3.0796.0026-.0831-.1819-.003.0014zm-.7215.4507.1258.1556.0055-.0047zm-.4392.413.1425.1408.0072-.0081zm-.0469.0475-.1423-.1406-.0035.0037zm-.6788 1.1674-.1864-.0724-.0008.0021zm.0147 2.817.1875-.0702-.0034-.0079zm.6771 1.1509.148-.1346-.0021-.0023zm1.2272.8845.0819-.1825-.0039-.0016zm1.4731-5.0594c-.4363 0-.8029.0337-1.1165.1057l.0896.3898c.2749-.0631.6095-.0955 1.0269-.0955zm1.9991.4387c-.509-.2968-1.1874-.4387-1.9991-.4387v.4c.7713 0 1.3716.1358 1.7977.3842zm.7337 1.2066c0-.2545-.058-.4851-.1843-.691-.1254-.2044-.3107-.3723-.5471-.5143l-.206.3429c.1967.1181.3286.2444.4121.3806.0827.1347.1253.2909.1253.4818zm-.7313 1.1459c.4638-.2789.7313-.664.7313-1.1459h-.4c0 .3054-.1593.5757-.5375.8031zm-2.0015.4397c.8244 0 1.5039-.141 2.0013-.4396l-.2058-.343c-.411.2467-1.0089.3826-1.7955.3826zm-.4005-.0163c.1346.0166.2717.0163.4005.0163v-.4c-.1338 0-.2457-.0002-.3515-.0133zm-.8721-.1178c.289.0649.5896.1053.8874.1191l.0184-.3996c-.2744-.0127-.5519-.05-.8182-.1098zm-.734-.294c.1944.121.4329.2141.7264.2922l.1029-.3866c-.2715-.0722-.469-.1525-.618-.2452zm-.7262-1.1723c0 .2498.0602.4777.1872.6793.1263.2004.3116.3638.5457.497l.1978-.3476c-.1911-.1088-.3217-.2303-.405-.3626-.0826-.131-.1257-.2834-.1257-.4661zm.7343-1.2075c-.2372.1502-.4227.3219-.5483.5255-.1269.2056-.186.4328-.186.682h.4c0-.1824.0422-.3356.1264-.472.0853-.1383.2205-.27.4218-.3975zm.1563-.0776c-.053.0175-.116.0508-.16.08l.2214.3332c.0224-.0149.0532-.0298.0641-.0334zm.0046-.0026-.0195.0082.1554.3686.0195-.0082zm.7242-.2378c-.2956.0629-.5313.1395-.7369.2437l.1808.3568c.1653-.0838.3655-.1509.6395-.2093zm1.1727 5.0801c-.2151 0-.4162-.0287-.6254-.0592l-.0578.3958c.2066.0301.435.0634.6832.0634zm1.4566-.2811c-.4522.1919-.9111.2811-1.4566.2811v.4c.5937 0 1.1065-.098 1.6129-.3129zm1.1551-.8499c-.3213.3531-.7114.64-1.1624.8531l.1709.3617c.4965-.2346.9296-.5523 1.2874-.9456zm.6383-1.1026c-.1832.4708-.3926.8283-.6394 1.1038l.298.2668c.287-.3205.5187-.7232.7142-1.2256zm.2311-1.3451c0 .488-.0786.938-.232 1.3474l.3746.1404c.1718-.4583.2574-.9564.2574-1.4878zm-.2465-1.3581c.1704.4396.2219.9537.2469 1.3701l.3993-.0239c-.0253-.421-.0787-.9889-.2732-1.4908zm-.6394-1.1034c.259.2896.4686.6477.6386 1.1013l.3746-.1404c-.1839-.4906-.4168-.8941-.715-1.2275zm-1.1588-.835c.4363.1851.815.4572 1.16.8363l.2958-.2692c-.381-.4188-.8065-.7262-1.2995-.9354zm-1.4514-.2937c.5193 0 .9788.093 1.4514.2936l.1563-.3681c-.5226-.222-1.0353-.3255-1.6077-.3255zm-1.4669.2941c.4371-.1997.8998-.2941 1.4669-.2941v-.4c-.6157 0-1.1364.1034-1.6331.3303zm-.6733.4197c.1699-.1478.3769-.2784.6762-.4211l-.1721-.361c-.3204.1527-.5611.3016-.7666.4802zm-.4208.3948c.1106-.1247.2521-.2583.4153-.3902l-.2515-.3111c-.177.1431-.3352.2917-.4631.4359zm-.0544.0554.0469-.0475-.2844-.2812-.047.0475zm-.6345 1.0991c.1923-.4958.4026-.8519.6381-1.1028l-.2916-.2738c-.2826.301-.5161.7077-.7194 1.2319zm-.2318 1.336c0-.4787.0788-.9284.2326-1.338l-.3745-.1406c-.172.4581-.2581.9558-.2581 1.4786zm.2441 1.3306c-.1594-.3759-.2441-.8242-.2441-1.3306h-.4c0 .5499.0919 1.053.2759 1.4868zm.6389 1.0921c-.2524-.269-.4624-.6214-.6357-1.0842l-.3746.1404c.1871.4992.4216.901.7186 1.2175zm1.1593.8373c-.4332-.1838-.8123-.4559-1.1573-.835l-.2958.2692c.381.4187.8068.7261 1.297.934zm.8396.2524c-.3567-.0719-.6096-.1492-.8357-.2508l-.1639.3649c.2614.1174.5448.2023.9206.278z" fill="#fff" mask="url(#c)"/><path clip-rule="evenodd" d="m31.4473 16.32c0 .2087-.0737.4322-.236.5812-.1619.1639-.3532.2532-.5738.2532-.2212 0-.4272-.0745-.5744-.2383-.162-.1639-.236-.3577-.236-.5812 0-.2236.074-.4319.236-.5809.1619-.1639.3532-.2384.5744-.2384.2206 0 .4269.0745.5738.2384.1623.1338.236.3277.236.566z" fill="#25265e" fill-rule="evenodd"/><path d="m31.2113 16.9012-.1354-.1475-.0068.0069zm-1.1482.0149.1489-.1339-.0067-.0067zm0-1.1621.1355.1473.0067-.0067zm1.1482 0-.1488.1335.01.0112.0116.0096zm.036.566c0 .167-.0597.3315-.1712.4339l.2705.2946c.213-.1956.3007-.4781.3007-.7285zm-.1782.4406c-.1297.1312-.2715.1938-.4316.1938v.4c.2812 0 .5219-.1161.7161-.3126zm-.4316.1938c-.1761 0-.3234-.0583-.4257-.172l-.2975.2674c.1923.2139.4568.3046.7232.3046zm-.4322-.1789c-.123-.1245-.1782-.267-.1782-.4406h-.4c0 .2734.0929.5186.2937.7218zm-.1782-.4406c0-.1796.0586-.33.1714-.4337l-.2709-.2944c-.2111.1943-.3005.4606-.3005.7281zm.1782-.4403c.1228-.1243.2622-.179.4322-.179v-.4c-.2724 0-.5156.0943-.7167.2978zm.4322-.179c.1755 0 .3231.0584.425.1719l.2977-.2671c-.192-.2141-.457-.3048-.7227-.3048zm.4466.1927c.1047.0863.1632.2163.1632.4117h.4c0-.2813-.0888-.539-.3087-.7203z" fill="#fff" mask="url(#d)"/><path d="m29.6178 21.1924v-.1h-.1-1.1926-.1v.1 1.2069.1h.1c.3526 0 .6719-.1463.9104-.3873l.0001-.0001c.2383-.2411.3821-.564.3821-.9195z" fill="#25265e" stroke="#fff" stroke-width=".2"/><path d="m27.7031 21.1924v-.1h-.1-1.1929-.1v.1c0 .2895.0952.5644.256.7756l-.0007.0005.0091.0092c.0185.0188.0343.0377.053.0604l.0009.0012c.0179.0217.0387.047.0641.0726.2383.2411.5579.3874.9105.3874h.1v-.1z" fill="#25265e" stroke="#fff" stroke-width=".2"/><rect fill="#fff" height="40" rx="6" width="40"/><path clip-rule="evenodd" d="m22.8346 16.9047c-.4766.3128-1.0047.5473-1.6101.6776-.6054.1304-1.2239.1955-1.8809.1955h-4.7404l1.0563-7.7021h5.449c1.3912 0 2.3702.3777 2.9112 1.1338.5409.7558.747 1.6419.6313 2.6717-.1032.7039-.3093 1.3031-.6313 1.7985-.3221.5081-.7214.9124-1.1851 1.225zm1.3138 8.5753c-.116.9254-.4122 1.6812-.8759 2.2418s-.9919 1.0035-1.6103 1.3423c-.6182.3259-1.2496.5473-1.8934.6647-.6573.1044-1.2495.1695-1.7777.1695h-5.1013l1.2883-9.0185h5.1398c1.6873 0 2.9756.391 3.8514 1.1598.8631.7558 1.198 1.9026.9791 3.4404zm2.4994-8.3409c.9403-.938 1.5069-2.1633 1.7004-3.6489.1417-1.0946.077-2.0592-.1935-2.8802-.2702-.82095-.7211-1.48563-1.3268-2.01997-.6182-.52136-1.378-.92535-2.2927-1.18603-.9146-.26068-1.9196-.404-3.0271-.404h-8.914l-3.5941 25.9478h8.8111c1.2623 0 2.4603-.1563 3.5938-.4822 1.1335-.3128 2.1513-.782 3.0528-1.3945.2708-.1822.5282-.378.773-.5865.232-.1953.4509-.417.657-.6385.0128-.0129.0128-.0129.0259-.0259.2833-.3129.5538-.6517.7858-1.0035.2705-.4173.5022-.8602.6826-1.3294.1417-.3518.2446-.7301.3349-1.1208.0128-.0393.0128-.0782.0259-.1304.0382-.1695.0642-.3388.0901-.5213.0516-.3781.0773-.7429.0644-1.0947-.2833-.0132-.5412-.0522-.7729-.1044-.2449-.0651-.4509-.1433-.6185-.2477-.4122-.2344-.6182-.5602-.6182-.9902 0-.4302.206-.7561.6182-1.0168.0387-.0259.0903-.0519.1291-.0651.1801-.0912.3862-.1563.631-.2085-.1288-.2474-.2705-.4822-.4381-.7036-.0256-.0392-.0641-.0782-.1029-.1174-.116-.1563-.2576-.2999-.3864-.4432-.3221-.3259-.6829-.5995-1.0951-.834-.631-.352-1.3139-.5605-2.061-.5995v-.0781c1.3784-.4302 2.525-1.1209 3.4653-2.0725zm1.1082 6.1517c-.0259-.0914-.0515-.1826-.0775-.2737h-.0641c0 .2344.0769.4429.2058.6255-.0129-.1304-.0388-.2477-.0642-.3518z" fill="#25265e" fill-rule="evenodd"/><path clip-rule="evenodd" d="m26.3767 27.4389c-.0678 0-.1336.0242-.1855.0692-.2722.2359-.4729.4833-.6137.7561-.2043.3772-.3072.8386-.3072 1.3735 0 .9026.2787 1.6362.8528 2.2426.5586.5779 1.2657.859 2.1613.859.4777 0 .8827-.0833 1.274-.2621.3891-.1779.7145-.4383.9953-.7965.1952-.2713.3588-.577.4831-.9037.1049-.3068.1588-.6739.1588-1.0871 0-.5981-.1283-1.1241-.3817-1.5635-.1619-.306-.4113-.569-.7866-.8317-.118-.0674-.2993-.0259-.3874.0972-.0906.1399-.0356.3339.0738.4328.2377.1488.4424.3285.5915.5205.228.2852.3494.629.3494.9926 0 .5629-.2337 1.0274-.6949 1.3812-.4469.3423-1.0198.5087-1.7526.5087-.7735 0-1.3655-.1436-1.8096-.4386-.4497-.3126-.6766-.752-.6766-1.3077 0-.34.1077-.6676.3198-.9741.1328-.1883.2802-.3296.509-.4888.0662-.0493.1129-.1297.1249-.2183.0108-.0778-.0071-.1511-.0502-.2064l-.0222-.0395c-.0456-.0629-.112-.103-.1884-.1131-.0123-.0017-.0248-.0023-.0371-.0023zm1.907 5.5611c-.9548 0-1.7443-.3158-2.3462-.9383-.6145-.6494-.9258-1.4646-.9258-2.424 0-.5791.1137-1.0825.3381-1.4963.155-.3005.3756-.5733.6732-.8314.1165-.1009.2704-.1473.4238-.1272.1522.0202.2842.1021.3717.2307l.0165.0306c.0801.1093.1137.248.0943.3913-.0213.1583-.1057.3025-.2311.3956-.2084.1448-.3329.2639-.4478.4268-.1807.2607-.2725.5381-.2725.8236 0 .4645.1893.8319.5627 1.0914.3987.2648.9442.3942 1.6659.3942.6744 0 1.1968-.1491 1.597-.4559.3933-.3016.5928-.6964.5928-1.1733 0-.3074-.0986-.5868-.2933-.8302-.1334-.1716-.3178-.3322-.5338-.466l-.016-.0118c-.2271-.1944-.2839-.5459-.1271-.7841l.0023-.0035c.1641-.2324.4939-.3076.7356-.1678.4196.293.6943.5851.8742.9248.2741.4755.4144 1.0459.4144 1.6907 0 .442-.0587.838-.1745 1.1765-.1339.3521-.3083.6779-.5198.9721-.3061.3904-.6732.6837-1.0945.8763-.4258.1946-.8645.2852-1.3801.2852z" fill="#25265e" fill-rule="evenodd"/><path d="m26.1912 27.5081.131.1512v-.0001zm-.6137.7561.1759.0953.0019-.0036zm.5456 3.6161-.1453.1375.0015.0015zm3.4353.5969.0831.1819h.0001zm.9953-.7965.1575.1235.0048-.0067zm.4831-.9037.187.0712.0022-.0065zm-.2229-2.6506-.1769.0936.0036.0063zm-.7866-.8317.1146-.1638-.0074-.0053-.008-.0045zm-.3874.0972-.1628-.1165-.005.0077zm.0738.4328-.1341.1484.0131.0118.0149.0094zm.5915.5205-.1581.1227.0018.0022zm-.3455 2.3738.1216.1588.0002-.0001zm-3.5622.0701-.1141.1643.0035.0023zm-.3568-2.2818-.1634-.1153-.0011.0015zm.509-.4888.1143.1643.0053-.0039zm.1249-.2183-.1981-.0275-.0001.0007zm-.0502-.2064-.1743.0981.0073.0129.0091.0117zm-.0222-.0395.1743-.0981-.0057-.0101-.0067-.0093zm-.1884-.1131-.028.1981.0018.0002zm-.4763 4.6205-.1453.1374.0015.0016zm-.5877-3.9203.1758.0953.0019-.0036zm.6732-.8314-.1309-.1512-.0002.0001zm.4238-.1272.0263-.1982h-.0002zm.3717.2307.1759-.0951-.0049-.009-.0057-.0084zm.0165.0306-.1759.0951.0065.0121.0081.011zm.0943.3913-.1982-.0268zm-.2311.3956.1142.1644.005-.0038zm-.4478.4268-.1635-.1152-.0009.0013zm.2902 1.915-.1142.1643.0035.0024zm3.2629-.0617.1217.1587zm.2995-2.0035-.1579.1227.0017.0022zm-.5338-.466-.1191.1607.0067.0049.0071.0044zm-.016-.0118-.1303.1523.0113.0084zm-.1271-.7841-.167-.11-.0001.0001zm.0023-.0035-.1635-.1154-.0035.0054zm.7356-.1678.1145-.164-.007-.0048-.0073-.0043zm.8742.9248-.1769.0936.0036.0063zm.2399 2.8672.1871.0712.0022-.0065zm-.5198.9721.1575.1235.0049-.0068zm-1.0945.8763.0831.1819h.0001zm-3.2871-5.4759c-.1155 0-.228.0414-.3165.1181l.262.3022c.0152-.0132.0345-.0203.0545-.0203zm-.3165.1181c-.2882.2497-.5061.5166-.6604.8155l.3555.1834c.1273-.2467.3107-.4746.5669-.6966zm-.6585.8119c-.2237.4129-.3314.9088-.3314 1.4688h.4c0-.5099.0981-.9368.2831-1.2782zm-.3314 1.4688c0 .9491.2953 1.7333.9075 2.3801l.2905-.275c-.5358-.5661-.798-1.2491-.798-2.1051zm.909 2.3816c.6008.6215 1.3621.92 2.3051.92v-.4c-.8481 0-1.5011-.2637-2.0175-.798zm2.3051.92c.5032 0 .937-.0882 1.3571-.2802l-.1662-.3638c-.3625.1656-.7387.244-1.1909.244zm1.3572-.2802c.4199-.1921.7703-.4733 1.0695-.855l-.3148-.2467c-.2623.3346-.5629.5741-.9211.7379zm1.0744-.8616c.2058-.286.3775-.6071.5077-.9494l-.3738-.1422c-.1184.3111-.2739.6013-.4586.858zm.51-.9558c.1137-.3323.1696-.7222.1696-1.1518h-.4c0 .3968-.0519.7411-.1481 1.0224zm.1696-1.1518c0-.6268-.1346-1.1885-.4084-1.6634l-.3466.1998c.233.404.355.8942.355 1.4636zm-.4049-1.6571c-.1808-.3417-.4557-.6268-.8488-.9019l-.2293.3277c.3577.2503.5816.4912.7245.7613zm-.8642-.9117c-.1118-.064-.241-.0705-.3515-.0436-.1115.0272-.2224.0927-.2978.1981l.3254.2327c.0127-.0178.0365-.0347.0672-.0421.0316-.0078.0521-.0013.0582.0022zm-.6544.162c-.0796.1228-.0906.2623-.0662.3808.0241.1172.0853.2293.1737.3092l.2682-.2967c-.021-.019-.042-.0534-.0501-.093-.0078-.0381-.001-.0656.0101-.0827zm.1355.7112c.2211.1383.4071.3029.5396.4736l.3159-.2453c-.1656-.2134-.3889-.4082-.6432-.5674zm.5413.4758c.2.2501.3057.5499.3057.8677h.4c0-.4095-.1371-.7971-.3932-1.1175zm.3057.8677c0 .4984-.2029.9052-.6166 1.2226l.2435.3173c.5086-.3902.7731-.9125.7731-1.5399zm-.6165 1.2225c-.4028.3084-.9289.4674-1.631.4674v.4c.7635 0 1.3832-.1738 1.8742-.5499zm-1.631.4674c-.751 0-1.2993-.1397-1.6989-.4052l-.2213.3332c.4885.3245 1.1241.472 1.9202.472zm-1.6954-.4028c-.3949-.2745-.5908-.652-.5908-1.1435h-.4c0 .6198.2579 1.1212.7625 1.4719zm-.5908-1.1435c0-.2953.093-.5838.2843-.8603l-.329-.2276c-.2328.3365-.3553.7032-.3553 1.0879zm.2832-.8588c.1169-.1657.2461-.2912.4598-.4399l-.2284-.3284c-.244.1697-.4094.3268-.5582.5377zm.4652-.4437c.1117-.0833.1847-.2132.2035-.3519l-.3964-.0536c-.0052.0385-.0257.0695-.0462.0848zm.2034-.3511c.0173-.1247-.0103-.2538-.0904-.3568l-.3158.2455c.006.0078.0143.0252.01.0562zm-.074-.3321-.0222-.0395-.3486.1961.0222.0396zm-.0346-.0589c-.0772-.1064-.1922-.1764-.3241-.1939l-.0524.3966c.0209.0028.0387.0129.0527.0322zm-.3224-.1936c-.0244-.0035-.0468-.0043-.065-.0043v.4c.0031 0 .0053.0001.007.0002.0016.0001.0023.0002.0021.0002zm1.842 5.5568c-.9067 0-1.6422-.298-2.2025-.8774l-.2875.2781c.6437.6657 1.4871.9993 2.49.9993zm-2.201-.8758c-.5766-.6094-.871-1.3742-.871-2.2865h-.4c0 1.0064.3281 1.872.9805 2.5614zm-.871-2.2865c0-.5533.1087-1.0225.3139-1.401l-.3517-.1907c-.2434.4491-.3622.9869-.3622 1.5917zm.3158-1.4046c.1417-.2746.3451-.528.6265-.772l-.2621-.3022c-.3137.2721-.5515.5644-.7199.8907zm.6264-.7719c.0735-.0636.1703-.0928.2668-.0801l.0522-.3965c-.2102-.0277-.4212.036-.5808.1742zm.2666-.0801c.0949.0126.1767.0627.2326.1449l.3307-.225c-.119-.175-.3012-.2886-.5107-.3164zm.222.1276.0166.0305.3518-.1902-.0165-.0306zm.0312.0536c.0474.0648.0703.1508.0574.2463l.3964.0536c.0259-.1911-.0185-.3825-.1312-.5363zm.0574.2463c-.0143.1061-.071.2016-.1522.2619l.2385.3211c.1697-.126.2817-.3189.3101-.5294zm-.147.2582c-.2228.1548-.3659.2895-.4971.4758l.3269.2305c.0984-.1397.2045-.2431.3984-.3778zm-.4981.4771c-.2012.2903-.3081.6068-.3081.9375h.4c0-.2403.0767-.4786.2369-.7096zm-.3081.9375c0 .5283.2199.9578.6485 1.2557l.2283-.3285c-.3182-.2211-.4768-.5264-.4768-.9272zm.652 1.2581c.4442.2948 1.0341.4275 1.7766.4275v-.4c-.7009 0-1.202-.1262-1.5553-.3608zm1.7766.4275c.7036 0 1.2734-.1558 1.7187-.4972l-.2434-.3174c-.3551.2723-.8302.4146-1.4753.4146zm1.7187-.4972c.4404-.3377.6711-.7901.6711-1.332h-.4c0 .4119-.1683.7491-.5145 1.0146zm.6711-1.332c0-.3534-.1145-.6768-.3371-.9551l-.3124.2498c.1667.2084.2495.4439.2495.7053zm-.3354-.953c-.1503-.1934-.3537-.3691-.5864-.5132l-.2106.34c.1994.1235.3648.269.4812.4187zm-.5727-.5039-.0159-.0118-.2381.3214.0159.0118zm-.005-.0031c-.156-.1335-.1875-.374-.09-.5221l-.3342-.2199c-.216.3282-.1341.7907.1642 1.0459zm-.0901-.522.0023-.0035-.334-.2201-.0023.0035zm-.0014.0018c.1063-.1505.3227-.1965.4721-.1101l.2004-.3462c-.334-.1932-.7771-.0888-.9992.2256zm.4578-.1192c.4013.2802.6508.5501.8119.8544l.3535-.1872c-.1986-.3751-.4986-.6895-.9364-.9952zm.8154.8607c.2539.4403.3877.975.3877 1.5908h.4c0-.6739-.1467-1.2799-.4412-1.7906zm.3877 1.5908c0 .425-.0566.7983-.1637 1.1118l.3785.1294c.1243-.3636.1852-.7821.1852-1.2412zm-.1614 1.1054c-.128.3364-.2943.6468-.4953.9264l.3248.2335c.2219-.3087.4045-.65.5444-1.0177zm-.4903.9198c-.2877.3669-.6299.6393-1.0203.8178l.1664.3638c.4521-.2068.8441-.5209 1.1687-.9348zm-1.0202.8178c-.3972.1815-.8071.2671-1.297.2671v.4c.5414 0 1.0088-.0956 1.4632-.3033z" fill="#fff" mask="url(#e)"/><path clip-rule="evenodd" d="m29.5353 27.3178c.1285-.1825.3862-.2344.5666-.1304.3349.2348.631.5084.8246.8732.2705.4692.399 1.0168.399 1.6293 0 .4037-.0513.7947-.1673 1.1338-.1288.3388-.2964.6514-.5022.9383-.2964.3778-.6442.6515-1.0435.834-.3996.1825-.8245.2736-1.327.2736-.9275 0-1.6745-.2996-2.2539-.8991-.5798-.6125-.889-1.3815-.889-2.3328 0-.5476.1032-1.0298.322-1.4338.1545-.2996.3734-.5603.6442-.795.1801-.1563.4634-.1303.6054.0782l.0128.0262c.1419.1825.0901.4692-.1029.6125-.2063.1433-.348.2736-.4768.4562-.1804.2607-.2962.5603-.2962.8991 0 .5084.2061.9124.6182 1.199.4122.2737.9791.417 1.7392.417.6955 0 1.2496-.1563 1.6745-.4819.425-.3258.6439-.7561.6439-1.2774 0-.3259-.1029-.6385-.3218-.9124-.1417-.1823-.3349-.3518-.5669-.4951-.1676-.1433-.2317-.417-.1029-.6125z" fill="#25265e" fill-rule="evenodd"/><path d="m30.1019 27.1874.1148-.1637-.0072-.0051-.0076-.0044zm.8246.8732-.1768.0938.0035.0061zm.2317 2.7631.187.0711.0022-.0064zm-.5022.9383.1575.1236.005-.007zm-1.0435.834.0831.1819h.0001zm-3.5809-.6255-.1453.1375.0014.0015zm-.567-3.7666.1759.0953.0019-.0036zm.6442-.795.131.1511h.0001zm.6054.0782.1797-.0879-.0063-.0128-.0081-.0119zm.0128.0262-.1797.0878.0091.0186.0127.0164zm-.1029.6125.1142.1643.0051-.0038zm-.4768.4562-.1634-.1154-.0011.0016zm.322 2.0981-.1142.1642.0036.0024zm3.4137-.0649.1216.1588.0001-.0001zm.3221-2.1898-.1579.1227.0016.0021zm-.5669-.4951-.13.152.0117.01.0132.0081zm.0606-.4974c.0691-.0981.2126-.1245.3032-.0722l.1999-.3465c-.2703-.1559-.6421-.0785-.8301.1884zm.2883-.0817c.3215.2254.5898.4772.7627.8031l.3533-.1874c-.2141-.4036-.5381-.6991-.8864-.9432zm.7661.8093c.2498.4334.3723.9451.3723 1.5294h.4c0-.6407-.1346-1.2242-.4258-1.7292zm.3723 1.5294c0 .3881-.0495.7561-.1565 1.0691l.3784.1294c.125-.3653.1781-.7793.1781-1.1985zm-.1543 1.0627c-.1228.323-.2822.6203-.4777.8929l.325.2331c.216-.3012.3918-.6291.5266-.9838zm-.4726.886c-.2776.3538-.6003.6068-.9692.7755l.1663.3638c.4296-.1964.8024-.4907 1.1176-.8924zm-.9692.7755c-.3713.1696-.7676.2555-1.2439.2555v.4c.5286 0 .9823-.0963 1.4101-.2917zm-1.2439.2555c-.8795 0-1.5725-.2819-2.1101-.8381l-.2877.278c.6213.6428 1.4224.9601 2.3978.9601zm-2.1087-.8366c-.5426-.5732-.8342-1.2922-.8342-2.1953h-.4c0 .9994.3268 1.8186.9437 2.4703zm-.8342-2.1953c0-.5231.0985-.9705.2979-1.3385l-.3517-.1905c-.2384.44-.3462.9568-.3462 1.529zm.2998-1.3421c.1406-.2726.3418-.514.5974-.7356l-.262-.3022c-.2859.2478-.5225.5279-.6909.8545zm.5975-.7356c.0935-.0812.2372-.0658.3089.0396l.3307-.2251c-.2121-.3116-.6351-.3481-.9018-.1167zm.2946.0149.0128.0262.3594-.1756-.0128-.0263zm.0346.0612c.065.0836.0495.2446-.0642.3291l.2385.3211c.2721-.2021.3603-.6143.1415-.8958zm-.0591.3254c-.2201.1529-.3805.2988-.5261.5051l.3268.2307c.112-.1588.2349-.2735.4275-.4072zm-.5272.5067c-.1989.2873-.3317.6259-.3317 1.0129h.4c0-.2906.0987-.5513.2606-.7853zm-.3317 1.0129c0 .5718.2365 1.038.704 1.3632l.2284-.3284c-.3567-.2481-.5324-.5899-.5324-1.0348zm.7076 1.3656c.4565.3031 1.0669.4504 1.8498.4504v-.4c-.7374 0-1.2607-.1394-1.6285-.3836zm1.8498.4504c.725 0 1.3263-.1632 1.7961-.5231l-.2432-.3175c-.3801.2911-.8869.4406-1.5529.4406zm1.7962-.5232c.4721-.3619.7222-.8498.7222-1.4361h-.4c0 .4563-.1877.829-.5656 1.1187zm.7222-1.4361c0-.3703-.1178-.7271-.3656-1.0373l-.3125.2497c.19.2378.2781.5061.2781.7876zm-.3639-1.0351c-.1584-.2038-.3706-.3887-.6197-.5426l-.2102.3403c.2149.1328.3892.287.5141.4477zm-.5948-.5244c-.1037-.0887-.1305-.2524-.0659-.3505l-.334-.2201c-.1931.293-.0916.6766.1399.8746z" fill="#fff" mask="url(#f)"/><path clip-rule="evenodd" d="m27.3085 22.1408c.2574-.0592.564-.088.9374-.088.6923 0 1.2515.1214 1.6605.3599.3788.2275.555.5147.555.9043 0 .3443-.1867.6309-.555.8524-.3973.2385-.9559.3596-1.6605.3596-.1148 0-.2237 0-.3289-.013-.2502-.0115-.503-.0456-.7459-.1001-.2471-.0657-.4378-.1416-.588-.235-.3719-.2116-.5526-.4986-.5526-.8769 0-.3775.1773-.6655.5609-.9083.0291-.0194.0701-.0404.098-.0496l.0171-.0072c.1622-.0822.3529-.1451.602-.1981zm.4172 4.3937c.1818.0266.3696.0537.5723.0537.4982 0 .9232-.0819 1.3424-.2598.4145-.1958.7744-.4603 1.0714-.7867.2334-.2607.4264-.5932.592-1.0188.1422-.3795.2141-.7941.2141-1.2399-.022-.3663-.0679-.8395-.2275-1.2512-.1548-.413-.3483-.746-.592-1.0185-.3175-.349-.6692-.6024-1.0756-.7749-.4353-.1848-.8605-.2707-1.3379-.2707-.5173 0-.9474.0865-1.3559.273-.271.1292-.4668.2515-.631.3942-.1488.1203-.2799.2437-.3842.3613l-.041.0416c-.2266.2413-.4207.575-.5937 1.0211-.1425.3794-.2146.7938-.2146 1.2318 0 .462.0772.8781.2274 1.2322.1576.4207.352.7506.5923 1.0067.3175.3489.6695.6024 1.0733.7737.2132.0957.4478.1666.7682.2312z" fill="#25265e" fill-rule="evenodd"/><path d="m27.3085 22.1408.0417.1956.0031-.0007zm2.5979.2719.103-.1715-.0022-.0013zm0 1.7567.103.1715.0001-.0001zm-1.9894.3466.0245-.1985-.0076-.0009-.0077-.0004zm-.7459-.1001-.0514.1935.0076.0017zm-.588-.235.1057-.1699-.0068-.0039zm.0083-1.7852.107.169.0037-.0025zm.098-.0496.0628.1899.0076-.0025.0073-.0031zm.0171-.0072.0779.1847.0125-.0063zm1.0192 4.1956-.0396.1964.0107.0015zm1.9147-.2061.0782.1842.0073-.0034zm1.0714-.7867.148.1346.001-.0012zm.592-1.0188.1864.0725.0009-.0023zm.2141-1.2399h.2003l-.0007-.012zm-.2275-1.2512-.1873.0701.0008.0021zm-.592-1.0185.1491-.1334-.0012-.0013zm-1.0756-.7749-.0782.1841zm-2.6938.0023-.0831-.1819-.0029.0014zm-.631.3942.1258.1557.0054-.0047zm-.3842.3613.1425.1408.0072-.0081zm-.041.0416-.1423-.1407-.0035.0038zm-.5937 1.0211-.1865-.0724-.0008.002zm.0128 2.464.1875-.0702-.0034-.0079zm.5923 1.0067.1479-.1346-.0021-.0023zm1.0733.7737.082-.1825-.0039-.0017zm1.2884-4.4505c-.3828 0-.7055.0295-.9822.093l.0896.3899c.238-.0547.5287-.0829.8926-.0829zm1.7613.3871c-.4505-.2627-1.0488-.3871-1.7613-.3871v.4c.6722 0 1.1923.1184 1.5598.3327zm.6542 1.0771c0-.2266-.0518-.433-.165-.6175-.1123-.1831-.2777-.3326-.487-.4583l-.2059.3429c.1695.1019.2815.2097.352.3246.0695.1133.1059.2453.1059.4083zm-.6519 1.0238c.4111-.2473.6519-.5913.6519-1.0238h-.4c0 .256-.1326.4853-.458.681zm-1.7636.3882c.7235 0 1.3229-.1237 1.7635-.3881l-.2059-.343c-.3541.2125-.8719.3311-1.5576.3311zm-.3534-.0145c.1196.0147.241.0145.3534.0145v-.4c-.1173 0-.2136-.0003-.3044-.0115zm-.7652-.1034c.2542.057.5186.0926.7805.1047l.0184-.3996c-.2386-.011-.4798-.0435-.7113-.0954zm-.6498-.2604c.1729.1076.3841.1898.6422.2585l.1028-.3865c-.236-.0629-.4062-.1323-.5337-.2116zm-.647-1.0467c0 .2227.0537.4268.1676.6076.1131.1795.2786.3251.4861.4431l.1978-.3476c-.1644-.0936-.2752-.1973-.3455-.3088-.0694-.1101-.106-.2386-.106-.3943zm.6539-1.0773c-.2097.1327-.3751.2854-.4875.4676-.1137.1841-.1664.3876-.1664.6097h.4c0-.1553.0358-.2847.1068-.3996.0721-.117.1872-.2297.361-.3397zm.1423-.0705c-.049.0161-.1062.0464-.146.0729l.2214.3331c.0071-.0047.0177-.0109.0293-.0168.0056-.0028.0106-.0052.0147-.007.0043-.0018.0063-.0025.0061-.0024zm.0021-.0016-.0171.0072.1554.3686.0171-.0072zm.638-.2095c-.2599.0554-.4684.123-.6507.2154l.1808.3568c.1421-.072.315-.1302.5533-.1809zm1.0312 4.4431c-.1861 0-.3603-.0248-.5435-.0516l-.0577.3958c.1805.0264.382.0558.6012.0558zm1.2643-.2439c-.3922.1664-.7902.2439-1.2643.2439v.4c.5224 0 .9742-.0863 1.4206-.2757zm1.0016-.7372c-.2787.3064-.6173.5554-1.0089.7404l.1709.3617c.4372-.2066.8186-.4864 1.1339-.8329zm.5535-.9567c-.1594.4098-.3413.7197-.5546.9579l.298.2668c.2536-.2831.4577-.6382.6294-1.0797zm.2005-1.1674c0 .4241-.0683.8147-.2014 1.1697l.3746.1404c.1514-.404.2268-.8426.2268-1.3101zm-.214-1.179c.1476.3807.1925.827.2143 1.1909l.3993-.0239c-.0221-.3685-.0689-.8686-.2406-1.3115zm-.5546-.9574c.2242.2506.406.5609.5538.9553l.3746-.1403c-.1617-.4315-.3669-.7873-.6302-1.0817zm-1.0047-.7241c.3781.1604.7064.3963 1.0059.7254l.2958-.2693c-.3355-.3687-.7106-.6398-1.1454-.8243zm-1.2597-.2548c.4508 0 .8495.0806 1.2597.2548l.1563-.3682c-.4602-.1954-.9121-.2866-1.416-.2866zm-1.2728.2549c.3787-.1729.7798-.2549 1.2728-.2549v-.4c-.5416 0-1.0007.0909-1.439.2911zm-.5829.3633c.1465-.1274.3254-.2405.5859-.3646l-.1721-.3611c-.2816.1342-.4943.2656-.6762.4238zm-.3657.343c.0956-.1079.2184-.2238.3602-.3384l-.2514-.3111c-.1557.1258-.2952.2568-.4081.3842zm-.0485.0495.0411-.0416-.2845-.2812-.0411.0416zm-.5495.9528c.1675-.4319.35-.7402.5531-.9565l-.2916-.2738c-.2502.2664-.4559.6253-.6344 1.0856zm-.201 1.1595c0-.4159.0684-.8063.2018-1.1615l-.3745-.1407c-.1516.4038-.2273.8422-.2273 1.3022zm.2115 1.1541c-.1379-.3251-.2115-.7139-.2115-1.1541h-.4c0 .4838.0808.9272.2433 1.3103zm.554.9479c-.218-.2323-.4-.5375-.5508-.9399l-.3746.1403c.1645.439.3712.7935.6337 1.0733zm1.0056.7264c-.3754-.1592-.704-.395-1.0035-.7241l-.2959.2692c.3356.3687.7109.6398 1.1433.8232zm.7296.2194c-.3108-.0627-.5301-.1298-.7257-.2177l-.1639.3649c.2308.1037.4806.1784.8105.2449z" fill="#fff" mask="url(#g)"/><path clip-rule="evenodd" d="m31.2609 18.6511c0 .1825-.0645.378-.2064.5083-.1416.1434-.3089.2215-.5019.2215-.1935 0-.3737-.0652-.5025-.2085-.1417-.1433-.2063-.3129-.2063-.5084s.0646-.3777.2063-.5081c.1417-.1433.309-.2085.5025-.2085.193 0 .3734.0652.5019.2085.1419.1171.2064.2867.2064.4952z" fill="#25265e" fill-rule="evenodd"/><path d="m31.0545 19.1594-.1354-.1474-.0068.0068zm-1.0044.013.1489-.1338-.0067-.0068zm0-1.0165.1356.1474.0066-.0068zm1.0044 0-.1489.1336.0101.0112.0115.0095zm.0064.4952c0 .1408-.0505.2773-.1417.361l.2706.2947c.1927-.177.2711-.4316.2711-.6557zm-.1486.3677c-.1094.1107-.2273.1621-.3597.1621v.4c.2535 0 .4702-.1049.6442-.2809zm-.3597.1621c-.1484 0-.27-.049-.3538-.1422l-.2974.2674c.1738.1934.4125.2748.6512.2748zm-.3603-.1491c-.1027-.1039-.1485-.2221-.1485-.3678h-.4001c0 .2454.0836.4663.2642.649zm-.1485-.3678c0-.1515.0493-.2758.1417-.3609l-.2708-.2943c-.1909.1756-.271.4158-.271.6552zm.1485-.3675c.1026-.1037.218-.1491.3603-.1491v-.4c-.2447 0-.464.085-.6447.2679zm.3603-.1491c.1478 0 .2696.049.353.1421l.2978-.2671c-.1737-.1936-.4127-.275-.6508-.275zm.3746.1628c.0844.0696.1337.1753.1337.3409h.4c0-.2515-.0796-.4849-.2791-.6495z" fill="#fff" mask="url(#h)"/><path d="m29.6725 22.9129v-.1h-.1-1.0432-.1v.1 1.0557.1h.1c.312 0 .5944-.1295.8053-.3425.2107-.2132.3379-.4987.3379-.8132z" fill="#25265e" stroke="#fff" stroke-width=".2"/><path d="m27.9989 22.9129v-.1h-.1-1.0434-.1v.1c0 .256.0842.4991.2265.6861l-.0007.0005.0091.0092c.0158.0159.0292.0321.0456.052l.0009.0011c.0156.0189.0341.0414.0567.0643.2106.213.4933.3425.8053.3425h.1v-.1z" fill="#25265e" stroke="#fff" stroke-width=".2"/></svg>