<svg width="42" height="33" viewBox="0 0 42 33" fill="none" xmlns="http://www.w3.org/2000/svg">
<g clip-path="url(#clip0)">
<path d="M41.0182 32.2566V32.3409H41.096C41.1132 32.3409 41.1279 32.3368 41.1386 32.3303C41.1484 32.3237 41.1541 32.3122 41.1541 32.2983C41.1541 32.2844 41.1484 32.2738 41.1386 32.2672C41.1279 32.2598 41.1132 32.2566 41.096 32.2566H41.0182ZM41.0968 32.1976C41.1369 32.1976 41.1681 32.2066 41.1902 32.2246C41.2123 32.2426 41.2229 32.2672 41.2229 32.2983C41.2229 32.3245 41.2147 32.3458 41.1967 32.363C41.1795 32.3794 41.155 32.39 41.1222 32.3941L41.2254 32.5129H41.1451L41.0493 32.3949H41.0182V32.5129H40.9511V32.1976H41.0968ZM41.0763 32.6218C41.1132 32.6218 41.1476 32.6144 41.1787 32.6005C41.2106 32.5866 41.2385 32.5677 41.2622 32.544C41.286 32.5202 41.3048 32.4924 41.3187 32.4596C41.3318 32.4277 41.3392 32.3933 41.3392 32.3565C41.3392 32.3196 41.3318 32.2852 41.3187 32.2533C41.3048 32.2213 41.286 32.1927 41.2622 32.1689C41.2385 32.1452 41.2106 32.1264 41.1787 32.1124C41.1476 32.0993 41.1132 32.0928 41.0763 32.0928C41.0395 32.0928 41.0043 32.0993 40.9723 32.1124C40.9396 32.1264 40.9109 32.1452 40.8872 32.1689C40.8634 32.1927 40.8446 32.2213 40.8315 32.2533C40.8176 32.2852 40.811 32.3196 40.811 32.3565C40.811 32.3933 40.8176 32.4277 40.8315 32.4596C40.8446 32.4924 40.8634 32.5202 40.8872 32.544C40.9109 32.5677 40.9396 32.5866 40.9723 32.6005C41.0043 32.6144 41.0395 32.6218 41.0763 32.6218ZM41.0763 32.0166C41.1247 32.0166 41.1689 32.0256 41.2115 32.0437C41.2532 32.0609 41.2892 32.0854 41.3212 32.1165C41.3523 32.1468 41.3769 32.1829 41.3949 32.2246C41.4129 32.2656 41.4219 32.3098 41.4219 32.3565C41.4219 32.4031 41.4129 32.4474 41.3949 32.4883C41.3769 32.5292 41.3523 32.5653 41.3212 32.5964C41.2892 32.6267 41.2532 32.6513 41.2115 32.6693C41.1689 32.6873 41.1247 32.6963 41.0763 32.6963C41.0272 32.6963 40.9822 32.6873 40.9396 32.6693C40.897 32.6513 40.8602 32.6267 40.829 32.5964C40.7979 32.5653 40.7734 32.5292 40.7553 32.4883C40.7373 32.4474 40.7283 32.4031 40.7283 32.3565C40.7283 32.3098 40.7373 32.2656 40.7553 32.2246C40.7734 32.1829 40.7979 32.1468 40.829 32.1165C40.8602 32.0854 40.897 32.0609 40.9396 32.0437C40.9822 32.0256 41.0272 32.0166 41.0763 32.0166ZM9.17267 30.8023C9.17267 30.2012 9.56654 29.7074 10.2102 29.7074C10.8251 29.7074 11.2403 30.1799 11.2403 30.8023C11.2403 31.4246 10.8251 31.8971 10.2102 31.8971C9.56654 31.8971 9.17267 31.4033 9.17267 30.8023ZM11.9412 30.8023V29.0925H11.1977V29.5076C10.9619 29.1998 10.604 29.0065 10.1176 29.0065C9.15875 29.0065 8.40704 29.7582 8.40704 30.8023C8.40704 31.8471 9.15875 32.598 10.1176 32.598C10.604 32.598 10.9619 32.4048 11.1977 32.0969V32.512H11.9412V30.8023ZM37.0672 30.8023C37.0672 30.2012 37.4611 29.7074 38.1047 29.7074C38.7205 29.7074 39.1348 30.1799 39.1348 30.8023C39.1348 31.4246 38.7205 31.8971 38.1047 31.8971C37.4611 31.8971 37.0672 31.4033 37.0672 30.8023ZM39.8366 30.8023V27.7193H39.0922V29.5076C38.8564 29.1998 38.4986 29.0065 38.0122 29.0065C37.0533 29.0065 36.3016 29.7582 36.3016 30.8023C36.3016 31.8471 37.0533 32.598 38.0122 32.598C38.4986 32.598 38.8564 32.4048 39.0922 32.0969V32.512H39.8366V30.8023ZM21.1706 29.6722C21.6497 29.6722 21.9576 29.9728 22.0362 30.5017H20.2617C20.3411 30.008 20.6408 29.6722 21.1706 29.6722ZM21.1854 29.0065C20.1831 29.0065 19.4821 29.7361 19.4821 30.8023C19.4821 31.8897 20.2117 32.598 21.2353 32.598C21.7504 32.598 22.2221 32.4695 22.6372 32.119L22.2728 31.5679C21.9862 31.7964 21.621 31.9257 21.2779 31.9257C20.7989 31.9257 20.3624 31.7038 20.2551 31.088H22.7944C22.8018 30.9955 22.8092 30.9022 22.8092 30.8023C22.8018 29.7361 22.1434 29.0065 21.1854 29.0065ZM30.1634 30.8023C30.1634 30.2012 30.5572 29.7074 31.2009 29.7074C31.8158 29.7074 32.231 30.1799 32.231 30.8023C32.231 31.4246 31.8158 31.8971 31.2009 31.8971C30.5572 31.8971 30.1634 31.4033 30.1634 30.8023ZM32.9319 30.8023V29.0925H32.1884V29.5076C31.9518 29.1998 31.5947 29.0065 31.1083 29.0065C30.1494 29.0065 29.3977 29.7582 29.3977 30.8023C29.3977 31.8471 30.1494 32.598 31.1083 32.598C31.5947 32.598 31.9518 32.4048 32.1884 32.0969V32.512H32.9319V30.8023ZM25.9642 30.8023C25.9642 31.8398 26.6865 32.598 27.7887 32.598C28.3037 32.598 28.6468 32.4834 29.0186 32.1902L28.6616 31.5892C28.3823 31.7898 28.0892 31.8971 27.7666 31.8971C27.1729 31.8897 26.7364 31.4606 26.7364 30.8023C26.7364 30.1439 27.1729 29.7148 27.7666 29.7074C28.0892 29.7074 28.3823 29.8147 28.6616 30.0153L29.0186 29.4143C28.6468 29.1211 28.3037 29.0065 27.7887 29.0065C26.6865 29.0065 25.9642 29.7648 25.9642 30.8023ZM35.5507 29.0065C35.1216 29.0065 34.8423 29.2071 34.6491 29.5076V29.0925H33.9121V32.512H34.6565V30.5951C34.6565 30.0293 34.8997 29.7148 35.3861 29.7148C35.5367 29.7148 35.694 29.7361 35.8512 29.8008L36.0805 29.0999C35.9159 29.0352 35.7013 29.0065 35.5507 29.0065ZM15.6188 29.3643C15.2609 29.1285 14.768 29.0065 14.2242 29.0065C13.3579 29.0065 12.8002 29.4217 12.8002 30.1013C12.8002 30.659 13.2154 31.0029 13.9802 31.1102L14.3315 31.1601C14.7393 31.2174 14.9317 31.3247 14.9317 31.5179C14.9317 31.7824 14.6599 31.9331 14.1522 31.9331C13.6371 31.9331 13.2653 31.7685 13.0148 31.5753L12.6643 32.1542C13.0721 32.4547 13.5872 32.598 14.1448 32.598C15.1323 32.598 15.7047 32.1329 15.7047 31.4819C15.7047 30.8809 15.2544 30.5664 14.51 30.4592L14.1595 30.4084C13.8377 30.3658 13.5798 30.3019 13.5798 30.0727C13.5798 29.8221 13.823 29.6722 14.2308 29.6722C14.6672 29.6722 15.0898 29.8368 15.2969 29.9654L15.6188 29.3643ZM25.2125 29.0065C24.7834 29.0065 24.5042 29.2071 24.3118 29.5076V29.0925H23.5748V32.512H24.3183V30.5951C24.3183 30.0293 24.5615 29.7148 25.0479 29.7148C25.1986 29.7148 25.3558 29.7361 25.5131 29.8008L25.7423 29.0999C25.5777 29.0352 25.3632 29.0065 25.2125 29.0065ZM18.8672 29.0925H17.6512V28.055H16.8995V29.0925H16.2059V29.7721H16.8995V31.3321C16.8995 32.1255 17.2073 32.598 18.0868 32.598C18.4094 32.598 18.7812 32.4981 19.017 32.3335L18.8025 31.6965C18.5806 31.825 18.3374 31.8897 18.1441 31.8897C17.7724 31.8897 17.6512 31.6604 17.6512 31.3173V29.7721H18.8672V29.0925ZM7.74949 32.512V30.3658C7.74949 29.5576 7.23443 29.0139 6.4041 29.0065C5.96765 28.9991 5.51728 29.1351 5.20201 29.6149C4.96618 29.2358 4.59442 29.0065 4.07198 29.0065C3.70677 29.0065 3.34975 29.1138 3.07052 29.5142V29.0925H2.32617V32.512H3.07707V30.6164C3.07707 30.0227 3.40625 29.7074 3.91476 29.7074C4.40854 29.7074 4.65829 30.0293 4.65829 30.609V32.512H5.41V30.6164C5.41 30.0227 5.75311 29.7074 6.24688 29.7074C6.75457 29.7074 6.99778 30.0293 6.99778 30.609V32.512H7.74949Z" fill="white"/>
<path d="M41.4786 21.1387V20.6378H41.3481L41.197 20.9818L41.0467 20.6378H40.9153V21.1387H41.0081V20.7609L41.1494 21.0869H41.2454L41.3867 20.7601V21.1387H41.4786ZM40.6501 21.1387V20.7232H40.8176V20.6386H40.3906V20.7232H40.5581V21.1387H40.6501Z" fill="#F79410"/>
<path d="M26.6712 23.2882H15.4023V3.03613H26.6712V23.2882Z" fill="#FF5F00"/>
<path d="M16.1237 13.1602C16.1237 9.05195 18.0472 5.39245 21.0426 3.03413C18.8522 1.30961 16.0877 0.280304 13.0833 0.280304C5.97068 0.280304 0.205078 6.04672 0.205078 13.1602C0.205078 20.2736 5.97068 26.04 13.0833 26.04C16.0877 26.04 18.8522 25.0107 21.0426 23.2862C18.0472 20.9279 16.1237 17.2684 16.1237 13.1602Z" fill="#EB001B"/>
<path d="M41.8677 13.1602C41.8677 20.2736 36.1021 26.04 28.9894 26.04C25.985 26.04 23.2206 25.0107 21.0293 23.2862C24.0255 20.9279 25.949 17.2684 25.949 13.1602C25.949 9.05195 24.0255 5.39245 21.0293 3.03413C23.2206 1.30961 25.985 0.280304 28.9894 0.280304C36.1021 0.280304 41.8677 6.04672 41.8677 13.1602Z" fill="#F79E1B"/>
</g>
<defs>
<clipPath id="clip0">
<rect width="41.6763" height="32.42" fill="white" transform="translate(0.189453 0.291016)"/>
</clipPath>
</defs>
</svg>
